<?xml version="1.0" encoding="UTF-8" ?>
<svg version="1.1" width="32" height="32" xmlns="http://www.w3.org/2000/svg" shape-rendering="crispEdges">
<rect x="8" y="0" width="16" height="1" fill="#C4ECFF" />
<rect x="6" y="1" width="2" height="1" fill="#C4ECFF" />
<rect x="8" y="1" width="1" height="1" fill="#3E4EA8" />
<rect x="9" y="1" width="4" height="2" fill="#394AAB" />
<rect x="13" y="1" width="3" height="1" fill="#3E4EA8" />
<rect x="16" y="1" width="6" height="1" fill="#394AAB" />
<rect x="22" y="1" width="1" height="1" fill="#3849A8" />
<rect x="23" y="1" width="1" height="1" fill="#3E4EA8" />
<rect x="24" y="1" width="2" height="1" fill="#8CDAFF" />
<rect x="4" y="2" width="2" height="1" fill="#C4ECFF" />
<rect x="6" y="2" width="1" height="1" fill="#3E4EA8" />
<rect x="7" y="2" width="2" height="3" fill="#394AAB" />
<rect x="13" y="2" width="2" height="2" fill="#394AAB" />
<rect x="15" y="2" width="1" height="2" fill="#3E4EA8" />
<rect x="16" y="2" width="2" height="2" fill="#394AAB" />
<rect x="18" y="2" width="1" height="1" fill="#3E4EA8" />
<rect x="19" y="2" width="6" height="1" fill="#394AAB" />
<rect x="25" y="2" width="1" height="1" fill="#3E4EA8" />
<rect x="26" y="2" width="2" height="1" fill="#8CDAFF" />
<rect x="3" y="3" width="1" height="1" fill="#C4ECFF" />
<rect x="4" y="3" width="1" height="1" fill="#394AAB" />
<rect x="5" y="3" width="1" height="1" fill="#3E4EA8" />
<rect x="6" y="3" width="1" height="3" fill="#394AAB" />
<rect x="9" y="3" width="1" height="1" fill="#3E4EA8" />
<rect x="10" y="3" width="1" height="1" fill="#394AAB" />
<rect x="11" y="3" width="1" height="2" fill="#3E4EA8" />
<rect x="12" y="3" width="1" height="2" fill="#394AAB" />
<rect x="18" y="3" width="1" height="1" fill="#394AAB" />
<rect x="19" y="3" width="1" height="1" fill="#3E4EA8" />
<rect x="20" y="3" width="7" height="1" fill="#394AAB" />
<rect x="27" y="3" width="1" height="1" fill="#3E4EA8" />
<rect x="28" y="3" width="1" height="1" fill="#8CDAFF" />
<rect x="2" y="4" width="1" height="2" fill="#C4ECFF" />
<rect x="3" y="4" width="2" height="1" fill="#3E4EA8" />
<rect x="5" y="4" width="1" height="1" fill="#394AAB" />
<rect x="9" y="4" width="1" height="2" fill="#394AAB" />
<rect x="10" y="4" width="1" height="1" fill="#3E4EA8" />
<rect x="13" y="4" width="3" height="1" fill="#D5D9DF" />
<rect x="16" y="4" width="1" height="1" fill="#C7CFDD" />
<rect x="17" y="4" width="1" height="1" fill="#D5D9DF" />
<rect x="18" y="4" width="1" height="2" fill="#C7CFDD" />
<rect x="19" y="4" width="1" height="1" fill="#394AAB" />
<rect x="20" y="4" width="1" height="1" fill="#3E4EA8" />
<rect x="21" y="4" width="3" height="1" fill="#394AAB" />
<rect x="24" y="4" width="1" height="2" fill="#3E4EA8" />
<rect x="25" y="4" width="4" height="1" fill="#394AAB" />
<rect x="29" y="4" width="1" height="2" fill="#8CDAFF" />
<rect x="3" y="5" width="1" height="2" fill="#3E4EA8" />
<rect x="4" y="5" width="1" height="1" fill="#394AAB" />
<rect x="5" y="5" width="1" height="1" fill="#3E4EA8" />
<rect x="7" y="5" width="1" height="1" fill="#3E4EA8" />
<rect x="8" y="5" width="1" height="2" fill="#394AAB" />
<rect x="10" y="5" width="1" height="1" fill="#394AAB" />
<rect x="11" y="5" width="1" height="2" fill="#C7CFDD" />
<rect x="12" y="5" width="3" height="1" fill="#D5D9DF" />
<rect x="15" y="5" width="1" height="4" fill="#C7CFDD" />
<rect x="16" y="5" width="1" height="2" fill="#D5D9DF" />
<rect x="17" y="5" width="1" height="5" fill="#C7CFDD" />
<rect x="19" y="5" width="2" height="1" fill="#D5D9DF" />
<rect x="21" y="5" width="1" height="1" fill="#3E4EA8" />
<rect x="22" y="5" width="2" height="1" fill="#394AAB" />
<rect x="25" y="5" width="2" height="2" fill="#394AAB" />
<rect x="27" y="5" width="1" height="1" fill="#3E4EA8" />
<rect x="28" y="5" width="1" height="6" fill="#394AAB" />
<rect x="1" y="6" width="1" height="2" fill="#C4ECFF" />
<rect x="2" y="6" width="1" height="1" fill="#3E4EA8" />
<rect x="4" y="6" width="1" height="4" fill="#3E4EA8" />
<rect x="5" y="6" width="1" height="1" fill="#394AAB" />
<rect x="6" y="6" width="1" height="3" fill="#3E4EA8" />
<rect x="7" y="6" width="1" height="1" fill="#394AAB" />
<rect x="9" y="6" width="1" height="1" fill="#D5D9DF" />
<rect x="10" y="6" width="1" height="3" fill="#C7CFDD" />
<rect x="12" y="6" width="3" height="1" fill="#C7CFDD" />
<rect x="18" y="6" width="2" height="1" fill="#D5D9DF" />
<rect x="20" y="6" width="1" height="2" fill="#C7CFDD" />
<rect x="21" y="6" width="2" height="3" fill="#D5D9DF" />
<rect x="23" y="6" width="2" height="1" fill="#394AAB" />
<rect x="27" y="6" width="1" height="3" fill="#394AAB" />
<rect x="29" y="6" width="1" height="3" fill="#3E4EA8" />
<rect x="30" y="6" width="1" height="2" fill="#8CDAFF" />
<rect x="2" y="7" width="2" height="1" fill="#394AAB" />
<rect x="5" y="7" width="1" height="3" fill="#3E4EA8" />
<rect x="7" y="7" width="1" height="1" fill="#3E4EA8" />
<rect x="8" y="7" width="2" height="2" fill="#C7CFDD" />
<rect x="11" y="7" width="2" height="1" fill="#D5D9DF" />
<rect x="13" y="7" width="1" height="3" fill="#C7CFDD" />
<rect x="14" y="7" width="1" height="3" fill="#D5D9DF" />
<rect x="16" y="7" width="1" height="3" fill="#C7CFDD" />
<rect x="18" y="7" width="1" height="3" fill="#D5D9DF" />
<rect x="19" y="7" width="1" height="1" fill="#C7CFDD" />
<rect x="23" y="7" width="1" height="1" fill="#C7CFDD" />
<rect x="24" y="7" width="2" height="1" fill="#3E4EA8" />
<rect x="26" y="7" width="1" height="3" fill="#394AAB" />
<rect x="0" y="8" width="1" height="16" fill="#C4ECFF" />
<rect x="1" y="8" width="1" height="5" fill="#394AAB" />
<rect x="2" y="8" width="2" height="1" fill="#3E4EA8" />
<rect x="7" y="8" width="1" height="1" fill="#D5D9DF" />
<rect x="11" y="8" width="1" height="1" fill="#D5D9DF" />
<rect x="12" y="8" width="1" height="2" fill="#C7CFDD" />
<rect x="19" y="8" width="2" height="1" fill="#D5D9DF" />
<rect x="23" y="8" width="2" height="1" fill="#D5D9DF" />
<rect x="25" y="8" width="1" height="1" fill="#394AAB" />
<rect x="30" y="8" width="1" height="2" fill="#394AAB" />
<rect x="31" y="8" width="1" height="16" fill="#8CDAFF" />
<rect x="2" y="9" width="2" height="1" fill="#394AAB" />
<rect x="6" y="9" width="3" height="1" fill="#C7CFDD" />
<rect x="9" y="9" width="2" height="1" fill="#D5D9DF" />
<rect x="11" y="9" width="1" height="1" fill="#C7CFDD" />
<rect x="15" y="9" width="1" height="1" fill="#D5D9DF" />
<rect x="19" y="9" width="2" height="1" fill="#C7CFDD" />
<rect x="21" y="9" width="1" height="3" fill="#D5D9DF" />
<rect x="22" y="9" width="1" height="2" fill="#C7CFDD" />
<rect x="23" y="9" width="1" height="2" fill="#D5D9DF" />
<rect x="24" y="9" width="2" height="3" fill="#C7CFDD" />
<rect x="27" y="9" width="1" height="1" fill="#3E4EA8" />
<rect x="29" y="9" width="1" height="3" fill="#394AAB" />
<rect x="2" y="10" width="1" height="1" fill="#3E4EA8" />
<rect x="3" y="10" width="3" height="1" fill="#394AAB" />
<rect x="6" y="10" width="2" height="1" fill="#C7CFDD" />
<rect x="8" y="10" width="2" height="1" fill="#D5D9DF" />
<rect x="10" y="10" width="1" height="1" fill="#C7CFDD" />
<rect x="11" y="10" width="2" height="1" fill="#D5D9DF" />
<rect x="13" y="10" width="1" height="3" fill="#394AAB" />
<rect x="14" y="10" width="2" height="1" fill="#3E4EA8" />
<rect x="16" y="10" width="1" height="3" fill="#394AAB" />
<rect x="17" y="10" width="2" height="2" fill="#3E4EA8" />
<rect x="19" y="10" width="1" height="1" fill="#C7CFDD" />
<rect x="20" y="10" width="1" height="1" fill="#D5D9DF" />
<rect x="26" y="10" width="1" height="2" fill="#3E4EA8" />
<rect x="27" y="10" width="1" height="1" fill="#394AAB" />
<rect x="30" y="10" width="1" height="4" fill="#3E4EA8" />
<rect x="2" y="11" width="1" height="1" fill="#394AAB" />
<rect x="3" y="11" width="1" height="1" fill="#3E4EA8" />
<rect x="4" y="11" width="1" height="1" fill="#394AAB" />
<rect x="5" y="11" width="2" height="3" fill="#D5D9DF" />
<rect x="7" y="11" width="1" height="1" fill="#C7CFDD" />
<rect x="8" y="11" width="1" height="8" fill="#D5D9DF" />
<rect x="9" y="11" width="1" height="2" fill="#C7CFDD" />
<rect x="10" y="11" width="1" height="2" fill="#D5D9DF" />
<rect x="11" y="11" width="2" height="1" fill="#3E4EA8" />
<rect x="14" y="11" width="1" height="1" fill="#3E4EA8" />
<rect x="15" y="11" width="1" height="1" fill="#394AAB" />
<rect x="19" y="11" width="2" height="2" fill="#3E4EA8" />
<rect x="22" y="11" width="1" height="3" fill="#D5D9DF" />
<rect x="23" y="11" width="1" height="2" fill="#C7CFDD" />
<rect x="27" y="11" width="2" height="1" fill="#3E4EA8" />
<rect x="2" y="12" width="1" height="1" fill="#3849A8" />
<rect x="3" y="12" width="1" height="5" fill="#394AAB" />
<rect x="4" y="12" width="1" height="1" fill="#3E4EA8" />
<rect x="7" y="12" width="1" height="4" fill="#D5D9DF" />
<rect x="11" y="12" width="1" height="2" fill="#3E4EA8" />
<rect x="12" y="12" width="1" height="3" fill="#394AAB" />
<rect x="14" y="12" width="1" height="1" fill="#394AAB" />
<rect x="15" y="12" width="1" height="4" fill="#3E4EA8" />
<rect x="17" y="12" width="1" height="2" fill="#394AAB" />
<rect x="18" y="12" width="1" height="4" fill="#3E4EA8" />
<rect x="21" y="12" width="1" height="1" fill="#C7CFDD" />
<rect x="24" y="12" width="1" height="1" fill="#C7CFDD" />
<rect x="25" y="12" width="4" height="1" fill="#394AAB" />
<rect x="29" y="12" width="1" height="7" fill="#3E4EA8" />
<rect x="1" y="13" width="1" height="2" fill="#3E4EA8" />
<rect x="2" y="13" width="1" height="3" fill="#394AAB" />
<rect x="4" y="13" width="1" height="1" fill="#D5D9DF" />
<rect x="9" y="13" width="1" height="4" fill="#D5D9DF" />
<rect x="10" y="13" width="1" height="1" fill="#394AAB" />
<rect x="13" y="13" width="2" height="1" fill="#3E4EA8" />
<rect x="16" y="13" width="1" height="3" fill="#3E4EA8" />
<rect x="19" y="13" width="2" height="1" fill="#394AAB" />
<rect x="21" y="13" width="1" height="2" fill="#3E4EA8" />
<rect x="23" y="13" width="1" height="1" fill="#D5D9DF" />
<rect x="24" y="13" width="3" height="1" fill="#3E4EA8" />
<rect x="27" y="13" width="2" height="2" fill="#394AAB" />
<rect x="4" y="14" width="2" height="2" fill="#C7CFDD" />
<rect x="6" y="14" width="1" height="3" fill="#D5D9DF" />
<rect x="10" y="14" width="1" height="4" fill="#3E4EA8" />
<rect x="11" y="14" width="1" height="1" fill="#394AAB" />
<rect x="13" y="14" width="1" height="1" fill="#394AAB" />
<rect x="14" y="14" width="1" height="6" fill="#3E4EA8" />
<rect x="17" y="14" width="1" height="1" fill="#3E4EA8" />
<rect x="19" y="14" width="2" height="2" fill="#3E4EA8" />
<rect x="22" y="14" width="1" height="2" fill="#394AAB" />
<rect x="23" y="14" width="1" height="1" fill="#3E4EA8" />
<rect x="24" y="14" width="2" height="2" fill="#394AAB" />
<rect x="26" y="14" width="1" height="1" fill="#3E4EA8" />
<rect x="30" y="14" width="1" height="1" fill="#394AAB" />
<rect x="1" y="15" width="1" height="1" fill="#394AAB" />
<rect x="11" y="15" width="3" height="5" fill="#3E4EA8" />
<rect x="17" y="15" width="1" height="1" fill="#394AAB" />
<rect x="21" y="15" width="1" height="2" fill="#394AAB" />
<rect x="23" y="15" width="1" height="1" fill="#394AAB" />
<rect x="26" y="15" width="1" height="2" fill="#394AAB" />
<rect x="27" y="15" width="2" height="2" fill="#3E4EA8" />
<rect x="30" y="15" width="1" height="1" fill="#3E4EA8" />
<rect x="1" y="16" width="2" height="1" fill="#3E4EA8" />
<rect x="4" y="16" width="1" height="2" fill="#C7CFDD" />
<rect x="5" y="16" width="1" height="2" fill="#D5D9DF" />
<rect x="7" y="16" width="1" height="1" fill="#C7CFDD" />
<rect x="15" y="16" width="2" height="1" fill="#394AAB" />
<rect x="17" y="16" width="1" height="5" fill="#3E4EA8" />
<rect x="18" y="16" width="1" height="3" fill="#394AAB" />
<rect x="19" y="16" width="1" height="5" fill="#3E4EA8" />
<rect x="20" y="16" width="1" height="2" fill="#394AAB" />
<rect x="22" y="16" width="4" height="1" fill="#3E4EA8" />
<rect x="30" y="16" width="1" height="1" fill="#394AAB" />
<rect x="1" y="17" width="1" height="1" fill="#394AAB" />
<rect x="2" y="17" width="2" height="3" fill="#3E4EA8" />
<rect x="6" y="17" width="1" height="2" fill="#C7CFDD" />
<rect x="7" y="17" width="1" height="1" fill="#D5D9DF" />
<rect x="9" y="17" width="1" height="3" fill="#C7CFDD" />
<rect x="15" y="17" width="2" height="1" fill="#3E4EA8" />
<rect x="21" y="17" width="2" height="1" fill="#3E4EA8" />
<rect x="23" y="17" width="1" height="1" fill="#394AAB" />
<rect x="24" y="17" width="4" height="1" fill="#3E4EA8" />
<rect x="28" y="17" width="1" height="1" fill="#394AAB" />
<rect x="30" y="17" width="1" height="1" fill="#3E4EA8" />
<rect x="1" y="18" width="1" height="1" fill="#3E4EA8" />
<rect x="4" y="18" width="1" height="1" fill="#D5D9DF" />
<rect x="5" y="18" width="1" height="1" fill="#C7CFDD" />
<rect x="7" y="18" width="1" height="2" fill="#C7CFDD" />
<rect x="10" y="18" width="1" height="1" fill="#394AAB" />
<rect x="15" y="18" width="1" height="1" fill="#394AAB" />
<rect x="16" y="18" width="1" height="1" fill="#3E4EA8" />
<rect x="20" y="18" width="2" height="1" fill="#3E4EA8" />
<rect x="22" y="18" width="2" height="1" fill="#D5D9DF" />
<rect x="24" y="18" width="3" height="1" fill="#394AAB" />
<rect x="27" y="18" width="2" height="1" fill="#3E4EA8" />
<rect x="30" y="18" width="1" height="6" fill="#394AAB" />
<rect x="1" y="19" width="1" height="1" fill="#394AAB" />
<rect x="4" y="19" width="1" height="2" fill="#3E4EA8" />
<rect x="5" y="19" width="2" height="1" fill="#D5D9DF" />
<rect x="8" y="19" width="1" height="4" fill="#C7CFDD" />
<rect x="10" y="19" width="1" height="3" fill="#C7CFDD" />
<rect x="15" y="19" width="1" height="1" fill="#3E4EA8" />
<rect x="16" y="19" width="1" height="1" fill="#394AAB" />
<rect x="18" y="19" width="1" height="2" fill="#3E4EA8" />
<rect x="20" y="19" width="1" height="2" fill="#3E4EA8" />
<rect x="21" y="19" width="2" height="2" fill="#D5D9DF" />
<rect x="23" y="19" width="2" height="1" fill="#C7CFDD" />
<rect x="25" y="19" width="1" height="1" fill="#394AAB" />
<rect x="26" y="19" width="1" height="2" fill="#3E4EA8" />
<rect x="27" y="19" width="3" height="1" fill="#394AAB" />
<rect x="1" y="20" width="2" height="1" fill="#3E4EA8" />
<rect x="3" y="20" width="1" height="1" fill="#394AAB" />
<rect x="5" y="20" width="1" height="1" fill="#C7CFDD" />
<rect x="6" y="20" width="2" height="1" fill="#D5D9DF" />
<rect x="9" y="20" width="1" height="1" fill="#D5D9DF" />
<rect x="11" y="20" width="1" height="1" fill="#3E4EA8" />
<rect x="12" y="20" width="1" height="1" fill="#394AAB" />
<rect x="13" y="20" width="1" height="2" fill="#3E4EA8" />
<rect x="14" y="20" width="2" height="1" fill="#394AAB" />
<rect x="16" y="20" width="1" height="2" fill="#3E4EA8" />
<rect x="23" y="20" width="2" height="1" fill="#D5D9DF" />
<rect x="25" y="20" width="1" height="1" fill="#C7CFDD" />
<rect x="27" y="20" width="3" height="1" fill="#3E4EA8" />
<rect x="1" y="21" width="2" height="2" fill="#394AAB" />
<rect x="3" y="21" width="1" height="1" fill="#3E4EA8" />
<rect x="4" y="21" width="2" height="1" fill="#394AAB" />
<rect x="6" y="21" width="2" height="2" fill="#C7CFDD" />
<rect x="9" y="21" width="1" height="1" fill="#C7CFDD" />
<rect x="11" y="21" width="2" height="2" fill="#C7CFDD" />
<rect x="14" y="21" width="1" height="1" fill="#394AAB" />
<rect x="15" y="21" width="1" height="1" fill="#3E4EA8" />
<rect x="17" y="21" width="2" height="1" fill="#394AAB" />
<rect x="19" y="21" width="2" height="1" fill="#C7CFDD" />
<rect x="21" y="21" width="1" height="4" fill="#D5D9DF" />
<rect x="22" y="21" width="3" height="1" fill="#C7CFDD" />
<rect x="25" y="21" width="1" height="1" fill="#D5D9DF" />
<rect x="26" y="21" width="2" height="3" fill="#394AAB" />
<rect x="28" y="21" width="1" height="1" fill="#3E4EA8" />
<rect x="29" y="21" width="1" height="3" fill="#394AAB" />
<rect x="3" y="22" width="1" height="1" fill="#394AAB" />
<rect x="4" y="22" width="2" height="2" fill="#3E4EA8" />
<rect x="9" y="22" width="2" height="2" fill="#D5D9DF" />
<rect x="13" y="22" width="3" height="1" fill="#D5D9DF" />
<rect x="16" y="22" width="2" height="1" fill="#C7CFDD" />
<rect x="18" y="22" width="2" height="1" fill="#D5D9DF" />
<rect x="20" y="22" width="1" height="1" fill="#C7CFDD" />
<rect x="22" y="22" width="1" height="4" fill="#C7CFDD" />
<rect x="23" y="22" width="1" height="1" fill="#D5D9DF" />
<rect x="24" y="22" width="2" height="1" fill="#C7CFDD" />
<rect x="28" y="22" width="1" height="5" fill="#394AAB" />
<rect x="1" y="23" width="1" height="1" fill="#394AAB" />
<rect x="2" y="23" width="2" height="2" fill="#3E4EA8" />
<rect x="6" y="23" width="1" height="3" fill="#394AAB" />
<rect x="7" y="23" width="1" height="1" fill="#C7CFDD" />
<rect x="8" y="23" width="1" height="1" fill="#D5D9DF" />
<rect x="11" y="23" width="1" height="4" fill="#C7CFDD" />
<rect x="12" y="23" width="1" height="3" fill="#D5D9DF" />
<rect x="13" y="23" width="3" height="1" fill="#C7CFDD" />
<rect x="16" y="23" width="2" height="1" fill="#D5D9DF" />
<rect x="18" y="23" width="2" height="1" fill="#C7CFDD" />
<rect x="20" y="23" width="1" height="4" fill="#D5D9DF" />
<rect x="23" y="23" width="1" height="1" fill="#C7CFDD" />
<rect x="24" y="23" width="1" height="1" fill="#D5D9DF" />
<rect x="25" y="23" width="1" height="2" fill="#3E4EA8" />
<rect x="1" y="24" width="1" height="2" fill="#8CDAFF" />
<rect x="4" y="24" width="1" height="3" fill="#3E4EA8" />
<rect x="5" y="24" width="1" height="1" fill="#394AAB" />
<rect x="7" y="24" width="1" height="6" fill="#3E4EA8" />
<rect x="8" y="24" width="3" height="1" fill="#C7CFDD" />
<rect x="13" y="24" width="1" height="1" fill="#C7CFDD" />
<rect x="14" y="24" width="1" height="4" fill="#D5D9DF" />
<rect x="15" y="24" width="1" height="1" fill="#C7CFDD" />
<rect x="16" y="24" width="1" height="1" fill="#D5D9DF" />
<rect x="17" y="24" width="1" height="4" fill="#C7CFDD" />
<rect x="18" y="24" width="2" height="1" fill="#D5D9DF" />
<rect x="23" y="24" width="1" height="1" fill="#D5D9DF" />
<rect x="24" y="24" width="1" height="2" fill="#394AAB" />
<rect x="26" y="24" width="1" height="2" fill="#394AAB" />
<rect x="27" y="24" width="1" height="2" fill="#3E4EA8" />
<rect x="29" y="24" width="1" height="2" fill="#3E4EA8" />
<rect x="30" y="24" width="1" height="2" fill="#8CDAFF" />
<rect x="2" y="25" width="1" height="1" fill="#3E4EA8" />
<rect x="3" y="25" width="1" height="1" fill="#394AAB" />
<rect x="5" y="25" width="1" height="4" fill="#3E4EA8" />
<rect x="8" y="25" width="1" height="1" fill="#394AAB" />
<rect x="9" y="25" width="2" height="1" fill="#C7CFDD" />
<rect x="13" y="25" width="1" height="3" fill="#D5D9DF" />
<rect x="15" y="25" width="1" height="2" fill="#D5D9DF" />
<rect x="16" y="25" width="1" height="2" fill="#C7CFDD" />
<rect x="18" y="25" width="2" height="2" fill="#C7CFDD" />
<rect x="21" y="25" width="1" height="1" fill="#C7CFDD" />
<rect x="23" y="25" width="1" height="5" fill="#3E4EA8" />
<rect x="25" y="25" width="1" height="2" fill="#394AAB" />
<rect x="2" y="26" width="1" height="2" fill="#8CDAFF" />
<rect x="3" y="26" width="1" height="2" fill="#3E4EA8" />
<rect x="6" y="26" width="1" height="2" fill="#3E4EA8" />
<rect x="8" y="26" width="1" height="5" fill="#3E4EA8" />
<rect x="9" y="26" width="1" height="1" fill="#394AAB" />
<rect x="10" y="26" width="1" height="5" fill="#3E4EA8" />
<rect x="12" y="26" width="1" height="1" fill="#C7CFDD" />
<rect x="21" y="26" width="2" height="1" fill="#394AAB" />
<rect x="24" y="26" width="1" height="3" fill="#3E4EA8" />
<rect x="26" y="26" width="1" height="3" fill="#3E4EA8" />
<rect x="27" y="26" width="1" height="1" fill="#394AAB" />
<rect x="29" y="26" width="1" height="2" fill="#8CDAFF" />
<rect x="4" y="27" width="1" height="1" fill="#394AAB" />
<rect x="9" y="27" width="1" height="4" fill="#3E4EA8" />
<rect x="11" y="27" width="2" height="4" fill="#3E4EA8" />
<rect x="15" y="27" width="1" height="1" fill="#C7CFDD" />
<rect x="16" y="27" width="1" height="1" fill="#D5D9DF" />
<rect x="18" y="27" width="1" height="1" fill="#D5D9DF" />
<rect x="19" y="27" width="4" height="1" fill="#3E4EA8" />
<rect x="25" y="27" width="1" height="3" fill="#3E4EA8" />
<rect x="27" y="27" width="2" height="1" fill="#3E4EA8" />
<rect x="3" y="28" width="1" height="1" fill="#8CDAFF" />
<rect x="4" y="28" width="1" height="1" fill="#3E4EA8" />
<rect x="6" y="28" width="1" height="2" fill="#394AAB" />
<rect x="13" y="28" width="1" height="3" fill="#3E4EA8" />
<rect x="14" y="28" width="3" height="1" fill="#394AAB" />
<rect x="17" y="28" width="2" height="3" fill="#3E4EA8" />
<rect x="19" y="28" width="2" height="1" fill="#394AAB" />
<rect x="21" y="28" width="2" height="1" fill="#3E4EA8" />
<rect x="27" y="28" width="1" height="1" fill="#3E4EA8" />
<rect x="28" y="28" width="1" height="1" fill="#8CDAFF" />
<rect x="4" y="29" width="2" height="1" fill="#8CDAFF" />
<rect x="14" y="29" width="3" height="2" fill="#3E4EA8" />
<rect x="19" y="29" width="3" height="1" fill="#3E4EA8" />
<rect x="22" y="29" width="1" height="1" fill="#394AAB" />
<rect x="24" y="29" width="1" height="1" fill="#394AAB" />
<rect x="26" y="29" width="2" height="1" fill="#8CDAFF" />
<rect x="6" y="30" width="2" height="1" fill="#8CDAFF" />
<rect x="19" y="30" width="2" height="1" fill="#394AAB" />
<rect x="21" y="30" width="2" height="1" fill="#3E4EA8" />
<rect x="23" y="30" width="1" height="1" fill="#394AAB" />
<rect x="24" y="30" width="2" height="1" fill="#8CDAFF" />
<rect x="8" y="31" width="16" height="1" fill="#8CDAFF" />
</svg>