<?xml version="1.0" encoding="UTF-8" ?>
<svg version="1.1" width="32" height="32" xmlns="http://www.w3.org/2000/svg" shape-rendering="crispEdges">
<rect x="8" y="0" width="16" height="1" fill="#C4ECFF" />
<rect x="6" y="1" width="2" height="1" fill="#C4ECFF" />
<rect x="8" y="1" width="1" height="1" fill="#F5E156" />
<rect x="9" y="1" width="1" height="6" fill="#F0DB4E" />
<rect x="10" y="1" width="1" height="1" fill="#F5E156" />
<rect x="11" y="1" width="3" height="3" fill="#F0DB4E" />
<rect x="14" y="1" width="1" height="1" fill="#F5E156" />
<rect x="15" y="1" width="8" height="1" fill="#F0DB4E" />
<rect x="23" y="1" width="1" height="1" fill="#F5E156" />
<rect x="24" y="1" width="2" height="1" fill="#8CDAFF" />
<rect x="4" y="2" width="2" height="1" fill="#C4ECFF" />
<rect x="6" y="2" width="3" height="1" fill="#F0DB4E" />
<rect x="10" y="2" width="1" height="1" fill="#F0DB4E" />
<rect x="14" y="2" width="2" height="5" fill="#F0DB4E" />
<rect x="16" y="2" width="1" height="1" fill="#F5E156" />
<rect x="17" y="2" width="2" height="4" fill="#F0DB4E" />
<rect x="19" y="2" width="1" height="1" fill="#F5E156" />
<rect x="20" y="2" width="6" height="1" fill="#F0DB4E" />
<rect x="26" y="2" width="2" height="1" fill="#8CDAFF" />
<rect x="3" y="3" width="1" height="1" fill="#C4ECFF" />
<rect x="4" y="3" width="1" height="5" fill="#F0DB4E" />
<rect x="5" y="3" width="2" height="1" fill="#F5E156" />
<rect x="7" y="3" width="2" height="1" fill="#F0DB4E" />
<rect x="10" y="3" width="1" height="3" fill="#F5E156" />
<rect x="16" y="3" width="1" height="6" fill="#F0DB4E" />
<rect x="19" y="3" width="6" height="1" fill="#F0DB4E" />
<rect x="25" y="3" width="1" height="1" fill="#F5E156" />
<rect x="26" y="3" width="1" height="4" fill="#F0DB4E" />
<rect x="27" y="3" width="1" height="1" fill="#F5E156" />
<rect x="28" y="3" width="1" height="1" fill="#8CDAFF" />
<rect x="2" y="4" width="1" height="2" fill="#C4ECFF" />
<rect x="3" y="4" width="1" height="1" fill="#F5E156" />
<rect x="5" y="4" width="3" height="1" fill="#F0DB4E" />
<rect x="8" y="4" width="1" height="3" fill="#F5E156" />
<rect x="11" y="4" width="1" height="2" fill="#F0DB4E" />
<rect x="12" y="4" width="2" height="1" fill="#F5E156" />
<rect x="19" y="4" width="2" height="1" fill="#F0DB4E" />
<rect x="21" y="4" width="1" height="1" fill="#F5E156" />
<rect x="22" y="4" width="1" height="1" fill="#F0DB4E" />
<rect x="23" y="4" width="1" height="1" fill="#F5E156" />
<rect x="24" y="4" width="2" height="1" fill="#F0DB4E" />
<rect x="27" y="4" width="2" height="2" fill="#F0DB4E" />
<rect x="29" y="4" width="1" height="2" fill="#8CDAFF" />
<rect x="3" y="5" width="1" height="8" fill="#F0DB4E" />
<rect x="5" y="5" width="1" height="7" fill="#F0DB4E" />
<rect x="6" y="5" width="1" height="2" fill="#F5E156" />
<rect x="7" y="5" width="1" height="1" fill="#F0DB4E" />
<rect x="12" y="5" width="2" height="1" fill="#F0DB4E" />
<rect x="19" y="5" width="1" height="2" fill="#F0DB4E" />
<rect x="20" y="5" width="1" height="1" fill="#F5E156" />
<rect x="21" y="5" width="1" height="1" fill="#F0DB4E" />
<rect x="22" y="5" width="1" height="1" fill="#F5E156" />
<rect x="23" y="5" width="2" height="1" fill="#F0DB4E" />
<rect x="25" y="5" width="1" height="1" fill="#F5E156" />
<rect x="1" y="6" width="1" height="2" fill="#C4ECFF" />
<rect x="2" y="6" width="1" height="1" fill="#F5E156" />
<rect x="7" y="6" width="1" height="4" fill="#F5E156" />
<rect x="10" y="6" width="1" height="1" fill="#F0DB4E" />
<rect x="11" y="6" width="1" height="8" fill="#1D1D1D" />
<rect x="12" y="6" width="1" height="1" fill="#1A1A1A" />
<rect x="13" y="6" width="1" height="1" fill="#F0DB4E" />
<rect x="17" y="6" width="1" height="2" fill="#F0DB4E" />
<rect x="18" y="6" width="1" height="1" fill="#F5E156" />
<rect x="20" y="6" width="2" height="1" fill="#1D1D1D" />
<rect x="22" y="6" width="1" height="1" fill="#1A1A1A" />
<rect x="23" y="6" width="2" height="2" fill="#1D1D1D" />
<rect x="25" y="6" width="1" height="1" fill="#F0DB4E" />
<rect x="27" y="6" width="1" height="1" fill="#F5E156" />
<rect x="28" y="6" width="2" height="1" fill="#F0DB4E" />
<rect x="30" y="6" width="1" height="2" fill="#8CDAFF" />
<rect x="2" y="7" width="1" height="2" fill="#F0DB4E" />
<rect x="6" y="7" width="1" height="9" fill="#F0DB4E" />
<rect x="8" y="7" width="1" height="5" fill="#F0DB4E" />
<rect x="9" y="7" width="1" height="1" fill="#F5E156" />
<rect x="10" y="7" width="1" height="3" fill="#1D1D1D" />
<rect x="12" y="7" width="1" height="2" fill="#1D1D1D" />
<rect x="13" y="7" width="1" height="2" fill="#1A1A1A" />
<rect x="14" y="7" width="1" height="3" fill="#F0DB4E" />
<rect x="15" y="7" width="1" height="1" fill="#F5E156" />
<rect x="18" y="7" width="2" height="1" fill="#1D1D1D" />
<rect x="20" y="7" width="1" height="2" fill="#1A1A1A" />
<rect x="21" y="7" width="2" height="1" fill="#1D1D1D" />
<rect x="25" y="7" width="2" height="1" fill="#1D1D1D" />
<rect x="27" y="7" width="2" height="1" fill="#F0DB4E" />
<rect x="29" y="7" width="1" height="1" fill="#F5E156" />
<rect x="0" y="8" width="1" height="16" fill="#C4ECFF" />
<rect x="1" y="8" width="1" height="2" fill="#F0DB4E" />
<rect x="4" y="8" width="1" height="1" fill="#F5E156" />
<rect x="9" y="8" width="1" height="2" fill="#F0DB4E" />
<rect x="15" y="8" width="1" height="2" fill="#F0DB4E" />
<rect x="17" y="8" width="1" height="1" fill="#1D1D1D" />
<rect x="18" y="8" width="2" height="1" fill="#1A1A1A" />
<rect x="21" y="8" width="1" height="3" fill="#1A1A1A" />
<rect x="22" y="8" width="1" height="2" fill="#1D1D1D" />
<rect x="23" y="8" width="1" height="1" fill="#1A1A1A" />
<rect x="24" y="8" width="1" height="3" fill="#1D1D1D" />
<rect x="25" y="8" width="1" height="1" fill="#1A1A1A" />
<rect x="26" y="8" width="1" height="1" fill="#1D1D1D" />
<rect x="27" y="8" width="1" height="1" fill="#1A1A1A" />
<rect x="28" y="8" width="3" height="2" fill="#F0DB4E" />
<rect x="31" y="8" width="1" height="16" fill="#8CDAFF" />
<rect x="2" y="9" width="1" height="1" fill="#F5E156" />
<rect x="4" y="9" width="1" height="2" fill="#F0DB4E" />
<rect x="12" y="9" width="1" height="3" fill="#1A1A1A" />
<rect x="13" y="9" width="1" height="1" fill="#1D1D1D" />
<rect x="16" y="9" width="1" height="1" fill="#F5E156" />
<rect x="17" y="9" width="1" height="3" fill="#1A1A1A" />
<rect x="18" y="9" width="3" height="1" fill="#1D1D1D" />
<rect x="23" y="9" width="1" height="2" fill="#1D1D1D" />
<rect x="25" y="9" width="1" height="2" fill="#1D1D1D" />
<rect x="26" y="9" width="1" height="1" fill="#1A1A1A" />
<rect x="27" y="9" width="1" height="1" fill="#1D1D1D" />
<rect x="1" y="10" width="1" height="2" fill="#F5E156" />
<rect x="2" y="10" width="1" height="1" fill="#F0DB4E" />
<rect x="7" y="10" width="1" height="1" fill="#F0DB4E" />
<rect x="9" y="10" width="1" height="2" fill="#F5E156" />
<rect x="10" y="10" width="1" height="1" fill="#1A1A1A" />
<rect x="13" y="10" width="1" height="1" fill="#1A1A1A" />
<rect x="14" y="10" width="1" height="1" fill="#1D1D1D" />
<rect x="15" y="10" width="1" height="2" fill="#F5E156" />
<rect x="16" y="10" width="1" height="2" fill="#1A1A1A" />
<rect x="18" y="10" width="1" height="1" fill="#1A1A1A" />
<rect x="19" y="10" width="1" height="2" fill="#1D1D1D" />
<rect x="20" y="10" width="1" height="2" fill="#1A1A1A" />
<rect x="22" y="10" width="1" height="1" fill="#1A1A1A" />
<rect x="26" y="10" width="1" height="2" fill="#1D1D1D" />
<rect x="27" y="10" width="1" height="1" fill="#1A1A1A" />
<rect x="28" y="10" width="1" height="1" fill="#F5E156" />
<rect x="29" y="10" width="2" height="5" fill="#F0DB4E" />
<rect x="2" y="11" width="1" height="1" fill="#F5E156" />
<rect x="4" y="11" width="1" height="1" fill="#F5E156" />
<rect x="7" y="11" width="1" height="1" fill="#F5E156" />
<rect x="10" y="11" width="1" height="1" fill="#1D1D1D" />
<rect x="13" y="11" width="1" height="1" fill="#1D1D1D" />
<rect x="14" y="11" width="1" height="3" fill="#1A1A1A" />
<rect x="18" y="11" width="1" height="1" fill="#1D1D1D" />
<rect x="21" y="11" width="3" height="1" fill="#F5E156" />
<rect x="24" y="11" width="1" height="1" fill="#F0DB4E" />
<rect x="25" y="11" width="1" height="1" fill="#1A1A1A" />
<rect x="27" y="11" width="2" height="2" fill="#F0DB4E" />
<rect x="1" y="12" width="2" height="1" fill="#F0DB4E" />
<rect x="4" y="12" width="1" height="7" fill="#F0DB4E" />
<rect x="5" y="12" width="1" height="3" fill="#F5E156" />
<rect x="7" y="12" width="1" height="4" fill="#F0DB4E" />
<rect x="8" y="12" width="1" height="1" fill="#F5E156" />
<rect x="9" y="12" width="1" height="9" fill="#F0DB4E" />
<rect x="10" y="12" width="1" height="14" fill="#1A1A1A" />
<rect x="12" y="12" width="1" height="2" fill="#1D1D1D" />
<rect x="13" y="12" width="1" height="2" fill="#1A1A1A" />
<rect x="15" y="12" width="1" height="6" fill="#F0DB4E" />
<rect x="16" y="12" width="2" height="1" fill="#1D1D1D" />
<rect x="18" y="12" width="2" height="4" fill="#1A1A1A" />
<rect x="20" y="12" width="1" height="3" fill="#1D1D1D" />
<rect x="21" y="12" width="2" height="1" fill="#F0DB4E" />
<rect x="23" y="12" width="3" height="1" fill="#F5E156" />
<rect x="26" y="12" width="1" height="1" fill="#F0DB4E" />
<rect x="1" y="13" width="1" height="2" fill="#F5E156" />
<rect x="2" y="13" width="1" height="1" fill="#F0DB4E" />
<rect x="3" y="13" width="1" height="1" fill="#F5E156" />
<rect x="8" y="13" width="1" height="2" fill="#F0DB4E" />
<rect x="16" y="13" width="1" height="1" fill="#1A1A1A" />
<rect x="17" y="13" width="1" height="1" fill="#1D1D1D" />
<rect x="21" y="13" width="3" height="2" fill="#1A1A1A" />
<rect x="24" y="13" width="1" height="5" fill="#1D1D1D" />
<rect x="25" y="13" width="2" height="1" fill="#1A1A1A" />
<rect x="27" y="13" width="1" height="1" fill="#F5E156" />
<rect x="28" y="13" width="1" height="3" fill="#F0DB4E" />
<rect x="2" y="14" width="1" height="1" fill="#F5E156" />
<rect x="3" y="14" width="1" height="6" fill="#F0DB4E" />
<rect x="11" y="14" width="2" height="3" fill="#1A1A1A" />
<rect x="13" y="14" width="2" height="1" fill="#1D1D1D" />
<rect x="16" y="14" width="1" height="1" fill="#1D1D1D" />
<rect x="17" y="14" width="1" height="2" fill="#1A1A1A" />
<rect x="25" y="14" width="3" height="1" fill="#1D1D1D" />
<rect x="1" y="15" width="2" height="2" fill="#F0DB4E" />
<rect x="5" y="15" width="1" height="2" fill="#F0DB4E" />
<rect x="8" y="15" width="1" height="2" fill="#F5E156" />
<rect x="13" y="15" width="1" height="7" fill="#1A1A1A" />
<rect x="14" y="15" width="1" height="1" fill="#1D1D1D" />
<rect x="16" y="15" width="1" height="3" fill="#F0DB4E" />
<rect x="20" y="15" width="1" height="2" fill="#1A1A1A" />
<rect x="21" y="15" width="2" height="1" fill="#1D1D1D" />
<rect x="23" y="15" width="1" height="3" fill="#1A1A1A" />
<rect x="25" y="15" width="2" height="1" fill="#1D1D1D" />
<rect x="27" y="15" width="1" height="1" fill="#1A1A1A" />
<rect x="29" y="15" width="1" height="1" fill="#F0DB4E" />
<rect x="30" y="15" width="1" height="1" fill="#F5E156" />
<rect x="6" y="16" width="2" height="1" fill="#F5E156" />
<rect x="14" y="16" width="1" height="4" fill="#1A1A1A" />
<rect x="17" y="16" width="1" height="4" fill="#F0DB4E" />
<rect x="18" y="16" width="1" height="1" fill="#1A1A1A" />
<rect x="19" y="16" width="1" height="1" fill="#1D1D1D" />
<rect x="21" y="16" width="1" height="1" fill="#1A1A1A" />
<rect x="22" y="16" width="1" height="1" fill="#1D1D1D" />
<rect x="25" y="16" width="2" height="1" fill="#1A1A1A" />
<rect x="27" y="16" width="2" height="4" fill="#1D1D1D" />
<rect x="29" y="16" width="1" height="1" fill="#F5E156" />
<rect x="30" y="16" width="1" height="8" fill="#F0DB4E" />
<rect x="1" y="17" width="1" height="1" fill="#F0DB4E" />
<rect x="2" y="17" width="1" height="3" fill="#F5E156" />
<rect x="5" y="17" width="2" height="1" fill="#F5E156" />
<rect x="7" y="17" width="2" height="3" fill="#F0DB4E" />
<rect x="11" y="17" width="1" height="3" fill="#1A1A1A" />
<rect x="12" y="17" width="1" height="4" fill="#1D1D1D" />
<rect x="18" y="17" width="1" height="2" fill="#F5E156" />
<rect x="19" y="17" width="3" height="1" fill="#F0DB4E" />
<rect x="22" y="17" width="1" height="1" fill="#F5E156" />
<rect x="25" y="17" width="2" height="1" fill="#1D1D1D" />
<rect x="29" y="17" width="1" height="6" fill="#F0DB4E" />
<rect x="1" y="18" width="1" height="2" fill="#F5E156" />
<rect x="5" y="18" width="1" height="1" fill="#F0DB4E" />
<rect x="6" y="18" width="1" height="1" fill="#F5E156" />
<rect x="15" y="18" width="2" height="1" fill="#F5E156" />
<rect x="19" y="18" width="2" height="2" fill="#F0DB4E" />
<rect x="21" y="18" width="1" height="1" fill="#F5E156" />
<rect x="22" y="18" width="2" height="1" fill="#F0DB4E" />
<rect x="24" y="18" width="2" height="1" fill="#1A1A1A" />
<rect x="26" y="18" width="1" height="1" fill="#1D1D1D" />
<rect x="4" y="19" width="1" height="2" fill="#1D1D1D" />
<rect x="5" y="19" width="2" height="3" fill="#1A1A1A" />
<rect x="15" y="19" width="2" height="2" fill="#F0DB4E" />
<rect x="18" y="19" width="1" height="1" fill="#F0DB4E" />
<rect x="21" y="19" width="1" height="2" fill="#F0DB4E" />
<rect x="22" y="19" width="1" height="1" fill="#F5E156" />
<rect x="23" y="19" width="1" height="1" fill="#F0DB4E" />
<rect x="24" y="19" width="1" height="2" fill="#1A1A1A" />
<rect x="25" y="19" width="1" height="1" fill="#1D1D1D" />
<rect x="26" y="19" width="1" height="6" fill="#1A1A1A" />
<rect x="1" y="20" width="2" height="1" fill="#F0DB4E" />
<rect x="3" y="20" width="1" height="1" fill="#1D1D1D" />
<rect x="7" y="20" width="1" height="1" fill="#1A1A1A" />
<rect x="8" y="20" width="1" height="1" fill="#F5E156" />
<rect x="11" y="20" width="1" height="2" fill="#1D1D1D" />
<rect x="14" y="20" width="1" height="1" fill="#1D1D1D" />
<rect x="17" y="20" width="1" height="3" fill="#1D1D1D" />
<rect x="18" y="20" width="2" height="2" fill="#1A1A1A" />
<rect x="20" y="20" width="1" height="1" fill="#F0DB4E" />
<rect x="22" y="20" width="1" height="1" fill="#F0DB4E" />
<rect x="23" y="20" width="1" height="1" fill="#1A1A1A" />
<rect x="25" y="20" width="1" height="1" fill="#1A1A1A" />
<rect x="27" y="20" width="2" height="1" fill="#1A1A1A" />
<rect x="1" y="21" width="1" height="1" fill="#F5E156" />
<rect x="2" y="21" width="1" height="3" fill="#F0DB4E" />
<rect x="3" y="21" width="2" height="1" fill="#1A1A1A" />
<rect x="7" y="21" width="1" height="1" fill="#1D1D1D" />
<rect x="8" y="21" width="2" height="2" fill="#1A1A1A" />
<rect x="12" y="21" width="1" height="1" fill="#1A1A1A" />
<rect x="14" y="21" width="1" height="2" fill="#1A1A1A" />
<rect x="15" y="21" width="1" height="1" fill="#F5E156" />
<rect x="16" y="21" width="1" height="2" fill="#1A1A1A" />
<rect x="20" y="21" width="1" height="1" fill="#1D1D1D" />
<rect x="21" y="21" width="1" height="1" fill="#1A1A1A" />
<rect x="22" y="21" width="4" height="1" fill="#1D1D1D" />
<rect x="27" y="21" width="1" height="3" fill="#1A1A1A" />
<rect x="28" y="21" width="1" height="1" fill="#1D1D1D" />
<rect x="1" y="22" width="1" height="2" fill="#F0DB4E" />
<rect x="3" y="22" width="1" height="1" fill="#1D1D1D" />
<rect x="4" y="22" width="2" height="2" fill="#1A1A1A" />
<rect x="6" y="22" width="1" height="2" fill="#1D1D1D" />
<rect x="7" y="22" width="1" height="1" fill="#1A1A1A" />
<rect x="11" y="22" width="1" height="1" fill="#1A1A1A" />
<rect x="12" y="22" width="2" height="1" fill="#1D1D1D" />
<rect x="15" y="22" width="1" height="1" fill="#1A1A1A" />
<rect x="18" y="22" width="2" height="2" fill="#1D1D1D" />
<rect x="20" y="22" width="1" height="1" fill="#1A1A1A" />
<rect x="21" y="22" width="1" height="1" fill="#1D1D1D" />
<rect x="22" y="22" width="3" height="1" fill="#1A1A1A" />
<rect x="25" y="22" width="1" height="1" fill="#1D1D1D" />
<rect x="28" y="22" width="1" height="2" fill="#F0DB4E" />
<rect x="3" y="23" width="1" height="5" fill="#F0DB4E" />
<rect x="7" y="23" width="2" height="1" fill="#1D1D1D" />
<rect x="9" y="23" width="1" height="1" fill="#1A1A1A" />
<rect x="11" y="23" width="2" height="2" fill="#1D1D1D" />
<rect x="13" y="23" width="1" height="1" fill="#1A1A1A" />
<rect x="14" y="23" width="1" height="1" fill="#F0DB4E" />
<rect x="15" y="23" width="2" height="1" fill="#1D1D1D" />
<rect x="17" y="23" width="1" height="1" fill="#1A1A1A" />
<rect x="20" y="23" width="1" height="1" fill="#1D1D1D" />
<rect x="21" y="23" width="2" height="1" fill="#1A1A1A" />
<rect x="23" y="23" width="2" height="1" fill="#1D1D1D" />
<rect x="25" y="23" width="1" height="2" fill="#1A1A1A" />
<rect x="29" y="23" width="1" height="2" fill="#F5E156" />
<rect x="1" y="24" width="1" height="2" fill="#8CDAFF" />
<rect x="2" y="24" width="1" height="1" fill="#F5E156" />
<rect x="4" y="24" width="1" height="4" fill="#F0DB4E" />
<rect x="5" y="24" width="2" height="1" fill="#1A1A1A" />
<rect x="7" y="24" width="1" height="1" fill="#1D1D1D" />
<rect x="8" y="24" width="1" height="2" fill="#1A1A1A" />
<rect x="9" y="24" width="1" height="1" fill="#1D1D1D" />
<rect x="13" y="24" width="1" height="4" fill="#F0DB4E" />
<rect x="14" y="24" width="1" height="1" fill="#F5E156" />
<rect x="15" y="24" width="1" height="7" fill="#F0DB4E" />
<rect x="16" y="24" width="1" height="1" fill="#1A1A1A" />
<rect x="17" y="24" width="2" height="1" fill="#1D1D1D" />
<rect x="19" y="24" width="3" height="1" fill="#1A1A1A" />
<rect x="22" y="24" width="1" height="1" fill="#1D1D1D" />
<rect x="23" y="24" width="2" height="1" fill="#1A1A1A" />
<rect x="27" y="24" width="2" height="1" fill="#F5E156" />
<rect x="30" y="24" width="1" height="2" fill="#8CDAFF" />
<rect x="2" y="25" width="1" height="1" fill="#F0DB4E" />
<rect x="5" y="25" width="2" height="1" fill="#F0DB4E" />
<rect x="7" y="25" width="1" height="1" fill="#1A1A1A" />
<rect x="9" y="25" width="1" height="1" fill="#1A1A1A" />
<rect x="11" y="25" width="2" height="1" fill="#F0DB4E" />
<rect x="14" y="25" width="1" height="2" fill="#F0DB4E" />
<rect x="16" y="25" width="2" height="5" fill="#F0DB4E" />
<rect x="18" y="25" width="1" height="1" fill="#1A1A1A" />
<rect x="19" y="25" width="2" height="1" fill="#1D1D1D" />
<rect x="21" y="25" width="2" height="1" fill="#1A1A1A" />
<rect x="23" y="25" width="2" height="1" fill="#1D1D1D" />
<rect x="25" y="25" width="2" height="4" fill="#F0DB4E" />
<rect x="27" y="25" width="1" height="1" fill="#F5E156" />
<rect x="28" y="25" width="2" height="1" fill="#F0DB4E" />
<rect x="2" y="26" width="1" height="2" fill="#8CDAFF" />
<rect x="5" y="26" width="1" height="2" fill="#F0DB4E" />
<rect x="6" y="26" width="1" height="1" fill="#F5E156" />
<rect x="7" y="26" width="2" height="3" fill="#F0DB4E" />
<rect x="9" y="26" width="1" height="1" fill="#F5E156" />
<rect x="10" y="26" width="1" height="2" fill="#F0DB4E" />
<rect x="11" y="26" width="2" height="1" fill="#F5E156" />
<rect x="18" y="26" width="5" height="1" fill="#F0DB4E" />
<rect x="23" y="26" width="1" height="1" fill="#F5E156" />
<rect x="24" y="26" width="1" height="4" fill="#F0DB4E" />
<rect x="27" y="26" width="2" height="1" fill="#F0DB4E" />
<rect x="29" y="26" width="1" height="2" fill="#8CDAFF" />
<rect x="6" y="27" width="1" height="2" fill="#F0DB4E" />
<rect x="9" y="27" width="1" height="2" fill="#F0DB4E" />
<rect x="11" y="27" width="2" height="1" fill="#F0DB4E" />
<rect x="14" y="27" width="1" height="1" fill="#F5E156" />
<rect x="18" y="27" width="3" height="4" fill="#F0DB4E" />
<rect x="21" y="27" width="1" height="2" fill="#F5E156" />
<rect x="22" y="27" width="2" height="4" fill="#F0DB4E" />
<rect x="27" y="27" width="1" height="2" fill="#F0DB4E" />
<rect x="28" y="27" width="1" height="1" fill="#F5E156" />
<rect x="3" y="28" width="1" height="1" fill="#8CDAFF" />
<rect x="4" y="28" width="2" height="1" fill="#F5E156" />
<rect x="10" y="28" width="1" height="3" fill="#F5E156" />
<rect x="11" y="28" width="1" height="3" fill="#F0DB4E" />
<rect x="12" y="28" width="2" height="1" fill="#F5E156" />
<rect x="14" y="28" width="1" height="3" fill="#F0DB4E" />
<rect x="28" y="28" width="1" height="1" fill="#8CDAFF" />
<rect x="4" y="29" width="2" height="1" fill="#8CDAFF" />
<rect x="6" y="29" width="4" height="1" fill="#F5E156" />
<rect x="12" y="29" width="2" height="1" fill="#F0DB4E" />
<rect x="21" y="29" width="1" height="2" fill="#F0DB4E" />
<rect x="25" y="29" width="1" height="1" fill="#F0DB4E" />
<rect x="26" y="29" width="2" height="1" fill="#8CDAFF" />
<rect x="6" y="30" width="2" height="1" fill="#8CDAFF" />
<rect x="8" y="30" width="1" height="1" fill="#F5E156" />
<rect x="9" y="30" width="1" height="1" fill="#F0DB4E" />
<rect x="12" y="30" width="1" height="1" fill="#F5E156" />
<rect x="13" y="30" width="1" height="1" fill="#F0DB4E" />
<rect x="16" y="30" width="1" height="1" fill="#F0DB4E" />
<rect x="17" y="30" width="1" height="1" fill="#F5E156" />
<rect x="24" y="30" width="2" height="1" fill="#8CDAFF" />
<rect x="8" y="31" width="16" height="1" fill="#8CDAFF" />
</svg>