<?xml version="1.0" encoding="UTF-8" ?>
<svg version="1.1" width="500" height="590" xmlns="http://www.w3.org/2000/svg" shape-rendering="crispEdges">
<rect x="140" y="0" width="100" height="10" fill="#4A3427" />
<rect x="120" y="10" width="20" height="10" fill="#4A3427" />
<rect x="140" y="10" width="100" height="90" fill="#6A452F" />
<rect x="240" y="10" width="20" height="10" fill="#4A3427" />
<rect x="40" y="20" width="30" height="20" fill="#6A452F" />
<rect x="70" y="20" width="10" height="10" fill="#4A3427" />
<rect x="100" y="20" width="20" height="10" fill="#4A3427" />
<rect x="120" y="20" width="20" height="80" fill="#6A452F" />
<rect x="240" y="20" width="20" height="80" fill="#6A452F" />
<rect x="260" y="20" width="20" height="10" fill="#4A3427" />
<rect x="300" y="20" width="10" height="10" fill="#4A3427" />
<rect x="310" y="20" width="30" height="20" fill="#6A452F" />
<rect x="30" y="30" width="10" height="50" fill="#6A452F" />
<rect x="70" y="30" width="20" height="20" fill="#6A452F" />
<rect x="90" y="30" width="10" height="10" fill="#4A3427" />
<rect x="100" y="30" width="20" height="70" fill="#6A452F" />
<rect x="260" y="30" width="20" height="70" fill="#6A452F" />
<rect x="280" y="30" width="10" height="10" fill="#4A3427" />
<rect x="290" y="30" width="20" height="20" fill="#6A452F" />
<rect x="340" y="30" width="10" height="50" fill="#6A452F" />
<rect x="20" y="40" width="10" height="30" fill="#6A452F" />
<rect x="40" y="40" width="30" height="20" fill="#CCB297" />
<rect x="90" y="40" width="10" height="70" fill="#6A452F" />
<rect x="280" y="40" width="10" height="70" fill="#6A452F" />
<rect x="310" y="40" width="30" height="20" fill="#CCB297" />
<rect x="350" y="40" width="10" height="30" fill="#6A452F" />
<rect x="70" y="50" width="10" height="20" fill="#A58F78" />
<rect x="80" y="50" width="10" height="90" fill="#6A452F" />
<rect x="290" y="50" width="10" height="90" fill="#6A452F" />
<rect x="300" y="50" width="10" height="20" fill="#A58F78" />
<rect x="40" y="60" width="10" height="10" fill="#A58F78" />
<rect x="50" y="60" width="10" height="10" fill="#CCB297" />
<rect x="60" y="60" width="10" height="20" fill="#A58F78" />
<rect x="310" y="60" width="10" height="20" fill="#A58F78" />
<rect x="320" y="60" width="10" height="10" fill="#CCB297" />
<rect x="330" y="60" width="10" height="10" fill="#A58F78" />
<rect x="20" y="70" width="10" height="10" fill="#4A3427" />
<rect x="40" y="70" width="10" height="20" fill="#6A452F" />
<rect x="50" y="70" width="10" height="10" fill="#A58F78" />
<rect x="70" y="70" width="10" height="90" fill="#6A452F" />
<rect x="300" y="70" width="10" height="90" fill="#6A452F" />
<rect x="320" y="70" width="10" height="10" fill="#A58F78" />
<rect x="330" y="70" width="10" height="20" fill="#6A452F" />
<rect x="350" y="70" width="10" height="10" fill="#4A3427" />
<rect x="30" y="80" width="10" height="10" fill="#4A3427" />
<rect x="50" y="80" width="20" height="10" fill="#6A452F" />
<rect x="310" y="80" width="20" height="10" fill="#6A452F" />
<rect x="340" y="80" width="10" height="10" fill="#4A3427" />
<rect x="40" y="90" width="20" height="10" fill="#4A3427" />
<rect x="60" y="90" width="10" height="40" fill="#6A452F" />
<rect x="310" y="90" width="10" height="40" fill="#6A452F" />
<rect x="320" y="90" width="20" height="10" fill="#4A3427" />
<rect x="50" y="100" width="10" height="10" fill="#4A3427" />
<rect x="100" y="100" width="40" height="10" fill="#2B1C0E" />
<rect x="140" y="100" width="10" height="10" fill="#4A3427" />
<rect x="150" y="100" width="80" height="40" fill="#6A452F" />
<rect x="230" y="100" width="10" height="10" fill="#4A3427" />
<rect x="240" y="100" width="40" height="10" fill="#2B1C0E" />
<rect x="320" y="100" width="10" height="10" fill="#4A3427" />
<rect x="40" y="110" width="10" height="30" fill="#4A3427" />
<rect x="50" y="110" width="10" height="50" fill="#6A452F" />
<rect x="90" y="110" width="10" height="10" fill="#2B1C0E" />
<rect x="100" y="110" width="10" height="10" fill="#4A3427" />
<rect x="110" y="110" width="40" height="10" fill="#2B1C0E" />
<rect x="230" y="110" width="40" height="10" fill="#2B1C0E" />
<rect x="270" y="110" width="10" height="10" fill="#4A3427" />
<rect x="280" y="110" width="10" height="10" fill="#2B1C0E" />
<rect x="320" y="110" width="10" height="50" fill="#6A452F" />
<rect x="330" y="110" width="10" height="30" fill="#4A3427" />
<rect x="90" y="120" width="30" height="30" fill="#6A452F" />
<rect x="120" y="120" width="20" height="10" fill="#2B1C0E" />
<rect x="140" y="120" width="10" height="40" fill="#6A452F" />
<rect x="230" y="120" width="10" height="40" fill="#6A452F" />
<rect x="240" y="120" width="20" height="10" fill="#2B1C0E" />
<rect x="260" y="120" width="30" height="30" fill="#6A452F" />
<rect x="60" y="130" width="10" height="10" fill="#E8D9CA" />
<rect x="120" y="130" width="20" height="20" fill="#6A452F" />
<rect x="240" y="130" width="20" height="20" fill="#6A452F" />
<rect x="310" y="130" width="10" height="10" fill="#E8D9CA" />
<rect x="30" y="140" width="10" height="60" fill="#4A3427" />
<rect x="40" y="140" width="10" height="60" fill="#6A452F" />
<rect x="60" y="140" width="10" height="20" fill="#6A452F" />
<rect x="80" y="140" width="10" height="10" fill="#E8D9CA" />
<rect x="150" y="140" width="10" height="10" fill="#6A452F" />
<rect x="160" y="140" width="10" height="10" fill="#4A3427" />
<rect x="170" y="140" width="40" height="40" fill="#2B1C0E" />
<rect x="210" y="140" width="10" height="10" fill="#4A3427" />
<rect x="220" y="140" width="10" height="10" fill="#6A452F" />
<rect x="290" y="140" width="10" height="10" fill="#E8D9CA" />
<rect x="310" y="140" width="10" height="20" fill="#6A452F" />
<rect x="330" y="140" width="10" height="60" fill="#6A452F" />
<rect x="340" y="140" width="10" height="60" fill="#4A3427" />
<rect x="80" y="150" width="10" height="10" fill="#6A452F" />
<rect x="90" y="150" width="10" height="20" fill="#CCB297" />
<rect x="100" y="150" width="20" height="10" fill="#E8D9CA" />
<rect x="120" y="150" width="10" height="10" fill="#CCB297" />
<rect x="130" y="150" width="10" height="10" fill="#6A452F" />
<rect x="150" y="150" width="10" height="10" fill="#4A3427" />
<rect x="160" y="150" width="10" height="20" fill="#2B1C0E" />
<rect x="210" y="150" width="10" height="20" fill="#2B1C0E" />
<rect x="220" y="150" width="10" height="10" fill="#4A3427" />
<rect x="240" y="150" width="10" height="10" fill="#6A452F" />
<rect x="250" y="150" width="10" height="10" fill="#CCB297" />
<rect x="260" y="150" width="20" height="10" fill="#E8D9CA" />
<rect x="280" y="150" width="10" height="20" fill="#CCB297" />
<rect x="290" y="150" width="10" height="10" fill="#6A452F" />
<rect x="50" y="160" width="40" height="10" fill="#E8D9CA" />
<rect x="100" y="160" width="20" height="10" fill="#CCB297" />
<rect x="120" y="160" width="10" height="10" fill="#E8D9CA" />
<rect x="130" y="160" width="30" height="10" fill="#CCB297" />
<rect x="220" y="160" width="30" height="10" fill="#CCB297" />
<rect x="250" y="160" width="10" height="10" fill="#E8D9CA" />
<rect x="260" y="160" width="20" height="10" fill="#CCB297" />
<rect x="290" y="160" width="40" height="10" fill="#E8D9CA" />
<rect x="50" y="170" width="20" height="50" fill="#6A452F" />
<rect x="70" y="170" width="20" height="10" fill="#CCB297" />
<rect x="90" y="170" width="30" height="10" fill="#E8D9CA" />
<rect x="120" y="170" width="20" height="10" fill="#CCB297" />
<rect x="140" y="170" width="10" height="10" fill="#E8D9CA" />
<rect x="150" y="170" width="10" height="260" fill="#CCB297" />
<rect x="160" y="170" width="10" height="10" fill="#A58F78" />
<rect x="210" y="170" width="10" height="10" fill="#A58F78" />
<rect x="220" y="170" width="10" height="130" fill="#CCB297" />
<rect x="230" y="170" width="10" height="10" fill="#E8D9CA" />
<rect x="240" y="170" width="20" height="10" fill="#CCB297" />
<rect x="260" y="170" width="30" height="10" fill="#E8D9CA" />
<rect x="290" y="170" width="20" height="10" fill="#CCB297" />
<rect x="310" y="170" width="20" height="50" fill="#6A452F" />
<rect x="70" y="180" width="10" height="10" fill="#CCB297" />
<rect x="80" y="180" width="20" height="10" fill="#E8D9CA" />
<rect x="100" y="180" width="20" height="70" fill="#CCB297" />
<rect x="120" y="180" width="10" height="10" fill="#E8D9CA" />
<rect x="130" y="180" width="20" height="240" fill="#CCB297" />
<rect x="160" y="180" width="60" height="140" fill="#CCB297" />
<rect x="230" y="180" width="20" height="190" fill="#CCB297" />
<rect x="250" y="180" width="10" height="10" fill="#E8D9CA" />
<rect x="260" y="180" width="20" height="70" fill="#CCB297" />
<rect x="280" y="180" width="20" height="10" fill="#E8D9CA" />
<rect x="300" y="180" width="10" height="10" fill="#CCB297" />
<rect x="70" y="190" width="10" height="10" fill="#E8D9CA" />
<rect x="80" y="190" width="20" height="40" fill="#CCB297" />
<rect x="120" y="190" width="10" height="60" fill="#CCB297" />
<rect x="250" y="190" width="10" height="60" fill="#CCB297" />
<rect x="280" y="190" width="20" height="40" fill="#CCB297" />
<rect x="300" y="190" width="10" height="10" fill="#E8D9CA" />
<rect x="40" y="200" width="10" height="20" fill="#4A3427" />
<rect x="70" y="200" width="10" height="170" fill="#6A452F" />
<rect x="300" y="200" width="10" height="170" fill="#6A452F" />
<rect x="330" y="200" width="10" height="20" fill="#4A3427" />
<rect x="50" y="220" width="10" height="10" fill="#4A3427" />
<rect x="60" y="220" width="10" height="10" fill="#6A452F" />
<rect x="310" y="220" width="10" height="10" fill="#6A452F" />
<rect x="320" y="220" width="10" height="10" fill="#4A3427" />
<rect x="50" y="230" width="10" height="10" fill="#2B231C" />
<rect x="60" y="230" width="10" height="20" fill="#4A3427" />
<rect x="80" y="230" width="10" height="10" fill="#6A452F" />
<rect x="90" y="230" width="10" height="10" fill="#CCB297" />
<rect x="280" y="230" width="10" height="10" fill="#CCB297" />
<rect x="290" y="230" width="10" height="10" fill="#6A452F" />
<rect x="310" y="230" width="10" height="20" fill="#4A3427" />
<rect x="320" y="230" width="10" height="10" fill="#2B231C" />
<rect x="40" y="240" width="10" height="10" fill="#2B231C" />
<rect x="50" y="240" width="10" height="40" fill="#4A3427" />
<rect x="80" y="240" width="10" height="10" fill="#4A3427" />
<rect x="90" y="240" width="10" height="10" fill="#A58F78" />
<rect x="280" y="240" width="10" height="10" fill="#A58F78" />
<rect x="290" y="240" width="10" height="10" fill="#4A3427" />
<rect x="320" y="240" width="10" height="40" fill="#4A3427" />
<rect x="330" y="240" width="10" height="10" fill="#2B231C" />
<rect x="30" y="250" width="10" height="20" fill="#2B231C" />
<rect x="40" y="250" width="10" height="60" fill="#4A3427" />
<rect x="60" y="250" width="10" height="120" fill="#6A452F" />
<rect x="80" y="250" width="10" height="70" fill="#6A452F" />
<rect x="90" y="250" width="20" height="160" fill="#CCB297" />
<rect x="110" y="250" width="20" height="10" fill="#A58F78" />
<rect x="250" y="250" width="20" height="10" fill="#A58F78" />
<rect x="270" y="250" width="20" height="160" fill="#CCB297" />
<rect x="290" y="250" width="10" height="70" fill="#6A452F" />
<rect x="310" y="250" width="10" height="120" fill="#6A452F" />
<rect x="330" y="250" width="10" height="60" fill="#4A3427" />
<rect x="340" y="250" width="10" height="20" fill="#2B231C" />
<rect x="110" y="260" width="20" height="40" fill="#CCB297" />
<rect x="250" y="260" width="20" height="20" fill="#CCB297" />
<rect x="20" y="270" width="10" height="20" fill="#2B231C" />
<rect x="30" y="270" width="10" height="60" fill="#4A3427" />
<rect x="340" y="270" width="10" height="60" fill="#4A3427" />
<rect x="350" y="270" width="10" height="20" fill="#2B231C" />
<rect x="50" y="280" width="10" height="70" fill="#6A452F" />
<rect x="250" y="280" width="10" height="10" fill="#CCB297" />
<rect x="260" y="280" width="10" height="10" fill="#A58F78" />
<rect x="320" y="280" width="10" height="70" fill="#6A452F" />
<rect x="10" y="290" width="10" height="40" fill="#2B231C" />
<rect x="20" y="290" width="10" height="130" fill="#4A3427" />
<rect x="250" y="290" width="10" height="10" fill="#A58F78" />
<rect x="260" y="290" width="10" height="130" fill="#CCB297" />
<rect x="350" y="290" width="10" height="130" fill="#4A3427" />
<rect x="360" y="290" width="10" height="40" fill="#2B231C" />
<rect x="110" y="300" width="10" height="20" fill="#A58F78" />
<rect x="120" y="300" width="10" height="20" fill="#CCB297" />
<rect x="220" y="300" width="10" height="20" fill="#A58F78" />
<rect x="250" y="300" width="10" height="50" fill="#CCB297" />
<rect x="40" y="310" width="10" height="20" fill="#2B231C" />
<rect x="330" y="310" width="10" height="20" fill="#2B231C" />
<rect x="80" y="320" width="10" height="80" fill="#CCB297" />
<rect x="110" y="320" width="10" height="100" fill="#CCB297" />
<rect x="120" y="320" width="10" height="10" fill="#A58F78" />
<rect x="160" y="320" width="10" height="20" fill="#A58F78" />
<rect x="170" y="320" width="40" height="20" fill="#CCB297" />
<rect x="210" y="320" width="10" height="20" fill="#A58F78" />
<rect x="220" y="320" width="10" height="50" fill="#CCB297" />
<rect x="290" y="320" width="10" height="80" fill="#CCB297" />
<rect x="0" y="330" width="10" height="80" fill="#2B231C" />
<rect x="10" y="330" width="10" height="80" fill="#4A3427" />
<rect x="30" y="330" width="10" height="110" fill="#2B231C" />
<rect x="40" y="330" width="10" height="110" fill="#4A3427" />
<rect x="120" y="330" width="10" height="90" fill="#CCB297" />
<rect x="330" y="330" width="10" height="110" fill="#4A3427" />
<rect x="340" y="330" width="10" height="130" fill="#2B231C" />
<rect x="360" y="330" width="10" height="80" fill="#4A3427" />
<rect x="370" y="330" width="10" height="80" fill="#2B231C" />
<rect x="160" y="340" width="10" height="90" fill="#CCB297" />
<rect x="170" y="340" width="10" height="10" fill="#A58F78" />
<rect x="180" y="340" width="10" height="10" fill="#CCB297" />
<rect x="190" y="340" width="10" height="20" fill="#A58F78" />
<rect x="200" y="340" width="20" height="90" fill="#CCB297" />
<rect x="50" y="350" width="10" height="150" fill="#4A3427" />
<rect x="170" y="350" width="10" height="80" fill="#CCB297" />
<rect x="180" y="350" width="10" height="20" fill="#A58F78" />
<rect x="250" y="350" width="10" height="20" fill="#A58F78" />
<rect x="320" y="350" width="10" height="150" fill="#4A3427" />
<rect x="190" y="360" width="10" height="70" fill="#CCB297" />
<rect x="60" y="370" width="10" height="150" fill="#4A3427" />
<rect x="70" y="370" width="10" height="20" fill="#CCB297" />
<rect x="180" y="370" width="10" height="60" fill="#CCB297" />
<rect x="220" y="370" width="10" height="10" fill="#A58F78" />
<rect x="230" y="370" width="10" height="10" fill="#CCB297" />
<rect x="240" y="370" width="10" height="20" fill="#A58F78" />
<rect x="250" y="370" width="10" height="50" fill="#CCB297" />
<rect x="300" y="370" width="10" height="20" fill="#CCB297" />
<rect x="310" y="370" width="10" height="150" fill="#4A3427" />
<rect x="220" y="380" width="10" height="50" fill="#CCB297" />
<rect x="230" y="380" width="10" height="20" fill="#A58F78" />
<rect x="70" y="390" width="10" height="40" fill="#A58F78" />
<rect x="240" y="390" width="10" height="30" fill="#CCB297" />
<rect x="300" y="390" width="10" height="40" fill="#A58F78" />
<rect x="80" y="400" width="10" height="60" fill="#A58F78" />
<rect x="230" y="400" width="10" height="30" fill="#CCB297" />
<rect x="290" y="400" width="10" height="60" fill="#A58F78" />
<rect x="10" y="410" width="10" height="10" fill="#2B231C" />
<rect x="90" y="410" width="20" height="70" fill="#A58F78" />
<rect x="270" y="410" width="20" height="70" fill="#A58F78" />
<rect x="360" y="410" width="10" height="10" fill="#2B231C" />
<rect x="20" y="420" width="10" height="10" fill="#2B231C" />
<rect x="110" y="420" width="30" height="80" fill="#A58F78" />
<rect x="140" y="420" width="10" height="10" fill="#CCB297" />
<rect x="240" y="420" width="30" height="80" fill="#A58F78" />
<rect x="350" y="420" width="10" height="10" fill="#2B231C" />
<rect x="70" y="430" width="10" height="150" fill="#4A3427" />
<rect x="140" y="430" width="100" height="80" fill="#A58F78" />
<rect x="300" y="430" width="10" height="150" fill="#4A3427" />
<rect x="40" y="440" width="10" height="60" fill="#2B231C" />
<rect x="330" y="440" width="10" height="60" fill="#2B231C" />
<rect x="350" y="450" width="10" height="10" fill="#2B231C" />
<rect x="80" y="460" width="10" height="120" fill="#4A3427" />
<rect x="290" y="460" width="10" height="120" fill="#4A3427" />
<rect x="340" y="460" width="20" height="70" fill="#4A3427" />
<rect x="360" y="460" width="10" height="10" fill="#2B231C" />
<rect x="360" y="470" width="10" height="70" fill="#4A3427" />
<rect x="370" y="470" width="20" height="10" fill="#2B231C" />
<rect x="90" y="480" width="10" height="50" fill="#4A3427" />
<rect x="100" y="480" width="10" height="10" fill="#A58F78" />
<rect x="270" y="480" width="10" height="10" fill="#A58F78" />
<rect x="280" y="480" width="10" height="50" fill="#4A3427" />
<rect x="370" y="480" width="20" height="60" fill="#4A3427" />
<rect x="390" y="480" width="20" height="10" fill="#2B231C" />
<rect x="100" y="490" width="10" height="40" fill="#4A3427" />
<rect x="270" y="490" width="10" height="40" fill="#4A3427" />
<rect x="390" y="490" width="20" height="50" fill="#4A3427" />
<rect x="410" y="490" width="40" height="10" fill="#2B231C" />
<rect x="50" y="500" width="10" height="30" fill="#2B231C" />
<rect x="110" y="500" width="30" height="40" fill="#4A3427" />
<rect x="240" y="500" width="30" height="40" fill="#4A3427" />
<rect x="320" y="500" width="10" height="30" fill="#2B231C" />
<rect x="330" y="500" width="10" height="20" fill="#4A3427" />
<rect x="410" y="500" width="40" height="40" fill="#4A3427" />
<rect x="450" y="500" width="30" height="10" fill="#2B231C" />
<rect x="140" y="510" width="100" height="30" fill="#4A3427" />
<rect x="450" y="510" width="30" height="30" fill="#4A3427" />
<rect x="480" y="510" width="10" height="10" fill="#2B231C" />
<rect x="60" y="520" width="10" height="10" fill="#2B231C" />
<rect x="310" y="520" width="10" height="10" fill="#2B231C" />
<rect x="330" y="520" width="10" height="30" fill="#2B231C" />
<rect x="480" y="520" width="10" height="10" fill="#4A3427" />
<rect x="490" y="520" width="10" height="20" fill="#2B231C" />
<rect x="40" y="530" width="10" height="20" fill="#2B231C" />
<rect x="50" y="530" width="20" height="40" fill="#4A3427" />
<rect x="90" y="530" width="20" height="10" fill="#2B231C" />
<rect x="270" y="530" width="20" height="10" fill="#2B231C" />
<rect x="310" y="530" width="20" height="40" fill="#4A3427" />
<rect x="340" y="530" width="20" height="20" fill="#2B231C" />
<rect x="480" y="530" width="10" height="10" fill="#2B231C" />
<rect x="90" y="540" width="30" height="40" fill="#4A3427" />
<rect x="120" y="540" width="10" height="10" fill="#2B231C" />
<rect x="130" y="540" width="20" height="20" fill="#4A3427" />
<rect x="150" y="540" width="80" height="10" fill="#2B231C" />
<rect x="230" y="540" width="20" height="20" fill="#4A3427" />
<rect x="250" y="540" width="10" height="10" fill="#2B231C" />
<rect x="260" y="540" width="30" height="40" fill="#4A3427" />
<rect x="360" y="540" width="120" height="10" fill="#2B231C" />
<rect x="30" y="550" width="10" height="30" fill="#2B231C" />
<rect x="40" y="550" width="10" height="20" fill="#4A3427" />
<rect x="120" y="550" width="10" height="30" fill="#4A3427" />
<rect x="150" y="550" width="10" height="10" fill="#2B231C" />
<rect x="220" y="550" width="10" height="10" fill="#2B231C" />
<rect x="250" y="550" width="10" height="30" fill="#4A3427" />
<rect x="330" y="550" width="10" height="20" fill="#4A3427" />
<rect x="340" y="550" width="10" height="30" fill="#2B231C" />
<rect x="130" y="560" width="10" height="10" fill="#4A3427" />
<rect x="140" y="560" width="10" height="10" fill="#2B231C" />
<rect x="230" y="560" width="10" height="10" fill="#2B231C" />
<rect x="240" y="560" width="10" height="10" fill="#4A3427" />
<rect x="40" y="570" width="20" height="10" fill="#2B231C" />
<rect x="60" y="570" width="10" height="10" fill="#4A3427" />
<rect x="130" y="570" width="10" height="10" fill="#2B231C" />
<rect x="240" y="570" width="10" height="10" fill="#2B231C" />
<rect x="310" y="570" width="10" height="10" fill="#4A3427" />
<rect x="320" y="570" width="20" height="10" fill="#2B231C" />
<rect x="60" y="580" width="60" height="10" fill="#2B231C" />
<rect x="260" y="580" width="60" height="10" fill="#2B231C" />
</svg>