<?xml version="1.0" encoding="UTF-8" ?>
<svg version="1.1" width="590" height="600" xmlns="http://www.w3.org/2000/svg" shape-rendering="crispEdges">
<rect x="40" y="0" width="510" height="10" fill="#C4ECFF" />
<rect x="20" y="10" width="20" height="10" fill="#C4ECFF" />
<rect x="40" y="10" width="10" height="10" fill="#233F6D" />
<rect x="50" y="10" width="490" height="580" fill="#1E3862" />
<rect x="540" y="10" width="10" height="10" fill="#233F6D" />
<rect x="550" y="10" width="20" height="10" fill="#8CDAFF" />
<rect x="10" y="20" width="10" height="20" fill="#C4ECFF" />
<rect x="20" y="20" width="10" height="20" fill="#233F6D" />
<rect x="30" y="20" width="20" height="560" fill="#1E3862" />
<rect x="540" y="20" width="20" height="560" fill="#1E3862" />
<rect x="560" y="20" width="10" height="20" fill="#233F6D" />
<rect x="570" y="20" width="10" height="20" fill="#8CDAFF" />
<rect x="0" y="40" width="10" height="520" fill="#C4ECFF" />
<rect x="10" y="40" width="10" height="20" fill="#233F6D" />
<rect x="20" y="40" width="10" height="520" fill="#1E3862" />
<rect x="560" y="40" width="10" height="520" fill="#1E3862" />
<rect x="570" y="40" width="10" height="20" fill="#233F6D" />
<rect x="580" y="40" width="10" height="520" fill="#8CDAFF" />
<rect x="10" y="60" width="10" height="480" fill="#1E3862" />
<rect x="570" y="60" width="10" height="470" fill="#1E3862" />
<rect x="570" y="530" width="10" height="30" fill="#233F6D" />
<rect x="10" y="540" width="10" height="20" fill="#233F6D" />
<rect x="10" y="560" width="10" height="20" fill="#8CDAFF" />
<rect x="20" y="560" width="10" height="20" fill="#233F6D" />
<rect x="560" y="560" width="10" height="20" fill="#233F6D" />
<rect x="570" y="560" width="10" height="20" fill="#8CDAFF" />
<rect x="20" y="580" width="20" height="10" fill="#8CDAFF" />
<rect x="40" y="580" width="10" height="10" fill="#233F6D" />
<rect x="540" y="580" width="10" height="10" fill="#233F6D" />
<rect x="550" y="580" width="20" height="10" fill="#8CDAFF" />
<rect x="40" y="590" width="510" height="10" fill="#8CDAFF" />
</svg>