<?xml version="1.0" encoding="UTF-8" ?>
<svg version="1.1" width="32" height="32" xmlns="http://www.w3.org/2000/svg" shape-rendering="crispEdges">
<rect x="8" y="0" width="16" height="1" fill="#C4ECFF" />
<rect x="6" y="1" width="2" height="1" fill="#C4ECFF" />
<rect x="8" y="1" width="1" height="1" fill="#68AA3B" />
<rect x="9" y="1" width="4" height="1" fill="#6DB33F" />
<rect x="13" y="1" width="1" height="1" fill="#68AA3B" />
<rect x="14" y="1" width="4" height="1" fill="#6DB33F" />
<rect x="18" y="1" width="1" height="1" fill="#68AA3B" />
<rect x="19" y="1" width="2" height="1" fill="#6DB33F" />
<rect x="21" y="1" width="3" height="1" fill="#68AA3B" />
<rect x="24" y="1" width="2" height="1" fill="#8CDAFF" />
<rect x="4" y="2" width="2" height="1" fill="#C4ECFF" />
<rect x="6" y="2" width="1" height="3" fill="#6DB33F" />
<rect x="7" y="2" width="1" height="6" fill="#68AA3B" />
<rect x="8" y="2" width="1" height="1" fill="#6DB33F" />
<rect x="9" y="2" width="2" height="1" fill="#68AA3B" />
<rect x="11" y="2" width="1" height="1" fill="#6DB33F" />
<rect x="12" y="2" width="1" height="1" fill="#68AA3B" />
<rect x="13" y="2" width="3" height="2" fill="#6DB33F" />
<rect x="16" y="2" width="1" height="3" fill="#68AA3B" />
<rect x="17" y="2" width="2" height="1" fill="#6DB33F" />
<rect x="19" y="2" width="1" height="2" fill="#68AA3B" />
<rect x="20" y="2" width="2" height="1" fill="#6DB33F" />
<rect x="22" y="2" width="1" height="1" fill="#68AA3B" />
<rect x="23" y="2" width="1" height="3" fill="#6DB33F" />
<rect x="24" y="2" width="2" height="1" fill="#68AA3B" />
<rect x="26" y="2" width="2" height="1" fill="#8CDAFF" />
<rect x="3" y="3" width="1" height="1" fill="#C4ECFF" />
<rect x="4" y="3" width="1" height="2" fill="#68AA3B" />
<rect x="5" y="3" width="1" height="4" fill="#6DB33F" />
<rect x="8" y="3" width="1" height="1" fill="#68AA3B" />
<rect x="9" y="3" width="1" height="3" fill="#6DB33F" />
<rect x="10" y="3" width="2" height="1" fill="#68AA3B" />
<rect x="12" y="3" width="1" height="2" fill="#6DB33F" />
<rect x="17" y="3" width="1" height="1" fill="#6DB33F" />
<rect x="18" y="3" width="1" height="2" fill="#68AA3B" />
<rect x="20" y="3" width="2" height="1" fill="#68AA3B" />
<rect x="22" y="3" width="1" height="2" fill="#6DB33F" />
<rect x="24" y="3" width="3" height="1" fill="#6DB33F" />
<rect x="27" y="3" width="1" height="1" fill="#68AA3B" />
<rect x="28" y="3" width="1" height="1" fill="#8CDAFF" />
<rect x="2" y="4" width="1" height="2" fill="#C4ECFF" />
<rect x="3" y="4" width="1" height="1" fill="#6DB33F" />
<rect x="8" y="4" width="1" height="1" fill="#6DB33F" />
<rect x="10" y="4" width="2" height="1" fill="#6DB33F" />
<rect x="13" y="4" width="1" height="4" fill="#6DB33F" />
<rect x="14" y="4" width="1" height="1" fill="#68AA3B" />
<rect x="15" y="4" width="1" height="1" fill="#6DB33F" />
<rect x="17" y="4" width="1" height="1" fill="#68AA3B" />
<rect x="19" y="4" width="3" height="1" fill="#6DB33F" />
<rect x="24" y="4" width="3" height="1" fill="#68AA3B" />
<rect x="27" y="4" width="2" height="1" fill="#6DB33F" />
<rect x="29" y="4" width="1" height="2" fill="#8CDAFF" />
<rect x="3" y="5" width="1" height="2" fill="#68AA3B" />
<rect x="4" y="5" width="1" height="1" fill="#6DB33F" />
<rect x="6" y="5" width="1" height="3" fill="#68AA3B" />
<rect x="8" y="5" width="1" height="2" fill="#68AA3B" />
<rect x="10" y="5" width="3" height="1" fill="#68AA3B" />
<rect x="14" y="5" width="1" height="1" fill="#6DB33F" />
<rect x="15" y="5" width="1" height="2" fill="#1A1A1A" />
<rect x="16" y="5" width="1" height="1" fill="#1D1D1D" />
<rect x="17" y="5" width="2" height="1" fill="#6DB33F" />
<rect x="19" y="5" width="1" height="4" fill="#68AA3B" />
<rect x="20" y="5" width="1" height="1" fill="#6DB33F" />
<rect x="21" y="5" width="3" height="1" fill="#68AA3B" />
<rect x="24" y="5" width="1" height="2" fill="#6DB33F" />
<rect x="25" y="5" width="1" height="2" fill="#68AA3B" />
<rect x="26" y="5" width="1" height="1" fill="#6DB33F" />
<rect x="27" y="5" width="2" height="2" fill="#68AA3B" />
<rect x="1" y="6" width="1" height="2" fill="#C4ECFF" />
<rect x="2" y="6" width="1" height="2" fill="#68AA3B" />
<rect x="4" y="6" width="1" height="6" fill="#68AA3B" />
<rect x="9" y="6" width="2" height="1" fill="#1D1D1D" />
<rect x="11" y="6" width="2" height="1" fill="#68AA3B" />
<rect x="14" y="6" width="1" height="1" fill="#1A1A1A" />
<rect x="16" y="6" width="1" height="1" fill="#1A1A1A" />
<rect x="17" y="6" width="1" height="3" fill="#1D1D1D" />
<rect x="18" y="6" width="1" height="5" fill="#6DB33F" />
<rect x="20" y="6" width="1" height="1" fill="#68AA3B" />
<rect x="21" y="6" width="1" height="2" fill="#1D1D1D" />
<rect x="22" y="6" width="1" height="7" fill="#1A1A1A" />
<rect x="23" y="6" width="1" height="1" fill="#68AA3B" />
<rect x="26" y="6" width="1" height="1" fill="#68AA3B" />
<rect x="29" y="6" width="1" height="3" fill="#68AA3B" />
<rect x="30" y="6" width="1" height="2" fill="#8CDAFF" />
<rect x="3" y="7" width="1" height="1" fill="#6DB33F" />
<rect x="5" y="7" width="1" height="3" fill="#68AA3B" />
<rect x="8" y="7" width="2" height="2" fill="#1A1A1A" />
<rect x="10" y="7" width="1" height="1" fill="#1D1D1D" />
<rect x="11" y="7" width="1" height="1" fill="#1A1A1A" />
<rect x="12" y="7" width="1" height="1" fill="#68AA3B" />
<rect x="14" y="7" width="3" height="1" fill="#1D1D1D" />
<rect x="20" y="7" width="1" height="3" fill="#1A1A1A" />
<rect x="23" y="7" width="1" height="2" fill="#1A1A1A" />
<rect x="24" y="7" width="1" height="1" fill="#68AA3B" />
<rect x="25" y="7" width="3" height="1" fill="#6DB33F" />
<rect x="28" y="7" width="1" height="5" fill="#68AA3B" />
<rect x="0" y="8" width="1" height="16" fill="#C4ECFF" />
<rect x="1" y="8" width="2" height="1" fill="#6DB33F" />
<rect x="3" y="8" width="1" height="3" fill="#68AA3B" />
<rect x="6" y="8" width="1" height="1" fill="#6DB33F" />
<rect x="7" y="8" width="1" height="1" fill="#1A1A1A" />
<rect x="10" y="8" width="1" height="3" fill="#1A1A1A" />
<rect x="11" y="8" width="1" height="1" fill="#1D1D1D" />
<rect x="12" y="8" width="1" height="3" fill="#6DB33F" />
<rect x="13" y="8" width="1" height="1" fill="#68AA3B" />
<rect x="14" y="8" width="3" height="1" fill="#1A1A1A" />
<rect x="21" y="8" width="1" height="2" fill="#1A1A1A" />
<rect x="24" y="8" width="1" height="6" fill="#1A1A1A" />
<rect x="25" y="8" width="3" height="1" fill="#68AA3B" />
<rect x="30" y="8" width="1" height="5" fill="#68AA3B" />
<rect x="31" y="8" width="1" height="16" fill="#8CDAFF" />
<rect x="1" y="9" width="1" height="6" fill="#68AA3B" />
<rect x="2" y="9" width="1" height="1" fill="#6DB33F" />
<rect x="6" y="9" width="1" height="2" fill="#1A1A1A" />
<rect x="7" y="9" width="1" height="2" fill="#1D1D1D" />
<rect x="8" y="9" width="1" height="1" fill="#1A1A1A" />
<rect x="9" y="9" width="1" height="1" fill="#1D1D1D" />
<rect x="11" y="9" width="1" height="1" fill="#1A1A1A" />
<rect x="13" y="9" width="1" height="4" fill="#6DB33F" />
<rect x="14" y="9" width="2" height="4" fill="#1A1A1A" />
<rect x="16" y="9" width="1" height="1" fill="#1D1D1D" />
<rect x="17" y="9" width="1" height="4" fill="#1A1A1A" />
<rect x="19" y="9" width="1" height="6" fill="#6DB33F" />
<rect x="23" y="9" width="1" height="1" fill="#1D1D1D" />
<rect x="25" y="9" width="1" height="1" fill="#1A1A1A" />
<rect x="26" y="9" width="1" height="2" fill="#6DB33F" />
<rect x="27" y="9" width="1" height="1" fill="#68AA3B" />
<rect x="29" y="9" width="1" height="2" fill="#6DB33F" />
<rect x="2" y="10" width="1" height="2" fill="#68AA3B" />
<rect x="5" y="10" width="1" height="1" fill="#6DB33F" />
<rect x="8" y="10" width="1" height="1" fill="#1D1D1D" />
<rect x="9" y="10" width="1" height="2" fill="#1A1A1A" />
<rect x="11" y="10" width="1" height="3" fill="#6DB33F" />
<rect x="16" y="10" width="1" height="5" fill="#1A1A1A" />
<rect x="20" y="10" width="1" height="3" fill="#68AA3B" />
<rect x="21" y="10" width="1" height="1" fill="#1D1D1D" />
<rect x="23" y="10" width="1" height="9" fill="#1A1A1A" />
<rect x="25" y="10" width="1" height="2" fill="#1D1D1D" />
<rect x="27" y="10" width="1" height="3" fill="#6DB33F" />
<rect x="3" y="11" width="1" height="3" fill="#6DB33F" />
<rect x="5" y="11" width="1" height="1" fill="#1A1A1A" />
<rect x="6" y="11" width="1" height="2" fill="#1D1D1D" />
<rect x="7" y="11" width="2" height="10" fill="#1A1A1A" />
<rect x="10" y="11" width="1" height="2" fill="#6DB33F" />
<rect x="12" y="11" width="1" height="3" fill="#68AA3B" />
<rect x="18" y="11" width="1" height="1" fill="#68AA3B" />
<rect x="21" y="11" width="1" height="5" fill="#6DB33F" />
<rect x="26" y="11" width="1" height="6" fill="#1A1A1A" />
<rect x="29" y="11" width="1" height="2" fill="#68AA3B" />
<rect x="2" y="12" width="1" height="2" fill="#6DB33F" />
<rect x="4" y="12" width="1" height="1" fill="#6DB33F" />
<rect x="5" y="12" width="1" height="1" fill="#1D1D1D" />
<rect x="9" y="12" width="1" height="1" fill="#1D1D1D" />
<rect x="18" y="12" width="1" height="5" fill="#6DB33F" />
<rect x="25" y="12" width="1" height="3" fill="#1A1A1A" />
<rect x="28" y="12" width="1" height="1" fill="#6DB33F" />
<rect x="4" y="13" width="1" height="1" fill="#1D1D1D" />
<rect x="5" y="13" width="2" height="1" fill="#1A1A1A" />
<rect x="9" y="13" width="3" height="1" fill="#68AA3B" />
<rect x="13" y="13" width="1" height="3" fill="#68AA3B" />
<rect x="14" y="13" width="1" height="2" fill="#1D1D1D" />
<rect x="15" y="13" width="1" height="1" fill="#1A1A1A" />
<rect x="17" y="13" width="1" height="2" fill="#1D1D1D" />
<rect x="20" y="13" width="1" height="1" fill="#6DB33F" />
<rect x="22" y="13" width="1" height="1" fill="#6DB33F" />
<rect x="27" y="13" width="1" height="3" fill="#1A1A1A" />
<rect x="28" y="13" width="1" height="1" fill="#68AA3B" />
<rect x="29" y="13" width="2" height="1" fill="#6DB33F" />
<rect x="2" y="14" width="2" height="1" fill="#68AA3B" />
<rect x="4" y="14" width="1" height="1" fill="#1A1A1A" />
<rect x="5" y="14" width="1" height="1" fill="#1D1D1D" />
<rect x="6" y="14" width="1" height="5" fill="#1A1A1A" />
<rect x="9" y="14" width="4" height="1" fill="#6DB33F" />
<rect x="15" y="14" width="1" height="2" fill="#1D1D1D" />
<rect x="20" y="14" width="1" height="2" fill="#68AA3B" />
<rect x="22" y="14" width="1" height="2" fill="#68AA3B" />
<rect x="24" y="14" width="1" height="1" fill="#1D1D1D" />
<rect x="28" y="14" width="1" height="2" fill="#6DB33F" />
<rect x="29" y="14" width="2" height="1" fill="#68AA3B" />
<rect x="1" y="15" width="2" height="1" fill="#6DB33F" />
<rect x="3" y="15" width="1" height="4" fill="#68AA3B" />
<rect x="4" y="15" width="1" height="1" fill="#1D1D1D" />
<rect x="5" y="15" width="1" height="2" fill="#1A1A1A" />
<rect x="9" y="15" width="1" height="1" fill="#68AA3B" />
<rect x="10" y="15" width="3" height="1" fill="#6DB33F" />
<rect x="14" y="15" width="1" height="2" fill="#1A1A1A" />
<rect x="16" y="15" width="1" height="3" fill="#1D1D1D" />
<rect x="17" y="15" width="1" height="2" fill="#1A1A1A" />
<rect x="19" y="15" width="1" height="1" fill="#68AA3B" />
<rect x="24" y="15" width="1" height="7" fill="#1A1A1A" />
<rect x="25" y="15" width="1" height="1" fill="#1D1D1D" />
<rect x="29" y="15" width="1" height="1" fill="#68AA3B" />
<rect x="30" y="15" width="1" height="1" fill="#6DB33F" />
<rect x="1" y="16" width="1" height="1" fill="#68AA3B" />
<rect x="2" y="16" width="1" height="2" fill="#6DB33F" />
<rect x="4" y="16" width="1" height="3" fill="#1A1A1A" />
<rect x="9" y="16" width="1" height="2" fill="#6DB33F" />
<rect x="10" y="16" width="1" height="4" fill="#68AA3B" />
<rect x="11" y="16" width="1" height="1" fill="#6DB33F" />
<rect x="12" y="16" width="1" height="2" fill="#68AA3B" />
<rect x="13" y="16" width="1" height="1" fill="#6DB33F" />
<rect x="15" y="16" width="1" height="2" fill="#1A1A1A" />
<rect x="19" y="16" width="2" height="1" fill="#6DB33F" />
<rect x="21" y="16" width="1" height="3" fill="#68AA3B" />
<rect x="22" y="16" width="1" height="1" fill="#6DB33F" />
<rect x="25" y="16" width="1" height="7" fill="#1A1A1A" />
<rect x="27" y="16" width="1" height="2" fill="#1D1D1D" />
<rect x="28" y="16" width="1" height="4" fill="#68AA3B" />
<rect x="29" y="16" width="1" height="1" fill="#6DB33F" />
<rect x="30" y="16" width="1" height="3" fill="#68AA3B" />
<rect x="1" y="17" width="1" height="2" fill="#6DB33F" />
<rect x="5" y="17" width="1" height="2" fill="#1D1D1D" />
<rect x="11" y="17" width="1" height="4" fill="#68AA3B" />
<rect x="13" y="17" width="2" height="1" fill="#68AA3B" />
<rect x="17" y="17" width="2" height="1" fill="#68AA3B" />
<rect x="19" y="17" width="1" height="1" fill="#6DB33F" />
<rect x="20" y="17" width="1" height="2" fill="#68AA3B" />
<rect x="22" y="17" width="1" height="1" fill="#68AA3B" />
<rect x="26" y="17" width="1" height="1" fill="#1D1D1D" />
<rect x="29" y="17" width="1" height="2" fill="#68AA3B" />
<rect x="2" y="18" width="1" height="2" fill="#68AA3B" />
<rect x="9" y="18" width="1" height="4" fill="#1D1D1D" />
<rect x="12" y="18" width="2" height="1" fill="#6DB33F" />
<rect x="14" y="18" width="1" height="1" fill="#68AA3B" />
<rect x="15" y="18" width="1" height="1" fill="#6DB33F" />
<rect x="16" y="18" width="1" height="5" fill="#68AA3B" />
<rect x="17" y="18" width="1" height="1" fill="#6DB33F" />
<rect x="18" y="18" width="2" height="2" fill="#68AA3B" />
<rect x="22" y="18" width="1" height="6" fill="#1A1A1A" />
<rect x="26" y="18" width="2" height="1" fill="#1A1A1A" />
<rect x="1" y="19" width="1" height="1" fill="#68AA3B" />
<rect x="3" y="19" width="1" height="1" fill="#6DB33F" />
<rect x="4" y="19" width="1" height="1" fill="#68AA3B" />
<rect x="5" y="19" width="1" height="2" fill="#1A1A1A" />
<rect x="6" y="19" width="1" height="2" fill="#1D1D1D" />
<rect x="12" y="19" width="2" height="2" fill="#68AA3B" />
<rect x="14" y="19" width="1" height="1" fill="#6DB33F" />
<rect x="15" y="19" width="1" height="1" fill="#68AA3B" />
<rect x="17" y="19" width="1" height="3" fill="#68AA3B" />
<rect x="20" y="19" width="2" height="1" fill="#6DB33F" />
<rect x="23" y="19" width="1" height="1" fill="#1D1D1D" />
<rect x="26" y="19" width="1" height="1" fill="#1D1D1D" />
<rect x="27" y="19" width="1" height="3" fill="#68AA3B" />
<rect x="29" y="19" width="2" height="1" fill="#6DB33F" />
<rect x="1" y="20" width="2" height="1" fill="#6DB33F" />
<rect x="3" y="20" width="1" height="2" fill="#68AA3B" />
<rect x="4" y="20" width="1" height="1" fill="#6DB33F" />
<rect x="10" y="20" width="1" height="2" fill="#1A1A1A" />
<rect x="14" y="20" width="1" height="1" fill="#68AA3B" />
<rect x="15" y="20" width="1" height="1" fill="#6DB33F" />
<rect x="18" y="20" width="1" height="1" fill="#6DB33F" />
<rect x="19" y="20" width="2" height="1" fill="#68AA3B" />
<rect x="21" y="20" width="1" height="2" fill="#1D1D1D" />
<rect x="23" y="20" width="1" height="1" fill="#1A1A1A" />
<rect x="26" y="20" width="1" height="1" fill="#1A1A1A" />
<rect x="28" y="20" width="2" height="2" fill="#6DB33F" />
<rect x="30" y="20" width="1" height="1" fill="#68AA3B" />
<rect x="1" y="21" width="1" height="2" fill="#68AA3B" />
<rect x="2" y="21" width="1" height="5" fill="#6DB33F" />
<rect x="4" y="21" width="2" height="1" fill="#68AA3B" />
<rect x="6" y="21" width="1" height="2" fill="#1A1A1A" />
<rect x="7" y="21" width="2" height="2" fill="#1D1D1D" />
<rect x="11" y="21" width="1" height="1" fill="#1A1A1A" />
<rect x="12" y="21" width="3" height="1" fill="#6DB33F" />
<rect x="15" y="21" width="1" height="2" fill="#68AA3B" />
<rect x="18" y="21" width="1" height="1" fill="#68AA3B" />
<rect x="19" y="21" width="1" height="1" fill="#6DB33F" />
<rect x="20" y="21" width="1" height="1" fill="#1D1D1D" />
<rect x="23" y="21" width="1" height="2" fill="#1D1D1D" />
<rect x="26" y="21" width="1" height="2" fill="#6DB33F" />
<rect x="30" y="21" width="1" height="1" fill="#6DB33F" />
<rect x="3" y="22" width="3" height="2" fill="#6DB33F" />
<rect x="9" y="22" width="1" height="1" fill="#1A1A1A" />
<rect x="10" y="22" width="4" height="1" fill="#1D1D1D" />
<rect x="14" y="22" width="1" height="1" fill="#68AA3B" />
<rect x="17" y="22" width="1" height="1" fill="#6DB33F" />
<rect x="18" y="22" width="2" height="1" fill="#1D1D1D" />
<rect x="20" y="22" width="2" height="1" fill="#1A1A1A" />
<rect x="24" y="22" width="1" height="1" fill="#1D1D1D" />
<rect x="27" y="22" width="1" height="3" fill="#6DB33F" />
<rect x="28" y="22" width="3" height="1" fill="#68AA3B" />
<rect x="1" y="23" width="1" height="1" fill="#6DB33F" />
<rect x="6" y="23" width="1" height="1" fill="#6DB33F" />
<rect x="7" y="23" width="2" height="1" fill="#1A1A1A" />
<rect x="9" y="23" width="2" height="1" fill="#1D1D1D" />
<rect x="11" y="23" width="1" height="2" fill="#1A1A1A" />
<rect x="12" y="23" width="1" height="1" fill="#1D1D1D" />
<rect x="13" y="23" width="1" height="5" fill="#1A1A1A" />
<rect x="14" y="23" width="3" height="1" fill="#1D1D1D" />
<rect x="17" y="23" width="3" height="1" fill="#1A1A1A" />
<rect x="20" y="23" width="1" height="2" fill="#1D1D1D" />
<rect x="21" y="23" width="1" height="1" fill="#1A1A1A" />
<rect x="23" y="23" width="2" height="1" fill="#1A1A1A" />
<rect x="25" y="23" width="2" height="1" fill="#68AA3B" />
<rect x="28" y="23" width="3" height="1" fill="#6DB33F" />
<rect x="1" y="24" width="1" height="2" fill="#8CDAFF" />
<rect x="3" y="24" width="2" height="1" fill="#6DB33F" />
<rect x="5" y="24" width="3" height="1" fill="#68AA3B" />
<rect x="8" y="24" width="2" height="1" fill="#1D1D1D" />
<rect x="10" y="24" width="1" height="2" fill="#1A1A1A" />
<rect x="12" y="24" width="1" height="2" fill="#1A1A1A" />
<rect x="14" y="24" width="1" height="1" fill="#1A1A1A" />
<rect x="15" y="24" width="1" height="1" fill="#1D1D1D" />
<rect x="16" y="24" width="3" height="1" fill="#1A1A1A" />
<rect x="19" y="24" width="1" height="1" fill="#1D1D1D" />
<rect x="21" y="24" width="2" height="1" fill="#1D1D1D" />
<rect x="23" y="24" width="1" height="1" fill="#1A1A1A" />
<rect x="24" y="24" width="1" height="1" fill="#68AA3B" />
<rect x="25" y="24" width="1" height="3" fill="#6DB33F" />
<rect x="26" y="24" width="1" height="1" fill="#68AA3B" />
<rect x="28" y="24" width="2" height="1" fill="#68AA3B" />
<rect x="30" y="24" width="1" height="2" fill="#8CDAFF" />
<rect x="3" y="25" width="1" height="2" fill="#6DB33F" />
<rect x="4" y="25" width="1" height="1" fill="#68AA3B" />
<rect x="5" y="25" width="1" height="2" fill="#6DB33F" />
<rect x="6" y="25" width="3" height="1" fill="#68AA3B" />
<rect x="9" y="25" width="1" height="1" fill="#1D1D1D" />
<rect x="11" y="25" width="1" height="2" fill="#1D1D1D" />
<rect x="14" y="25" width="1" height="1" fill="#1D1D1D" />
<rect x="15" y="25" width="2" height="3" fill="#1A1A1A" />
<rect x="17" y="25" width="1" height="2" fill="#1D1D1D" />
<rect x="18" y="25" width="4" height="1" fill="#1A1A1A" />
<rect x="22" y="25" width="1" height="1" fill="#1D1D1D" />
<rect x="23" y="25" width="1" height="2" fill="#68AA3B" />
<rect x="24" y="25" width="1" height="2" fill="#6DB33F" />
<rect x="26" y="25" width="1" height="4" fill="#6DB33F" />
<rect x="27" y="25" width="1" height="1" fill="#68AA3B" />
<rect x="28" y="25" width="2" height="1" fill="#6DB33F" />
<rect x="2" y="26" width="1" height="2" fill="#8CDAFF" />
<rect x="4" y="26" width="1" height="3" fill="#6DB33F" />
<rect x="6" y="26" width="2" height="1" fill="#6DB33F" />
<rect x="8" y="26" width="2" height="3" fill="#68AA3B" />
<rect x="10" y="26" width="1" height="1" fill="#6DB33F" />
<rect x="12" y="26" width="1" height="1" fill="#1D1D1D" />
<rect x="14" y="26" width="1" height="2" fill="#1A1A1A" />
<rect x="18" y="26" width="1" height="1" fill="#1D1D1D" />
<rect x="19" y="26" width="2" height="1" fill="#1A1A1A" />
<rect x="21" y="26" width="1" height="1" fill="#68AA3B" />
<rect x="22" y="26" width="1" height="5" fill="#6DB33F" />
<rect x="27" y="26" width="1" height="3" fill="#6DB33F" />
<rect x="28" y="26" width="1" height="1" fill="#68AA3B" />
<rect x="29" y="26" width="1" height="2" fill="#8CDAFF" />
<rect x="3" y="27" width="1" height="1" fill="#68AA3B" />
<rect x="5" y="27" width="1" height="2" fill="#68AA3B" />
<rect x="6" y="27" width="1" height="1" fill="#6DB33F" />
<rect x="7" y="27" width="1" height="1" fill="#68AA3B" />
<rect x="10" y="27" width="3" height="1" fill="#68AA3B" />
<rect x="17" y="27" width="2" height="1" fill="#1A1A1A" />
<rect x="19" y="27" width="1" height="4" fill="#6DB33F" />
<rect x="20" y="27" width="1" height="1" fill="#68AA3B" />
<rect x="21" y="27" width="1" height="3" fill="#6DB33F" />
<rect x="23" y="27" width="1" height="4" fill="#6DB33F" />
<rect x="24" y="27" width="2" height="1" fill="#68AA3B" />
<rect x="28" y="27" width="1" height="1" fill="#6DB33F" />
<rect x="3" y="28" width="1" height="1" fill="#8CDAFF" />
<rect x="6" y="28" width="1" height="1" fill="#68AA3B" />
<rect x="7" y="28" width="1" height="2" fill="#6DB33F" />
<rect x="10" y="28" width="1" height="3" fill="#6DB33F" />
<rect x="11" y="28" width="1" height="1" fill="#68AA3B" />
<rect x="12" y="28" width="1" height="3" fill="#6DB33F" />
<rect x="13" y="28" width="2" height="1" fill="#68AA3B" />
<rect x="15" y="28" width="1" height="1" fill="#6DB33F" />
<rect x="16" y="28" width="2" height="1" fill="#68AA3B" />
<rect x="18" y="28" width="1" height="2" fill="#6DB33F" />
<rect x="20" y="28" width="1" height="2" fill="#6DB33F" />
<rect x="24" y="28" width="1" height="1" fill="#68AA3B" />
<rect x="25" y="28" width="1" height="2" fill="#6DB33F" />
<rect x="28" y="28" width="1" height="1" fill="#8CDAFF" />
<rect x="4" y="29" width="2" height="1" fill="#8CDAFF" />
<rect x="6" y="29" width="1" height="1" fill="#6DB33F" />
<rect x="8" y="29" width="1" height="2" fill="#6DB33F" />
<rect x="9" y="29" width="1" height="2" fill="#68AA3B" />
<rect x="11" y="29" width="1" height="1" fill="#6DB33F" />
<rect x="13" y="29" width="2" height="1" fill="#6DB33F" />
<rect x="15" y="29" width="1" height="2" fill="#68AA3B" />
<rect x="16" y="29" width="2" height="1" fill="#6DB33F" />
<rect x="24" y="29" width="1" height="1" fill="#6DB33F" />
<rect x="26" y="29" width="2" height="1" fill="#8CDAFF" />
<rect x="6" y="30" width="2" height="1" fill="#8CDAFF" />
<rect x="11" y="30" width="1" height="1" fill="#68AA3B" />
<rect x="13" y="30" width="1" height="1" fill="#6DB33F" />
<rect x="14" y="30" width="1" height="1" fill="#68AA3B" />
<rect x="16" y="30" width="1" height="1" fill="#68AA3B" />
<rect x="17" y="30" width="1" height="1" fill="#6DB33F" />
<rect x="18" y="30" width="1" height="1" fill="#68AA3B" />
<rect x="20" y="30" width="2" height="1" fill="#68AA3B" />
<rect x="24" y="30" width="2" height="1" fill="#8CDAFF" />
<rect x="8" y="31" width="16" height="1" fill="#8CDAFF" />
</svg>