<?xml version="1.0" encoding="UTF-8" ?>
<svg version="1.1" width="32" height="32" xmlns="http://www.w3.org/2000/svg" shape-rendering="crispEdges">
<rect x="8" y="0" width="16" height="1" fill="#C4ECFF" />
<rect x="6" y="1" width="2" height="1" fill="#C4ECFF" />
<rect x="8" y="1" width="1" height="2" fill="#181B1E" />
<rect x="9" y="1" width="4" height="1" fill="#15191C" />
<rect x="13" y="1" width="1" height="2" fill="#181B1E" />
<rect x="14" y="1" width="1" height="1" fill="#15191C" />
<rect x="15" y="1" width="3" height="1" fill="#181B1E" />
<rect x="18" y="1" width="1" height="1" fill="#15191C" />
<rect x="19" y="1" width="1" height="1" fill="#181B1E" />
<rect x="20" y="1" width="4" height="2" fill="#15191C" />
<rect x="24" y="1" width="2" height="1" fill="#8CDAFF" />
<rect x="4" y="2" width="2" height="1" fill="#C4ECFF" />
<rect x="6" y="2" width="2" height="6" fill="#15191C" />
<rect x="9" y="2" width="2" height="1" fill="#15191C" />
<rect x="11" y="2" width="1" height="1" fill="#181B1E" />
<rect x="12" y="2" width="1" height="4" fill="#15191C" />
<rect x="14" y="2" width="3" height="1" fill="#181B1E" />
<rect x="17" y="2" width="1" height="1" fill="#15191C" />
<rect x="18" y="2" width="1" height="3" fill="#181B1E" />
<rect x="19" y="2" width="1" height="2" fill="#15191C" />
<rect x="24" y="2" width="1" height="1" fill="#181B1E" />
<rect x="25" y="2" width="1" height="6" fill="#15191C" />
<rect x="26" y="2" width="2" height="1" fill="#8CDAFF" />
<rect x="3" y="3" width="1" height="1" fill="#C4ECFF" />
<rect x="4" y="3" width="2" height="1" fill="#15191C" />
<rect x="8" y="3" width="1" height="3" fill="#15191C" />
<rect x="9" y="3" width="2" height="1" fill="#181B1E" />
<rect x="11" y="3" width="1" height="1" fill="#15191C" />
<rect x="13" y="3" width="4" height="1" fill="#15191C" />
<rect x="17" y="3" width="1" height="2" fill="#181B1E" />
<rect x="20" y="3" width="1" height="1" fill="#15191C" />
<rect x="21" y="3" width="1" height="2" fill="#181B1E" />
<rect x="22" y="3" width="1" height="2" fill="#15191C" />
<rect x="23" y="3" width="1" height="2" fill="#181B1E" />
<rect x="24" y="3" width="1" height="3" fill="#15191C" />
<rect x="26" y="3" width="1" height="1" fill="#15191C" />
<rect x="27" y="3" width="1" height="1" fill="#181B1E" />
<rect x="28" y="3" width="1" height="1" fill="#8CDAFF" />
<rect x="2" y="4" width="1" height="2" fill="#C4ECFF" />
<rect x="3" y="4" width="1" height="1" fill="#15191C" />
<rect x="4" y="4" width="1" height="1" fill="#181B1E" />
<rect x="5" y="4" width="1" height="5" fill="#15191C" />
<rect x="9" y="4" width="1" height="1" fill="#15191C" />
<rect x="10" y="4" width="2" height="1" fill="#181B1E" />
<rect x="13" y="4" width="2" height="3" fill="#15191C" />
<rect x="15" y="4" width="2" height="1" fill="#181B1E" />
<rect x="19" y="4" width="2" height="1" fill="#181B1E" />
<rect x="26" y="4" width="1" height="1" fill="#181B1E" />
<rect x="27" y="4" width="2" height="1" fill="#15191C" />
<rect x="29" y="4" width="1" height="2" fill="#8CDAFF" />
<rect x="3" y="5" width="1" height="1" fill="#181B1E" />
<rect x="4" y="5" width="1" height="5" fill="#15191C" />
<rect x="9" y="5" width="1" height="1" fill="#181B1E" />
<rect x="10" y="5" width="2" height="2" fill="#15191C" />
<rect x="15" y="5" width="1" height="2" fill="#15191C" />
<rect x="16" y="5" width="1" height="2" fill="#181B1E" />
<rect x="17" y="5" width="3" height="1" fill="#15191C" />
<rect x="20" y="5" width="1" height="1" fill="#181B1E" />
<rect x="21" y="5" width="1" height="1" fill="#15191C" />
<rect x="22" y="5" width="1" height="2" fill="#181B1E" />
<rect x="23" y="5" width="1" height="5" fill="#15191C" />
<rect x="26" y="5" width="1" height="3" fill="#15191C" />
<rect x="27" y="5" width="2" height="1" fill="#181B1E" />
<rect x="1" y="6" width="1" height="2" fill="#C4ECFF" />
<rect x="2" y="6" width="2" height="1" fill="#15191C" />
<rect x="8" y="6" width="1" height="1" fill="#181B1E" />
<rect x="9" y="6" width="1" height="1" fill="#15191C" />
<rect x="12" y="6" width="1" height="1" fill="#181B1E" />
<rect x="17" y="6" width="1" height="1" fill="#15191C" />
<rect x="18" y="6" width="1" height="1" fill="#181B1E" />
<rect x="19" y="6" width="2" height="1" fill="#15191C" />
<rect x="21" y="6" width="1" height="1" fill="#181B1E" />
<rect x="24" y="6" width="1" height="1" fill="#181B1E" />
<rect x="27" y="6" width="1" height="1" fill="#181B1E" />
<rect x="28" y="6" width="2" height="2" fill="#15191C" />
<rect x="30" y="6" width="1" height="2" fill="#8CDAFF" />
<rect x="2" y="7" width="1" height="2" fill="#15191C" />
<rect x="3" y="7" width="1" height="2" fill="#181B1E" />
<rect x="8" y="7" width="1" height="1" fill="#15191C" />
<rect x="9" y="7" width="3" height="1" fill="#181B1E" />
<rect x="12" y="7" width="1" height="4" fill="#06B6D4" />
<rect x="13" y="7" width="1" height="1" fill="#12BDDA" />
<rect x="14" y="7" width="2" height="5" fill="#06B6D4" />
<rect x="16" y="7" width="1" height="1" fill="#15191C" />
<rect x="17" y="7" width="1" height="1" fill="#181B1E" />
<rect x="18" y="7" width="2" height="2" fill="#15191C" />
<rect x="20" y="7" width="1" height="1" fill="#181B1E" />
<rect x="21" y="7" width="2" height="1" fill="#15191C" />
<rect x="24" y="7" width="1" height="2" fill="#15191C" />
<rect x="27" y="7" width="1" height="1" fill="#15191C" />
<rect x="0" y="8" width="1" height="16" fill="#C4ECFF" />
<rect x="1" y="8" width="1" height="2" fill="#15191C" />
<rect x="6" y="8" width="1" height="1" fill="#181B1E" />
<rect x="7" y="8" width="1" height="3" fill="#15191C" />
<rect x="8" y="8" width="2" height="1" fill="#181B1E" />
<rect x="10" y="8" width="2" height="1" fill="#06B6D4" />
<rect x="13" y="8" width="1" height="3" fill="#06B6D4" />
<rect x="16" y="8" width="1" height="4" fill="#06B6D4" />
<rect x="17" y="8" width="1" height="2" fill="#12BDDA" />
<rect x="20" y="8" width="2" height="2" fill="#15191C" />
<rect x="22" y="8" width="1" height="1" fill="#181B1E" />
<rect x="25" y="8" width="1" height="1" fill="#181B1E" />
<rect x="26" y="8" width="2" height="3" fill="#06B6D4" />
<rect x="28" y="8" width="1" height="12" fill="#15191C" />
<rect x="29" y="8" width="2" height="1" fill="#181B1E" />
<rect x="31" y="8" width="1" height="16" fill="#8CDAFF" />
<rect x="2" y="9" width="1" height="1" fill="#181B1E" />
<rect x="3" y="9" width="1" height="3" fill="#15191C" />
<rect x="5" y="9" width="1" height="1" fill="#181B1E" />
<rect x="6" y="9" width="1" height="2" fill="#15191C" />
<rect x="8" y="9" width="1" height="1" fill="#181B1E" />
<rect x="9" y="9" width="1" height="2" fill="#06B6D4" />
<rect x="10" y="9" width="1" height="1" fill="#12BDDA" />
<rect x="11" y="9" width="1" height="1" fill="#06B6D4" />
<rect x="18" y="9" width="1" height="1" fill="#06B6D4" />
<rect x="19" y="9" width="1" height="1" fill="#15191C" />
<rect x="22" y="9" width="1" height="2" fill="#15191C" />
<rect x="24" y="9" width="2" height="1" fill="#06B6D4" />
<rect x="29" y="9" width="2" height="3" fill="#15191C" />
<rect x="1" y="10" width="1" height="2" fill="#181B1E" />
<rect x="2" y="10" width="1" height="1" fill="#15191C" />
<rect x="4" y="10" width="1" height="1" fill="#181B1E" />
<rect x="5" y="10" width="1" height="1" fill="#15191C" />
<rect x="8" y="10" width="1" height="4" fill="#06B6D4" />
<rect x="10" y="10" width="1" height="4" fill="#06B6D4" />
<rect x="11" y="10" width="1" height="1" fill="#12BDDA" />
<rect x="17" y="10" width="1" height="1" fill="#06B6D4" />
<rect x="18" y="10" width="1" height="1" fill="#12BDDA" />
<rect x="19" y="10" width="1" height="4" fill="#06B6D4" />
<rect x="20" y="10" width="1" height="1" fill="#15191C" />
<rect x="21" y="10" width="1" height="1" fill="#181B1E" />
<rect x="23" y="10" width="1" height="5" fill="#06B6D4" />
<rect x="24" y="10" width="1" height="1" fill="#12BDDA" />
<rect x="25" y="10" width="1" height="2" fill="#06B6D4" />
<rect x="2" y="11" width="1" height="1" fill="#181B1E" />
<rect x="4" y="11" width="1" height="2" fill="#15191C" />
<rect x="5" y="11" width="3" height="1" fill="#181B1E" />
<rect x="9" y="11" width="1" height="1" fill="#12BDDA" />
<rect x="11" y="11" width="1" height="2" fill="#06B6D4" />
<rect x="12" y="11" width="2" height="1" fill="#12BDDA" />
<rect x="17" y="11" width="1" height="3" fill="#12BDDA" />
<rect x="18" y="11" width="1" height="4" fill="#06B6D4" />
<rect x="20" y="11" width="3" height="2" fill="#06B6D4" />
<rect x="24" y="11" width="1" height="4" fill="#06B6D4" />
<rect x="26" y="11" width="1" height="2" fill="#06B6D4" />
<rect x="27" y="11" width="1" height="6" fill="#15191C" />
<rect x="1" y="12" width="2" height="1" fill="#15191C" />
<rect x="3" y="12" width="1" height="1" fill="#181B1E" />
<rect x="5" y="12" width="2" height="1" fill="#181B1E" />
<rect x="7" y="12" width="1" height="3" fill="#06B6D4" />
<rect x="9" y="12" width="1" height="2" fill="#06B6D4" />
<rect x="12" y="12" width="1" height="2" fill="#181B1E" />
<rect x="13" y="12" width="2" height="1" fill="#15191C" />
<rect x="15" y="12" width="2" height="1" fill="#12BDDA" />
<rect x="25" y="12" width="1" height="1" fill="#12BDDA" />
<rect x="29" y="12" width="1" height="1" fill="#181B1E" />
<rect x="30" y="12" width="1" height="11" fill="#15191C" />
<rect x="1" y="13" width="1" height="7" fill="#15191C" />
<rect x="2" y="13" width="1" height="1" fill="#181B1E" />
<rect x="3" y="13" width="1" height="1" fill="#15191C" />
<rect x="4" y="13" width="1" height="2" fill="#181B1E" />
<rect x="5" y="13" width="1" height="6" fill="#15191C" />
<rect x="6" y="13" width="1" height="2" fill="#181B1E" />
<rect x="11" y="13" width="1" height="1" fill="#15191C" />
<rect x="13" y="13" width="1" height="1" fill="#15191C" />
<rect x="14" y="13" width="2" height="1" fill="#181B1E" />
<rect x="16" y="13" width="1" height="1" fill="#06B6D4" />
<rect x="20" y="13" width="1" height="2" fill="#06B6D4" />
<rect x="21" y="13" width="1" height="1" fill="#12BDDA" />
<rect x="22" y="13" width="1" height="2" fill="#06B6D4" />
<rect x="25" y="13" width="1" height="1" fill="#06B6D4" />
<rect x="26" y="13" width="1" height="3" fill="#15191C" />
<rect x="29" y="13" width="1" height="11" fill="#15191C" />
<rect x="2" y="14" width="1" height="2" fill="#15191C" />
<rect x="3" y="14" width="1" height="1" fill="#181B1E" />
<rect x="8" y="14" width="1" height="1" fill="#12BDDA" />
<rect x="9" y="14" width="2" height="2" fill="#15191C" />
<rect x="11" y="14" width="1" height="1" fill="#181B1E" />
<rect x="12" y="14" width="1" height="2" fill="#15191C" />
<rect x="13" y="14" width="1" height="1" fill="#181B1E" />
<rect x="14" y="14" width="3" height="1" fill="#15191C" />
<rect x="17" y="14" width="1" height="1" fill="#06B6D4" />
<rect x="19" y="14" width="1" height="1" fill="#12BDDA" />
<rect x="21" y="14" width="1" height="2" fill="#06B6D4" />
<rect x="25" y="14" width="1" height="3" fill="#15191C" />
<rect x="3" y="15" width="2" height="1" fill="#15191C" />
<rect x="6" y="15" width="1" height="3" fill="#15191C" />
<rect x="7" y="15" width="1" height="2" fill="#181B1E" />
<rect x="8" y="15" width="1" height="2" fill="#15191C" />
<rect x="11" y="15" width="1" height="1" fill="#15191C" />
<rect x="13" y="15" width="1" height="2" fill="#15191C" />
<rect x="14" y="15" width="1" height="1" fill="#181B1E" />
<rect x="15" y="15" width="3" height="2" fill="#15191C" />
<rect x="18" y="15" width="1" height="1" fill="#181B1E" />
<rect x="19" y="15" width="1" height="1" fill="#06B6D4" />
<rect x="20" y="15" width="1" height="1" fill="#12BDDA" />
<rect x="22" y="15" width="1" height="1" fill="#12BDDA" />
<rect x="23" y="15" width="2" height="2" fill="#15191C" />
<rect x="2" y="16" width="1" height="1" fill="#181B1E" />
<rect x="3" y="16" width="1" height="1" fill="#15191C" />
<rect x="4" y="16" width="1" height="2" fill="#181B1E" />
<rect x="9" y="16" width="1" height="5" fill="#06B6D4" />
<rect x="10" y="16" width="1" height="1" fill="#12BDDA" />
<rect x="11" y="16" width="2" height="1" fill="#06B6D4" />
<rect x="14" y="16" width="1" height="1" fill="#15191C" />
<rect x="18" y="16" width="3" height="3" fill="#15191C" />
<rect x="21" y="16" width="2" height="1" fill="#181B1E" />
<rect x="26" y="16" width="1" height="1" fill="#181B1E" />
<rect x="2" y="17" width="1" height="6" fill="#15191C" />
<rect x="3" y="17" width="1" height="5" fill="#181B1E" />
<rect x="7" y="17" width="1" height="1" fill="#12BDDA" />
<rect x="8" y="17" width="1" height="5" fill="#06B6D4" />
<rect x="10" y="17" width="1" height="2" fill="#06B6D4" />
<rect x="11" y="17" width="1" height="2" fill="#12BDDA" />
<rect x="12" y="17" width="3" height="1" fill="#06B6D4" />
<rect x="15" y="17" width="2" height="1" fill="#15191C" />
<rect x="17" y="17" width="1" height="1" fill="#181B1E" />
<rect x="21" y="17" width="2" height="1" fill="#15191C" />
<rect x="23" y="17" width="2" height="3" fill="#06B6D4" />
<rect x="25" y="17" width="1" height="1" fill="#181B1E" />
<rect x="26" y="17" width="1" height="1" fill="#15191C" />
<rect x="27" y="17" width="1" height="1" fill="#181B1E" />
<rect x="4" y="18" width="1" height="1" fill="#15191C" />
<rect x="6" y="18" width="2" height="1" fill="#06B6D4" />
<rect x="12" y="18" width="1" height="1" fill="#12BDDA" />
<rect x="13" y="18" width="1" height="2" fill="#06B6D4" />
<rect x="14" y="18" width="1" height="1" fill="#12BDDA" />
<rect x="15" y="18" width="1" height="6" fill="#06B6D4" />
<rect x="16" y="18" width="2" height="1" fill="#15191C" />
<rect x="21" y="18" width="2" height="1" fill="#06B6D4" />
<rect x="25" y="18" width="1" height="4" fill="#15191C" />
<rect x="26" y="18" width="1" height="2" fill="#181B1E" />
<rect x="27" y="18" width="1" height="1" fill="#15191C" />
<rect x="4" y="19" width="1" height="1" fill="#181B1E" />
<rect x="5" y="19" width="3" height="1" fill="#12BDDA" />
<rect x="10" y="19" width="1" height="1" fill="#12BDDA" />
<rect x="11" y="19" width="2" height="2" fill="#06B6D4" />
<rect x="14" y="19" width="1" height="3" fill="#06B6D4" />
<rect x="16" y="19" width="1" height="3" fill="#06B6D4" />
<rect x="17" y="19" width="1" height="1" fill="#15191C" />
<rect x="18" y="19" width="1" height="1" fill="#181B1E" />
<rect x="19" y="19" width="1" height="1" fill="#15191C" />
<rect x="20" y="19" width="1" height="5" fill="#06B6D4" />
<rect x="21" y="19" width="2" height="1" fill="#12BDDA" />
<rect x="27" y="19" width="1" height="2" fill="#181B1E" />
<rect x="1" y="20" width="1" height="1" fill="#181B1E" />
<rect x="4" y="20" width="1" height="1" fill="#15191C" />
<rect x="5" y="20" width="3" height="1" fill="#06B6D4" />
<rect x="10" y="20" width="1" height="1" fill="#06B6D4" />
<rect x="13" y="20" width="1" height="1" fill="#12BDDA" />
<rect x="17" y="20" width="1" height="5" fill="#06B6D4" />
<rect x="18" y="20" width="1" height="1" fill="#12BDDA" />
<rect x="19" y="20" width="1" height="3" fill="#06B6D4" />
<rect x="21" y="20" width="1" height="2" fill="#06B6D4" />
<rect x="22" y="20" width="1" height="1" fill="#12BDDA" />
<rect x="23" y="20" width="1" height="2" fill="#06B6D4" />
<rect x="24" y="20" width="1" height="2" fill="#15191C" />
<rect x="26" y="20" width="1" height="1" fill="#15191C" />
<rect x="28" y="20" width="1" height="1" fill="#181B1E" />
<rect x="1" y="21" width="1" height="3" fill="#15191C" />
<rect x="4" y="21" width="1" height="1" fill="#12BDDA" />
<rect x="5" y="21" width="1" height="3" fill="#06B6D4" />
<rect x="6" y="21" width="1" height="1" fill="#12BDDA" />
<rect x="7" y="21" width="1" height="2" fill="#06B6D4" />
<rect x="9" y="21" width="1" height="2" fill="#15191C" />
<rect x="10" y="21" width="1" height="1" fill="#181B1E" />
<rect x="11" y="21" width="1" height="1" fill="#15191C" />
<rect x="12" y="21" width="2" height="1" fill="#06B6D4" />
<rect x="18" y="21" width="1" height="3" fill="#06B6D4" />
<rect x="22" y="21" width="1" height="1" fill="#06B6D4" />
<rect x="26" y="21" width="1" height="2" fill="#181B1E" />
<rect x="27" y="21" width="2" height="1" fill="#15191C" />
<rect x="3" y="22" width="1" height="6" fill="#15191C" />
<rect x="4" y="22" width="1" height="2" fill="#06B6D4" />
<rect x="6" y="22" width="1" height="1" fill="#06B6D4" />
<rect x="8" y="22" width="1" height="1" fill="#15191C" />
<rect x="10" y="22" width="1" height="2" fill="#15191C" />
<rect x="11" y="22" width="2" height="4" fill="#181B1E" />
<rect x="13" y="22" width="1" height="1" fill="#06B6D4" />
<rect x="14" y="22" width="1" height="1" fill="#12BDDA" />
<rect x="16" y="22" width="1" height="3" fill="#12BDDA" />
<rect x="21" y="22" width="2" height="1" fill="#12BDDA" />
<rect x="23" y="22" width="3" height="1" fill="#181B1E" />
<rect x="27" y="22" width="1" height="2" fill="#181B1E" />
<rect x="28" y="22" width="1" height="6" fill="#15191C" />
<rect x="2" y="23" width="1" height="1" fill="#181B1E" />
<rect x="6" y="23" width="2" height="1" fill="#15191C" />
<rect x="8" y="23" width="2" height="1" fill="#181B1E" />
<rect x="13" y="23" width="1" height="5" fill="#181B1E" />
<rect x="14" y="23" width="1" height="1" fill="#06B6D4" />
<rect x="19" y="23" width="1" height="1" fill="#12BDDA" />
<rect x="21" y="23" width="1" height="1" fill="#06B6D4" />
<rect x="22" y="23" width="5" height="2" fill="#15191C" />
<rect x="30" y="23" width="1" height="1" fill="#181B1E" />
<rect x="1" y="24" width="1" height="2" fill="#8CDAFF" />
<rect x="2" y="24" width="1" height="1" fill="#15191C" />
<rect x="4" y="24" width="1" height="1" fill="#15191C" />
<rect x="5" y="24" width="3" height="1" fill="#181B1E" />
<rect x="8" y="24" width="2" height="1" fill="#15191C" />
<rect x="10" y="24" width="1" height="2" fill="#181B1E" />
<rect x="14" y="24" width="1" height="6" fill="#181B1E" />
<rect x="15" y="24" width="1" height="3" fill="#15191C" />
<rect x="18" y="24" width="1" height="1" fill="#12BDDA" />
<rect x="19" y="24" width="1" height="1" fill="#06B6D4" />
<rect x="20" y="24" width="1" height="2" fill="#181B1E" />
<rect x="21" y="24" width="1" height="5" fill="#15191C" />
<rect x="27" y="24" width="1" height="5" fill="#15191C" />
<rect x="29" y="24" width="1" height="1" fill="#181B1E" />
<rect x="30" y="24" width="1" height="2" fill="#8CDAFF" />
<rect x="2" y="25" width="1" height="1" fill="#181B1E" />
<rect x="4" y="25" width="1" height="2" fill="#181B1E" />
<rect x="5" y="25" width="4" height="1" fill="#15191C" />
<rect x="9" y="25" width="1" height="1" fill="#181B1E" />
<rect x="16" y="25" width="2" height="1" fill="#15191C" />
<rect x="18" y="25" width="1" height="2" fill="#181B1E" />
<rect x="19" y="25" width="1" height="2" fill="#15191C" />
<rect x="22" y="25" width="1" height="3" fill="#181B1E" />
<rect x="23" y="25" width="4" height="1" fill="#15191C" />
<rect x="29" y="25" width="1" height="1" fill="#15191C" />
<rect x="2" y="26" width="1" height="2" fill="#8CDAFF" />
<rect x="5" y="26" width="2" height="1" fill="#15191C" />
<rect x="7" y="26" width="1" height="1" fill="#181B1E" />
<rect x="8" y="26" width="5" height="1" fill="#15191C" />
<rect x="16" y="26" width="2" height="1" fill="#181B1E" />
<rect x="20" y="26" width="1" height="2" fill="#15191C" />
<rect x="23" y="26" width="2" height="1" fill="#181B1E" />
<rect x="25" y="26" width="2" height="3" fill="#15191C" />
<rect x="29" y="26" width="1" height="2" fill="#8CDAFF" />
<rect x="4" y="27" width="1" height="2" fill="#15191C" />
<rect x="5" y="27" width="1" height="1" fill="#181B1E" />
<rect x="6" y="27" width="6" height="1" fill="#15191C" />
<rect x="12" y="27" width="1" height="1" fill="#181B1E" />
<rect x="15" y="27" width="1" height="3" fill="#181B1E" />
<rect x="16" y="27" width="3" height="2" fill="#15191C" />
<rect x="19" y="27" width="1" height="1" fill="#181B1E" />
<rect x="23" y="27" width="2" height="1" fill="#15191C" />
<rect x="3" y="28" width="1" height="1" fill="#8CDAFF" />
<rect x="5" y="28" width="3" height="1" fill="#15191C" />
<rect x="8" y="28" width="2" height="1" fill="#181B1E" />
<rect x="10" y="28" width="1" height="1" fill="#15191C" />
<rect x="11" y="28" width="1" height="2" fill="#181B1E" />
<rect x="12" y="28" width="2" height="1" fill="#15191C" />
<rect x="19" y="28" width="1" height="3" fill="#15191C" />
<rect x="20" y="28" width="1" height="1" fill="#181B1E" />
<rect x="22" y="28" width="1" height="1" fill="#15191C" />
<rect x="23" y="28" width="2" height="1" fill="#181B1E" />
<rect x="28" y="28" width="1" height="1" fill="#8CDAFF" />
<rect x="4" y="29" width="2" height="1" fill="#8CDAFF" />
<rect x="6" y="29" width="3" height="1" fill="#15191C" />
<rect x="9" y="29" width="2" height="1" fill="#181B1E" />
<rect x="12" y="29" width="1" height="2" fill="#15191C" />
<rect x="13" y="29" width="1" height="1" fill="#181B1E" />
<rect x="16" y="29" width="2" height="2" fill="#181B1E" />
<rect x="18" y="29" width="1" height="2" fill="#15191C" />
<rect x="20" y="29" width="1" height="2" fill="#15191C" />
<rect x="21" y="29" width="2" height="1" fill="#181B1E" />
<rect x="23" y="29" width="3" height="1" fill="#15191C" />
<rect x="26" y="29" width="2" height="1" fill="#8CDAFF" />
<rect x="6" y="30" width="2" height="1" fill="#8CDAFF" />
<rect x="8" y="30" width="2" height="1" fill="#181B1E" />
<rect x="10" y="30" width="2" height="1" fill="#15191C" />
<rect x="13" y="30" width="3" height="1" fill="#15191C" />
<rect x="21" y="30" width="1" height="1" fill="#181B1E" />
<rect x="22" y="30" width="2" height="1" fill="#15191C" />
<rect x="24" y="30" width="2" height="1" fill="#8CDAFF" />
<rect x="8" y="31" width="16" height="1" fill="#8CDAFF" />
</svg>