<?xml version="1.0" encoding="UTF-8" standalone="no"?>
<svg
   viewBox="0 0 26 22"
   version="1.1"
   id="svg1"
   sodipodi:docname="icon.svg"
   width="26"
   height="22"
   inkscape:version="1.4.2 (ebf0e940d0, 2025-05-08)"
   xmlns:inkscape="http://www.inkscape.org/namespaces/inkscape"
   xmlns:sodipodi="http://sodipodi.sourceforge.net/DTD/sodipodi-0.dtd"
   xmlns="http://www.w3.org/2000/svg"
   xmlns:svg="http://www.w3.org/2000/svg">
  <defs
     id="defs1" />
  <sodipodi:namedview
     id="namedview1"
     pagecolor="#505050"
     bordercolor="#ffffff"
     borderopacity="1"
     inkscape:showpageshadow="0"
     inkscape:pageopacity="0"
     inkscape:pagecheckerboard="1"
     inkscape:deskcolor="#505050"
     inkscape:zoom="25.53125"
     inkscape:cx="12.984088"
     inkscape:cy="10.986536"
     inkscape:window-width="1920"
     inkscape:window-height="1026"
     inkscape:window-x="0"
     inkscape:window-y="22"
     inkscape:window-maximized="1"
     inkscape:current-layer="svg1" />
  <path
     d="M 11.5,0 C 7.789,0 4.44325,1.5839531 2.90625,4.0019531 1.29525,4.0519531 0,5.377 0,7 0,7.899 0.407,9.021359 1,9.818359 V 22 H 3 V 9.068359 L 2.7324219,8.78125 C 2.3004219,8.31425 2,7.469 2,7 2,6.448 2.448,6 3,6 3.065,6 3.1414687,6.01125 3.2304688,6.03125 L 4.0136719,6.21875 4.3613281,5.490234 C 5.3473281,3.4352344 8.283,2 11.5,2 h 3 c 3.217,0 6.152672,1.4352344 7.138672,3.490234 l 0.347656,0.728516 0.783203,-0.1875 C 22.858531,6.01125 22.935,6 23,6 c 0.552,0 1,0.448 1,1 0,0.469 -0.300422,1.31425 -0.732422,1.78125 L 23,9.068359 V 22 h 2 V 9.818359 C 25.593,9.021359 26,7.899 26,7 26,5.377 24.70475,4.0519531 23.09375,4.0019531 21.55675,1.5839531 18.211,0 14.5,0 Z M 7,7 a 1,1.5 0 0 0 0,3 1,1.5 0 0 0 0,-3 z m 12,0 a 1,1.5 0 0 0 0,3 1,1.5 0 0 0 0,-3 z m -6,1.017578 c -0.915,0 -1.829906,0.32325 -2.628906,0.96875 -3.5570003,2.878 -3.640719,2.94925 -3.886719,3.15625 l -0.1074219,0.08984 C 5.4889531,12.975422 5,13.959 5,15 c 0,2.206 1.794,4 4,4 1.498,0 2.914,-0.360859 4,-1.005859 C 14.086,18.639141 15.502,19 17,19 c 2.206,0 4,-1.794 4,-4 0,-1.041 -0.488953,-2.023578 -1.376953,-2.767578 l -0.107422,-0.08984 c -0.246,-0.207 -0.328719,-0.279203 -3.886719,-3.158203 C 14.830906,8.339875 13.915,8.017578 13,8.017578 Z m 0,1.986328 c 0.463375,0 0.926594,0.17861 1.371094,0.53711 3.527,2.854 3.612469,2.925859 3.855468,3.130859 l 0.113282,0.0957 C 18.640844,14.019578 19,14.437 19,15 c 0,1.103 -0.897,2 -2,2 -1.339,0 -2.599094,-0.371141 -3.371094,-0.994141 L 13.033203,15.525391 C 13.107831,14.656302 13.386231,14 14,14 15.105,14 16,13.798437 16,13.273438 16,12.569437 14.657,12 13,12 11.343,12 10,12.569437 10,13.273438 10,13.798437 10.895,14 12,14 c 0.613769,0 0.892169,0.656302 0.966797,1.525391 l -0.595703,0.480468 C 11.599094,16.628859 10.339,17 9,17 7.897,17 7,16.103 7,15 7,14.438 7.359109,14.019578 7.662109,13.767578 l 0.113282,-0.0957 c 0.244,-0.205 0.327515,-0.275906 3.853515,-3.128906 0.445,-0.3595 0.907719,-0.539063 1.371094,-0.539063 z"
     id="path1"
     style="fill:#1d79f1;fill-opacity:0.95" />
  <path
     style="fill:#000000;fill-opacity:0;stroke-width:0.0391677"
     d="M 1.0138498,15.886169 1.0130117,9.805386 0.835052,9.531212 C 0.4922665,9.003099 0.2056005,8.290081 0.0913874,7.681513 -0.0045679,7.170229 0.0278809,6.497668 0.1684401,6.084455 0.3620364,5.515326 0.7765717,4.943387 1.2443577,4.6000004 1.6544311,4.2989787 2.3782272,4.0292222 2.777973,4.0284263 2.907119,4.028169 2.9317866,4.0054827 3.1696499,3.6682086 3.4587579,3.2582731 4.0646592,2.6284077 4.5072153,2.2777415 6.0343234,1.0677129 8.081106,0.291132 10.314024,0.074548 c 0.562691,-0.054579 4.809261,-0.054579 5.371952,0 1.872917,0.1816653 3.6449,0.7663858 5.069226,1.6727476 0.761838,0.4847916 1.632347,1.2901577 2.075148,1.9198587 0.238017,0.3384804 0.262448,0.3610147 0.391677,0.361272 0.0758,1.508e-4 0.284947,0.035544 0.464762,0.078651 0.991687,0.2377381 1.809483,0.9917067 2.144771,1.9773777 0.140559,0.413213 0.173008,1.085774 0.07705,1.597058 C 25.794025,8.29207 25.4693,9.085657 25.124633,9.597457 L 24.98531,9.80434 v 6.081306 6.081306 H 24.00612 23.026928 V 15.511612 9.056271 L 23.148417,8.941232 C 23.609586,8.50455 24.00612,7.608732 24.00612,7.003581 24.00612,6.553308 23.751763,6.184884 23.345278,6.04638 23.101965,5.96348 22.957054,5.97026 22.447015,6.08844 22.20346,6.14488 21.99861,6.18469 21.991792,6.17692 21.984992,6.16912 21.881109,5.955013 21.760982,5.701065 21.477828,5.102473 21.252058,4.7674019 20.840443,4.3348649 19.874925,3.3202701 18.407076,2.5683844 16.699818,2.2138851 c -0.964369,-0.200244 -1.0125,-0.2028692 -3.719402,-0.2028692 -2.253449,0 -2.595391,0.00801 -2.976744,0.069713 C 7.888607,2.4229586 6.2560396,3.1826491 5.1595566,4.3348649 4.7479418,4.7674019 4.5221722,5.102473 4.2390177,5.701066 4.1188912,5.955014 4.0150271,6.169149 4.0082084,6.176921 4.0013884,6.184721 3.7965395,6.144881 3.5529852,6.088441 3.0429458,5.970261 2.8980352,5.963475 2.6547225,6.046381 2.2482364,6.184885 1.99388,6.553309 1.99388,7.003582 c 0,0.59912 0.3882848,1.48784 0.8381646,1.918423 l 0.1410276,0.134978 v 6.454985 6.454985 H 1.99388 1.0146879 Z"
     id="path2" />
  <path
     style="fill:#800080;fill-opacity:0;stroke-width:0.0391677"
     d="M 1.0138498,15.886169 1.0130117,9.805386 0.835052,9.531212 C 0.4922665,9.003099 0.2056005,8.290081 0.0913874,7.681513 -0.0045679,7.170229 0.0278809,6.497668 0.1684401,6.084455 0.3620364,5.515326 0.7765717,4.943387 1.2443577,4.6000004 1.6544311,4.2989787 2.3782272,4.0292222 2.777973,4.0284263 2.907119,4.028169 2.9317866,4.0054827 3.1696499,3.6682086 3.4587579,3.2582731 4.0646592,2.6284077 4.5072153,2.2777415 6.0343234,1.0677129 8.081106,0.291132 10.314024,0.074548 c 0.562691,-0.054579 4.809261,-0.054579 5.371952,0 1.872917,0.1816653 3.6449,0.7663858 5.069226,1.6727476 0.761838,0.4847916 1.632347,1.2901577 2.075148,1.9198587 0.238017,0.3384804 0.262448,0.3610147 0.391677,0.361272 0.0758,1.508e-4 0.284947,0.035544 0.464762,0.078651 0.991687,0.2377381 1.809483,0.9917067 2.144771,1.9773777 0.140559,0.413213 0.173008,1.085774 0.07705,1.597058 C 25.794025,8.29207 25.4693,9.085657 25.124633,9.597457 L 24.98531,9.80434 v 6.081306 6.081306 H 24.00612 23.026928 V 15.511612 9.056271 L 23.148417,8.941232 C 23.609586,8.50455 24.00612,7.608732 24.00612,7.003581 24.00612,6.553308 23.751763,6.184884 23.345278,6.04638 23.101965,5.96348 22.957054,5.97026 22.447015,6.08844 22.20346,6.14488 21.99861,6.18469 21.991792,6.17692 21.984992,6.16912 21.881109,5.955013 21.760982,5.701065 21.477828,5.102473 21.252058,4.7674019 20.840443,4.3348649 19.874925,3.3202701 18.407076,2.5683844 16.699818,2.2138851 c -0.964369,-0.200244 -1.0125,-0.2028692 -3.719402,-0.2028692 -2.253449,0 -2.595391,0.00801 -2.976744,0.069713 C 7.888607,2.4229586 6.2560396,3.1826491 5.1595566,4.3348649 4.7479418,4.7674019 4.5221722,5.102473 4.2390177,5.701066 4.1188912,5.955014 4.0150271,6.169149 4.0082084,6.176921 4.0013884,6.184721 3.7965395,6.144881 3.5529852,6.088441 3.0429458,5.970261 2.8980352,5.963475 2.6547225,6.046381 2.2482364,6.184885 1.99388,6.553309 1.99388,7.003582 c 0,0.59912 0.3882848,1.48784 0.8381646,1.918423 l 0.1410276,0.134978 v 6.454985 6.454985 H 1.99388 1.0146879 Z"
     id="path3" />
  <path
     style="fill:#800080;fill-opacity:0;stroke-width:0.0391677"
     d="M 1.0138498,15.886169 1.0130117,9.805386 0.835052,9.531212 C 0.4922665,9.003099 0.2056005,8.290081 0.0913874,7.681513 -0.0045679,7.170229 0.0278809,6.497668 0.1684401,6.084455 0.3620364,5.515326 0.7765717,4.943387 1.2443577,4.6000004 1.6544311,4.2989787 2.3782272,4.0292222 2.777973,4.0284263 2.907119,4.028169 2.9317866,4.0054827 3.1696499,3.6682086 3.4587579,3.2582731 4.0646592,2.6284077 4.5072153,2.2777415 6.0343234,1.0677129 8.081106,0.291132 10.314024,0.074548 c 0.562691,-0.054579 4.809261,-0.054579 5.371952,0 1.872917,0.1816653 3.6449,0.7663858 5.069226,1.6727476 0.761838,0.4847916 1.632347,1.2901577 2.075148,1.9198587 0.238017,0.3384804 0.262448,0.3610147 0.391677,0.361272 0.0758,1.508e-4 0.284947,0.035544 0.464762,0.078651 0.991687,0.2377381 1.809483,0.9917067 2.144771,1.9773777 0.140559,0.413213 0.173008,1.085774 0.07705,1.597058 C 25.794025,8.29207 25.4693,9.085657 25.124633,9.597457 L 24.98531,9.80434 v 6.081306 6.081306 H 24.00612 23.026928 V 15.511612 9.056271 L 23.148417,8.941232 C 23.609586,8.50455 24.00612,7.608732 24.00612,7.003581 24.00612,6.553308 23.751763,6.184884 23.345278,6.04638 23.101965,5.96348 22.957054,5.97026 22.447015,6.08844 22.20346,6.14488 21.99861,6.18469 21.991792,6.17692 21.984992,6.16912 21.881109,5.955013 21.760982,5.701065 21.477828,5.102473 21.252058,4.7674019 20.840443,4.3348649 19.874925,3.3202701 18.407076,2.5683844 16.699818,2.2138851 c -0.964369,-0.200244 -1.0125,-0.2028692 -3.719402,-0.2028692 -2.253449,0 -2.595391,0.00801 -2.976744,0.069713 C 7.888607,2.4229586 6.2560396,3.1826491 5.1595566,4.3348649 4.7479418,4.7674019 4.5221722,5.102473 4.2390177,5.701066 4.1188912,5.955014 4.0150271,6.169149 4.0082084,6.176921 4.0013884,6.184721 3.7965395,6.144881 3.5529852,6.088441 3.0429458,5.970261 2.8980352,5.963475 2.6547225,6.046381 2.2482364,6.184885 1.99388,6.553309 1.99388,7.003582 c 0,0.59912 0.3882848,1.48784 0.8381646,1.918423 l 0.1410276,0.134978 v 6.454985 6.454985 H 1.99388 1.0146879 Z"
     id="path4" />
  <path
     style="fill:#800080;fill-opacity:0;stroke-width:0.0391677"
     d="M 1.0138498,15.886169 1.0130117,9.805386 0.835052,9.531212 C 0.4922665,9.003099 0.2056005,8.290081 0.0913874,7.681513 -0.0045679,7.170229 0.0278809,6.497668 0.1684401,6.084455 0.3620364,5.515326 0.7765717,4.943387 1.2443577,4.6000004 1.6544311,4.2989787 2.3782272,4.0292222 2.777973,4.0284263 2.907119,4.028169 2.9317866,4.0054827 3.1696499,3.6682086 3.4587579,3.2582731 4.0646592,2.6284077 4.5072153,2.2777415 6.0343234,1.0677129 8.081106,0.291132 10.314024,0.074548 c 0.562691,-0.054579 4.809261,-0.054579 5.371952,0 1.872917,0.1816653 3.6449,0.7663858 5.069226,1.6727476 0.761838,0.4847916 1.632347,1.2901577 2.075148,1.9198587 0.238017,0.3384804 0.262448,0.3610147 0.391677,0.361272 0.0758,1.508e-4 0.284947,0.035544 0.464762,0.078651 0.991687,0.2377381 1.809483,0.9917067 2.144771,1.9773777 0.140559,0.413213 0.173008,1.085774 0.07705,1.597058 C 25.794025,8.29207 25.4693,9.085657 25.124633,9.597457 L 24.98531,9.80434 v 6.081306 6.081306 H 24.00612 23.026928 V 15.511612 9.056271 L 23.148417,8.941232 C 23.609586,8.50455 24.00612,7.608732 24.00612,7.003581 24.00612,6.553308 23.751763,6.184884 23.345278,6.04638 23.101965,5.96348 22.957054,5.97026 22.447015,6.08844 22.20346,6.14488 21.99861,6.18469 21.991792,6.17692 21.984992,6.16912 21.881109,5.955013 21.760982,5.701065 21.477828,5.102473 21.252058,4.7674019 20.840443,4.3348649 19.874925,3.3202701 18.407076,2.5683844 16.699818,2.2138851 c -0.964369,-0.200244 -1.0125,-0.2028692 -3.719402,-0.2028692 -2.253449,0 -2.595391,0.00801 -2.976744,0.069713 C 7.888607,2.4229586 6.2560396,3.1826491 5.1595566,4.3348649 4.7479418,4.7674019 4.5221722,5.102473 4.2390177,5.701066 4.1188912,5.955014 4.0150271,6.169149 4.0082084,6.176921 4.0013884,6.184721 3.7965395,6.144881 3.5529852,6.088441 3.0429458,5.970261 2.8980352,5.963475 2.6547225,6.046381 2.2482364,6.184885 1.99388,6.553309 1.99388,7.003582 c 0,0.59912 0.3882848,1.48784 0.8381646,1.918423 l 0.1410276,0.134978 v 6.454985 6.454985 H 1.99388 1.0146879 Z"
     id="path5" />
  <path
     style="fill:#800080;fill-opacity:0;stroke-width:0.0391677"
     d="m 8.652387,18.968314 c -0.05386,-0.0093 -0.220303,-0.03676 -0.369883,-0.06113 -1.3770189,-0.224332 -2.6307728,-1.32653 -3.0688556,-2.697882 -0.1408118,-0.44079 -0.1800822,-0.709913 -0.1771757,-1.214198 0.00423,-0.73375 0.1840646,-1.306721 0.6044127,-1.925711 0.3303069,-0.486399 0.6809387,-0.787746 4.4998736,-3.86738 0.920226,-0.742081 1.567232,-1.038102 2.49694,-1.142411 0.828387,-0.09294 1.797349,0.149728 2.543944,0.63711 0.271821,0.177447 3.153322,2.488018 4.243818,3.402965 0.84575,0.709599 1.266025,1.330795 1.473221,2.177526 0.07939,0.324422 0.08911,1.101862 0.01803,1.442503 -0.304342,1.458656 -1.337653,2.629072 -2.707412,3.066646 -0.473304,0.151198 -0.708926,0.182519 -1.351285,0.179622 -1.254808,-0.0057 -2.481536,-0.286923 -3.489366,-0.80004 L 13,17.978243 12.631349,18.165934 c -0.678305,0.345346 -1.50485,0.598515 -2.353642,0.720914 -0.432387,0.06235 -1.44199,0.112957 -1.62532,0.08147 z m 0.92044,-1.978082 c 0.862863,-0.07487 1.602997,-0.27182 2.212975,-0.588871 0.273323,-0.142066 0.432968,-0.253629 0.996269,-0.69621 L 13,15.533925 l 0.217929,0.171226 c 0.119862,0.09417 0.326961,0.25584 0.460221,0.359258 0.516821,0.401085 1.398165,0.742454 2.249002,0.871101 0.601102,0.09089 1.337475,0.09228 1.635883,0.0031 0.865065,-0.258548 1.437183,-1.02159 1.443212,-1.924831 0.0018,-0.27281 -0.0141,-0.348872 -0.120703,-0.576678 -0.208275,-0.445073 -0.136686,-0.38087 -3.103757,-2.783559 -1.736354,-1.406074 -1.955961,-1.55031 -2.497821,-1.640547 -0.512862,-0.08541 -1.08239,0.07696 -1.575291,0.449104 -0.118442,0.08942 -0.867779,0.69067 -1.665194,1.336102 -2.754141,2.229217 -2.725035,2.202984 -2.929816,2.640589 -0.105247,0.224908 -0.1218428,0.303815 -0.120929,0.574967 0.00339,1.005277 0.720768,1.833308 1.714568,1.979027 0.290335,0.04257 0.347556,0.0424 0.865523,-0.0025 z"
     id="path6" />
  <path
     style="fill:#a02c2c;fill-opacity:0;stroke-width:0.0391677"
     d="m 8.652387,18.968314 c -0.05386,-0.0093 -0.220303,-0.03676 -0.369883,-0.06113 -1.3770189,-0.224332 -2.6307728,-1.32653 -3.0688556,-2.697882 -0.1408118,-0.44079 -0.1800822,-0.709913 -0.1771757,-1.214198 0.00423,-0.73375 0.1840646,-1.306721 0.6044127,-1.925711 0.3303069,-0.486399 0.6809387,-0.787746 4.4998736,-3.86738 0.920226,-0.742081 1.567232,-1.038102 2.49694,-1.142411 0.828387,-0.09294 1.797349,0.149728 2.543944,0.63711 0.271821,0.177447 3.153322,2.488018 4.243818,3.402965 0.84575,0.709599 1.266025,1.330795 1.473221,2.177526 0.07939,0.324422 0.08911,1.101862 0.01803,1.442503 -0.304342,1.458656 -1.337653,2.629072 -2.707412,3.066646 -0.473304,0.151198 -0.708926,0.182519 -1.351285,0.179622 -1.254808,-0.0057 -2.481536,-0.286923 -3.489366,-0.80004 L 13,17.978243 12.631349,18.165934 c -0.678305,0.345346 -1.50485,0.598515 -2.353642,0.720914 -0.432387,0.06235 -1.44199,0.112957 -1.62532,0.08147 z m 0.92044,-1.978082 c 0.862863,-0.07487 1.602997,-0.27182 2.212975,-0.588871 0.273323,-0.142066 0.432968,-0.253629 0.996269,-0.69621 L 13,15.533925 l 0.217929,0.171226 c 0.119862,0.09417 0.326961,0.25584 0.460221,0.359258 0.516821,0.401085 1.398165,0.742454 2.249002,0.871101 0.601102,0.09089 1.337475,0.09228 1.635883,0.0031 0.865065,-0.258548 1.437183,-1.02159 1.443212,-1.924831 0.0018,-0.27281 -0.0141,-0.348872 -0.120703,-0.576678 -0.208275,-0.445073 -0.136686,-0.38087 -3.103757,-2.783559 -1.736354,-1.406074 -1.955961,-1.55031 -2.497821,-1.640547 -0.512862,-0.08541 -1.08239,0.07696 -1.575291,0.449104 -0.118442,0.08942 -0.867779,0.69067 -1.665194,1.336102 -2.754141,2.229217 -2.725035,2.202984 -2.929816,2.640589 -0.105247,0.224908 -0.1218428,0.303815 -0.120929,0.574967 0.00339,1.005277 0.720768,1.833308 1.714568,1.979027 0.290335,0.04257 0.347556,0.0424 0.865523,-0.0025 z"
     id="path7" />
  <path
     style="fill:#a02c2c;fill-opacity:0;stroke-width:0.0391677"
     d="m 8.652387,18.968314 c -0.05386,-0.0093 -0.220303,-0.03676 -0.369883,-0.06113 -1.3770189,-0.224332 -2.6307728,-1.32653 -3.0688556,-2.697882 -0.1408118,-0.44079 -0.1800822,-0.709913 -0.1771757,-1.214198 0.00423,-0.73375 0.1840646,-1.306721 0.6044127,-1.925711 0.3303069,-0.486399 0.6809387,-0.787746 4.4998736,-3.86738 0.920226,-0.742081 1.567232,-1.038102 2.49694,-1.142411 0.828387,-0.09294 1.797349,0.149728 2.543944,0.63711 0.271821,0.177447 3.153322,2.488018 4.243818,3.402965 0.84575,0.709599 1.266025,1.330795 1.473221,2.177526 0.07939,0.324422 0.08911,1.101862 0.01803,1.442503 -0.304342,1.458656 -1.337653,2.629072 -2.707412,3.066646 -0.473304,0.151198 -0.708926,0.182519 -1.351285,0.179622 -1.254808,-0.0057 -2.481536,-0.286923 -3.489366,-0.80004 L 13,17.978243 12.631349,18.165934 c -0.678305,0.345346 -1.50485,0.598515 -2.353642,0.720914 -0.432387,0.06235 -1.44199,0.112957 -1.62532,0.08147 z m 0.92044,-1.978082 c 0.862863,-0.07487 1.602997,-0.27182 2.212975,-0.588871 0.273323,-0.142066 0.432968,-0.253629 0.996269,-0.69621 L 13,15.533925 l 0.217929,0.171226 c 0.119862,0.09417 0.326961,0.25584 0.460221,0.359258 0.516821,0.401085 1.398165,0.742454 2.249002,0.871101 0.601102,0.09089 1.337475,0.09228 1.635883,0.0031 0.865065,-0.258548 1.437183,-1.02159 1.443212,-1.924831 0.0018,-0.27281 -0.0141,-0.348872 -0.120703,-0.576678 -0.208275,-0.445073 -0.136686,-0.38087 -3.103757,-2.783559 -1.736354,-1.406074 -1.955961,-1.55031 -2.497821,-1.640547 -0.512862,-0.08541 -1.08239,0.07696 -1.575291,0.449104 -0.118442,0.08942 -0.867779,0.69067 -1.665194,1.336102 -2.754141,2.229217 -2.725035,2.202984 -2.929816,2.640589 -0.105247,0.224908 -0.1218428,0.303815 -0.120929,0.574967 0.00339,1.005277 0.720768,1.833308 1.714568,1.979027 0.290335,0.04257 0.347556,0.0424 0.865523,-0.0025 z"
     id="path8" />
  <path
     style="fill:#a02c2c;fill-opacity:0;stroke-width:0.0391677"
     d="m 8.652387,18.968314 c -0.05386,-0.0093 -0.220303,-0.03676 -0.369883,-0.06113 -1.3770189,-0.224332 -2.6307728,-1.32653 -3.0688556,-2.697882 -0.1408118,-0.44079 -0.1800822,-0.709913 -0.1771757,-1.214198 0.00423,-0.73375 0.1840646,-1.306721 0.6044127,-1.925711 0.3303069,-0.486399 0.6809387,-0.787746 4.4998736,-3.86738 0.920226,-0.742081 1.567232,-1.038102 2.49694,-1.142411 0.828387,-0.09294 1.797349,0.149728 2.543944,0.63711 0.271821,0.177447 3.153322,2.488018 4.243818,3.402965 0.84575,0.709599 1.266025,1.330795 1.473221,2.177526 0.07939,0.324422 0.08911,1.101862 0.01803,1.442503 -0.304342,1.458656 -1.337653,2.629072 -2.707412,3.066646 -0.473304,0.151198 -0.708926,0.182519 -1.351285,0.179622 -1.254808,-0.0057 -2.481536,-0.286923 -3.489366,-0.80004 L 13,17.978243 12.631349,18.165934 c -0.678305,0.345346 -1.50485,0.598515 -2.353642,0.720914 -0.432387,0.06235 -1.44199,0.112957 -1.62532,0.08147 z m 0.92044,-1.978082 c 0.862863,-0.07487 1.602997,-0.27182 2.212975,-0.588871 0.273323,-0.142066 0.432968,-0.253629 0.996269,-0.69621 L 13,15.533925 l 0.217929,0.171226 c 0.119862,0.09417 0.326961,0.25584 0.460221,0.359258 0.516821,0.401085 1.398165,0.742454 2.249002,0.871101 0.601102,0.09089 1.337475,0.09228 1.635883,0.0031 0.865065,-0.258548 1.437183,-1.02159 1.443212,-1.924831 0.0018,-0.27281 -0.0141,-0.348872 -0.120703,-0.576678 -0.208275,-0.445073 -0.136686,-0.38087 -3.103757,-2.783559 -1.736354,-1.406074 -1.955961,-1.55031 -2.497821,-1.640547 -0.512862,-0.08541 -1.08239,0.07696 -1.575291,0.449104 -0.118442,0.08942 -0.867779,0.69067 -1.665194,1.336102 -2.754141,2.229217 -2.725035,2.202984 -2.929816,2.640589 -0.105247,0.224908 -0.1218428,0.303815 -0.120929,0.574967 0.00339,1.005277 0.720768,1.833308 1.714568,1.979027 0.290335,0.04257 0.347556,0.0424 0.865523,-0.0025 z"
     id="path9" />
</svg>
