<?xml version="1.0" encoding="UTF-8" ?>
<svg version="1.1" width="32" height="32" xmlns="http://www.w3.org/2000/svg" shape-rendering="crispEdges">
<rect x="8" y="0" width="16" height="1" fill="#C4ECFF" />
<rect x="6" y="1" width="2" height="1" fill="#C4ECFF" />
<rect x="8" y="1" width="16" height="3" fill="#394AAB" />
<rect x="24" y="1" width="2" height="1" fill="#8CDAFF" />
<rect x="4" y="2" width="2" height="1" fill="#C4ECFF" />
<rect x="6" y="2" width="2" height="6" fill="#394AAB" />
<rect x="24" y="2" width="2" height="6" fill="#394AAB" />
<rect x="26" y="2" width="2" height="1" fill="#8CDAFF" />
<rect x="3" y="3" width="1" height="1" fill="#C4ECFF" />
<rect x="4" y="3" width="2" height="8" fill="#394AAB" />
<rect x="26" y="3" width="2" height="26" fill="#394AAB" />
<rect x="28" y="3" width="1" height="1" fill="#8CDAFF" />
<rect x="2" y="4" width="1" height="2" fill="#C4ECFF" />
<rect x="3" y="4" width="1" height="24" fill="#394AAB" />
<rect x="8" y="4" width="5" height="1" fill="#394AAB" />
<rect x="13" y="4" width="6" height="6" fill="#D5D9DF" />
<rect x="19" y="4" width="5" height="1" fill="#394AAB" />
<rect x="28" y="4" width="1" height="24" fill="#394AAB" />
<rect x="29" y="4" width="1" height="2" fill="#8CDAFF" />
<rect x="8" y="5" width="3" height="1" fill="#394AAB" />
<rect x="11" y="5" width="2" height="6" fill="#D5D9DF" />
<rect x="19" y="5" width="2" height="6" fill="#D5D9DF" />
<rect x="21" y="5" width="3" height="1" fill="#394AAB" />
<rect x="1" y="6" width="1" height="2" fill="#C4ECFF" />
<rect x="2" y="6" width="1" height="20" fill="#394AAB" />
<rect x="8" y="6" width="1" height="1" fill="#394AAB" />
<rect x="9" y="6" width="2" height="7" fill="#D5D9DF" />
<rect x="21" y="6" width="2" height="7" fill="#D5D9DF" />
<rect x="23" y="6" width="1" height="1" fill="#394AAB" />
<rect x="29" y="6" width="1" height="20" fill="#394AAB" />
<rect x="30" y="6" width="1" height="2" fill="#8CDAFF" />
<rect x="8" y="7" width="1" height="18" fill="#D5D9DF" />
<rect x="23" y="7" width="1" height="7" fill="#D5D9DF" />
<rect x="0" y="8" width="1" height="16" fill="#C4ECFF" />
<rect x="1" y="8" width="1" height="16" fill="#394AAB" />
<rect x="6" y="8" width="1" height="1" fill="#394AAB" />
<rect x="7" y="8" width="1" height="16" fill="#D5D9DF" />
<rect x="24" y="8" width="1" height="5" fill="#D5D9DF" />
<rect x="25" y="8" width="1" height="1" fill="#394AAB" />
<rect x="30" y="8" width="1" height="16" fill="#394AAB" />
<rect x="31" y="8" width="1" height="16" fill="#8CDAFF" />
<rect x="6" y="9" width="1" height="14" fill="#D5D9DF" />
<rect x="25" y="9" width="1" height="3" fill="#D5D9DF" />
<rect x="13" y="10" width="6" height="12" fill="#394AAB" />
<rect x="4" y="11" width="1" height="2" fill="#394AAB" />
<rect x="5" y="11" width="1" height="10" fill="#D5D9DF" />
<rect x="11" y="11" width="2" height="10" fill="#394AAB" />
<rect x="19" y="11" width="2" height="10" fill="#394AAB" />
<rect x="25" y="12" width="1" height="8" fill="#394AAB" />
<rect x="4" y="13" width="1" height="6" fill="#D5D9DF" />
<rect x="9" y="13" width="1" height="13" fill="#D5D9DF" />
<rect x="10" y="13" width="1" height="6" fill="#394AAB" />
<rect x="21" y="13" width="1" height="6" fill="#394AAB" />
<rect x="22" y="13" width="1" height="1" fill="#D5D9DF" />
<rect x="24" y="13" width="1" height="6" fill="#394AAB" />
<rect x="22" y="14" width="2" height="4" fill="#394AAB" />
<rect x="22" y="18" width="2" height="7" fill="#D5D9DF" />
<rect x="4" y="19" width="1" height="10" fill="#394AAB" />
<rect x="10" y="19" width="1" height="7" fill="#D5D9DF" />
<rect x="21" y="19" width="1" height="7" fill="#D5D9DF" />
<rect x="24" y="19" width="1" height="5" fill="#D5D9DF" />
<rect x="25" y="20" width="1" height="3" fill="#D5D9DF" />
<rect x="5" y="21" width="1" height="8" fill="#394AAB" />
<rect x="11" y="21" width="2" height="6" fill="#D5D9DF" />
<rect x="19" y="21" width="2" height="6" fill="#D5D9DF" />
<rect x="13" y="22" width="6" height="6" fill="#D5D9DF" />
<rect x="6" y="23" width="1" height="7" fill="#394AAB" />
<rect x="25" y="23" width="1" height="7" fill="#394AAB" />
<rect x="1" y="24" width="1" height="2" fill="#8CDAFF" />
<rect x="7" y="24" width="1" height="6" fill="#394AAB" />
<rect x="24" y="24" width="1" height="6" fill="#394AAB" />
<rect x="30" y="24" width="1" height="2" fill="#8CDAFF" />
<rect x="8" y="25" width="1" height="6" fill="#394AAB" />
<rect x="22" y="25" width="1" height="1" fill="#D5D9DF" />
<rect x="23" y="25" width="1" height="6" fill="#394AAB" />
<rect x="2" y="26" width="1" height="2" fill="#8CDAFF" />
<rect x="9" y="26" width="2" height="5" fill="#394AAB" />
<rect x="21" y="26" width="2" height="5" fill="#394AAB" />
<rect x="29" y="26" width="1" height="2" fill="#8CDAFF" />
<rect x="11" y="27" width="2" height="4" fill="#394AAB" />
<rect x="19" y="27" width="2" height="4" fill="#394AAB" />
<rect x="3" y="28" width="1" height="1" fill="#8CDAFF" />
<rect x="13" y="28" width="6" height="3" fill="#394AAB" />
<rect x="28" y="28" width="1" height="1" fill="#8CDAFF" />
<rect x="4" y="29" width="2" height="1" fill="#8CDAFF" />
<rect x="26" y="29" width="2" height="1" fill="#8CDAFF" />
<rect x="6" y="30" width="2" height="1" fill="#8CDAFF" />
<rect x="24" y="30" width="2" height="1" fill="#8CDAFF" />
<rect x="8" y="31" width="16" height="1" fill="#8CDAFF" />
</svg>