<?xml version="1.0" encoding="UTF-8" ?>
<svg version="1.1" width="32" height="32" xmlns="http://www.w3.org/2000/svg" shape-rendering="crispEdges">
<rect x="8" y="0" width="16" height="1" fill="#C4ECFF" />
<rect x="6" y="1" width="2" height="1" fill="#C4ECFF" />
<rect x="8" y="1" width="16" height="5" fill="#1775BB" />
<rect x="24" y="1" width="2" height="1" fill="#8CDAFF" />
<rect x="4" y="2" width="2" height="1" fill="#C4ECFF" />
<rect x="6" y="2" width="2" height="5" fill="#1775BB" />
<rect x="24" y="2" width="2" height="5" fill="#1775BB" />
<rect x="26" y="2" width="2" height="1" fill="#8CDAFF" />
<rect x="3" y="3" width="1" height="1" fill="#C4ECFF" />
<rect x="4" y="3" width="2" height="4" fill="#1775BB" />
<rect x="26" y="3" width="2" height="4" fill="#1775BB" />
<rect x="28" y="3" width="1" height="1" fill="#8CDAFF" />
<rect x="2" y="4" width="1" height="2" fill="#C4ECFF" />
<rect x="3" y="4" width="1" height="24" fill="#1775BB" />
<rect x="28" y="4" width="1" height="24" fill="#1775BB" />
<rect x="29" y="4" width="1" height="2" fill="#8CDAFF" />
<rect x="1" y="6" width="1" height="2" fill="#C4ECFF" />
<rect x="2" y="6" width="1" height="20" fill="#1775BB" />
<rect x="8" y="6" width="1" height="1" fill="#1775BB" />
<rect x="9" y="6" width="15" height="4" fill="#D5D9DF" />
<rect x="29" y="6" width="1" height="20" fill="#1775BB" />
<rect x="30" y="6" width="1" height="2" fill="#8CDAFF" />
<rect x="4" y="7" width="1" height="1" fill="#1775BB" />
<rect x="5" y="7" width="4" height="3" fill="#D5D9DF" />
<rect x="24" y="7" width="3" height="12" fill="#D5D9DF" />
<rect x="27" y="7" width="1" height="1" fill="#1775BB" />
<rect x="0" y="8" width="1" height="16" fill="#C4ECFF" />
<rect x="1" y="8" width="1" height="16" fill="#1775BB" />
<rect x="4" y="8" width="1" height="2" fill="#D5D9DF" />
<rect x="27" y="8" width="1" height="4" fill="#D5D9DF" />
<rect x="30" y="8" width="1" height="16" fill="#1775BB" />
<rect x="31" y="8" width="1" height="16" fill="#8CDAFF" />
<rect x="4" y="10" width="13" height="3" fill="#1775BB" />
<rect x="17" y="10" width="7" height="1" fill="#D5D9DF" />
<rect x="17" y="11" width="6" height="2" fill="#1775BB" />
<rect x="23" y="11" width="1" height="14" fill="#D5D9DF" />
<rect x="27" y="12" width="1" height="17" fill="#1775BB" />
<rect x="4" y="13" width="1" height="16" fill="#1775BB" />
<rect x="5" y="13" width="7" height="3" fill="#D5D9DF" />
<rect x="12" y="13" width="3" height="1" fill="#1775BB" />
<rect x="15" y="13" width="8" height="4" fill="#D5D9DF" />
<rect x="12" y="14" width="3" height="4" fill="#D5D9DF" />
<rect x="5" y="16" width="1" height="13" fill="#1775BB" />
<rect x="6" y="16" width="6" height="1" fill="#D5D9DF" />
<rect x="6" y="17" width="5" height="2" fill="#1775BB" />
<rect x="11" y="17" width="1" height="1" fill="#D5D9DF" />
<rect x="15" y="17" width="4" height="1" fill="#D5D9DF" />
<rect x="19" y="17" width="4" height="1" fill="#1775BB" />
<rect x="11" y="18" width="11" height="3" fill="#1775BB" />
<rect x="22" y="18" width="1" height="7" fill="#D5D9DF" />
<rect x="6" y="19" width="3" height="4" fill="#D5D9DF" />
<rect x="9" y="19" width="2" height="1" fill="#1775BB" />
<rect x="24" y="19" width="2" height="4" fill="#D5D9DF" />
<rect x="26" y="19" width="1" height="10" fill="#1775BB" />
<rect x="9" y="20" width="1" height="5" fill="#D5D9DF" />
<rect x="10" y="20" width="1" height="1" fill="#1775BB" />
<rect x="10" y="21" width="4" height="4" fill="#D5D9DF" />
<rect x="14" y="21" width="4" height="1" fill="#1775BB" />
<rect x="18" y="21" width="4" height="4" fill="#D5D9DF" />
<rect x="14" y="22" width="4" height="4" fill="#D5D9DF" />
<rect x="6" y="23" width="1" height="7" fill="#1775BB" />
<rect x="7" y="23" width="2" height="1" fill="#D5D9DF" />
<rect x="24" y="23" width="1" height="1" fill="#D5D9DF" />
<rect x="25" y="23" width="1" height="7" fill="#1775BB" />
<rect x="1" y="24" width="1" height="2" fill="#8CDAFF" />
<rect x="7" y="24" width="1" height="6" fill="#1775BB" />
<rect x="8" y="24" width="1" height="1" fill="#D5D9DF" />
<rect x="24" y="24" width="1" height="6" fill="#1775BB" />
<rect x="30" y="24" width="1" height="2" fill="#8CDAFF" />
<rect x="8" y="25" width="5" height="6" fill="#1775BB" />
<rect x="13" y="25" width="1" height="1" fill="#D5D9DF" />
<rect x="18" y="25" width="2" height="1" fill="#D5D9DF" />
<rect x="20" y="25" width="4" height="6" fill="#1775BB" />
<rect x="2" y="26" width="1" height="2" fill="#8CDAFF" />
<rect x="13" y="26" width="7" height="5" fill="#1775BB" />
<rect x="29" y="26" width="1" height="2" fill="#8CDAFF" />
<rect x="3" y="28" width="1" height="1" fill="#8CDAFF" />
<rect x="28" y="28" width="1" height="1" fill="#8CDAFF" />
<rect x="4" y="29" width="2" height="1" fill="#8CDAFF" />
<rect x="26" y="29" width="2" height="1" fill="#8CDAFF" />
<rect x="6" y="30" width="2" height="1" fill="#8CDAFF" />
<rect x="24" y="30" width="2" height="1" fill="#8CDAFF" />
<rect x="8" y="31" width="16" height="1" fill="#8CDAFF" />
</svg>