<?xml version="1.0" encoding="UTF-8" ?>
<svg version="1.1" width="32" height="32" xmlns="http://www.w3.org/2000/svg" shape-rendering="crispEdges">
<rect x="8" y="0" width="16" height="1" fill="#C4ECFF" />
<rect x="6" y="1" width="2" height="1" fill="#C4ECFF" />
<rect x="8" y="1" width="16" height="5" fill="#000000" />
<rect x="24" y="1" width="2" height="1" fill="#8CDAFF" />
<rect x="4" y="2" width="2" height="1" fill="#C4ECFF" />
<rect x="6" y="2" width="2" height="4" fill="#000000" />
<rect x="24" y="2" width="2" height="4" fill="#000000" />
<rect x="26" y="2" width="2" height="1" fill="#8CDAFF" />
<rect x="3" y="3" width="1" height="1" fill="#C4ECFF" />
<rect x="4" y="3" width="2" height="6" fill="#000000" />
<rect x="26" y="3" width="2" height="4" fill="#000000" />
<rect x="28" y="3" width="1" height="1" fill="#8CDAFF" />
<rect x="2" y="4" width="1" height="2" fill="#C4ECFF" />
<rect x="3" y="4" width="1" height="24" fill="#000000" />
<rect x="28" y="4" width="1" height="22" fill="#000000" />
<rect x="29" y="4" width="1" height="2" fill="#8CDAFF" />
<rect x="1" y="6" width="1" height="2" fill="#C4ECFF" />
<rect x="2" y="6" width="1" height="20" fill="#000000" />
<rect x="6" y="6" width="1" height="1" fill="#000000" />
<rect x="7" y="6" width="2" height="18" fill="#D5D9DF" />
<rect x="9" y="6" width="15" height="1" fill="#000000" />
<rect x="24" y="6" width="2" height="8" fill="#D5D9DF" />
<rect x="29" y="6" width="1" height="20" fill="#000000" />
<rect x="30" y="6" width="1" height="2" fill="#8CDAFF" />
<rect x="6" y="7" width="1" height="16" fill="#D5D9DF" />
<rect x="9" y="7" width="1" height="4" fill="#D5D9DF" />
<rect x="10" y="7" width="13" height="1" fill="#000000" />
<rect x="23" y="7" width="1" height="6" fill="#D5D9DF" />
<rect x="26" y="7" width="1" height="9" fill="#D5D9DF" />
<rect x="27" y="7" width="1" height="18" fill="#000000" />
<rect x="0" y="8" width="1" height="16" fill="#C4ECFF" />
<rect x="1" y="8" width="1" height="16" fill="#000000" />
<rect x="10" y="8" width="1" height="4" fill="#D5D9DF" />
<rect x="11" y="8" width="12" height="1" fill="#000000" />
<rect x="30" y="8" width="1" height="16" fill="#000000" />
<rect x="31" y="8" width="1" height="16" fill="#8CDAFF" />
<rect x="4" y="9" width="1" height="20" fill="#000000" />
<rect x="5" y="9" width="1" height="12" fill="#D5D9DF" />
<rect x="11" y="9" width="1" height="4" fill="#D5D9DF" />
<rect x="12" y="9" width="11" height="1" fill="#000000" />
<rect x="12" y="10" width="1" height="4" fill="#D5D9DF" />
<rect x="13" y="10" width="10" height="1" fill="#000000" />
<rect x="9" y="11" width="1" height="20" fill="#000000" />
<rect x="13" y="11" width="1" height="4" fill="#D5D9DF" />
<rect x="14" y="11" width="9" height="1" fill="#000000" />
<rect x="10" y="12" width="1" height="19" fill="#000000" />
<rect x="14" y="12" width="1" height="4" fill="#D5D9DF" />
<rect x="15" y="12" width="8" height="1" fill="#000000" />
<rect x="11" y="13" width="1" height="18" fill="#000000" />
<rect x="15" y="13" width="1" height="4" fill="#D5D9DF" />
<rect x="16" y="13" width="7" height="1" fill="#000000" />
<rect x="23" y="13" width="1" height="2" fill="#B4B4B4" />
<rect x="12" y="14" width="1" height="17" fill="#000000" />
<rect x="16" y="14" width="1" height="4" fill="#D5D9DF" />
<rect x="17" y="14" width="6" height="1" fill="#000000" />
<rect x="24" y="14" width="1" height="2" fill="#B4B4B4" />
<rect x="25" y="14" width="1" height="1" fill="#D5D9DF" />
<rect x="13" y="15" width="1" height="16" fill="#000000" />
<rect x="17" y="15" width="1" height="4" fill="#D5D9DF" />
<rect x="18" y="15" width="5" height="1" fill="#000000" />
<rect x="23" y="15" width="1" height="1" fill="#5D5D5D" />
<rect x="25" y="15" width="1" height="2" fill="#B4B4B4" />
<rect x="14" y="16" width="1" height="15" fill="#000000" />
<rect x="18" y="16" width="1" height="4" fill="#D5D9DF" />
<rect x="19" y="16" width="4" height="1" fill="#000000" />
<rect x="23" y="16" width="1" height="1" fill="#3D3D3D" />
<rect x="24" y="16" width="1" height="1" fill="#5D5D5D" />
<rect x="26" y="16" width="1" height="2" fill="#B4B4B4" />
<rect x="15" y="17" width="1" height="14" fill="#000000" />
<rect x="19" y="17" width="1" height="4" fill="#D5D9DF" />
<rect x="20" y="17" width="3" height="1" fill="#000000" />
<rect x="23" y="17" width="1" height="1" fill="#272727" />
<rect x="24" y="17" width="1" height="1" fill="#3D3D3D" />
<rect x="25" y="17" width="1" height="1" fill="#5D5D5D" />
<rect x="16" y="18" width="1" height="13" fill="#000000" />
<rect x="20" y="18" width="1" height="4" fill="#D5D9DF" />
<rect x="21" y="18" width="2" height="1" fill="#000000" />
<rect x="23" y="18" width="1" height="1" fill="#131313" />
<rect x="24" y="18" width="1" height="1" fill="#272727" />
<rect x="25" y="18" width="1" height="1" fill="#3D3D3D" />
<rect x="26" y="18" width="1" height="1" fill="#5D5D5D" />
<rect x="17" y="19" width="1" height="12" fill="#000000" />
<rect x="21" y="19" width="1" height="4" fill="#D5D9DF" />
<rect x="22" y="19" width="2" height="1" fill="#000000" />
<rect x="24" y="19" width="1" height="1" fill="#131313" />
<rect x="25" y="19" width="1" height="1" fill="#272727" />
<rect x="26" y="19" width="1" height="1" fill="#3D3D3D" />
<rect x="18" y="20" width="1" height="11" fill="#000000" />
<rect x="22" y="20" width="1" height="2" fill="#D5D9DF" />
<rect x="23" y="20" width="2" height="1" fill="#000000" />
<rect x="25" y="20" width="1" height="1" fill="#131313" />
<rect x="26" y="20" width="1" height="1" fill="#272727" />
<rect x="5" y="21" width="1" height="8" fill="#000000" />
<rect x="19" y="21" width="1" height="10" fill="#000000" />
<rect x="23" y="21" width="1" height="3" fill="#B4B4B4" />
<rect x="24" y="21" width="2" height="1" fill="#000000" />
<rect x="26" y="21" width="1" height="1" fill="#131313" />
<rect x="20" y="22" width="1" height="9" fill="#000000" />
<rect x="22" y="22" width="1" height="2" fill="#B4B4B4" />
<rect x="24" y="22" width="1" height="1" fill="#B4B4B4" />
<rect x="25" y="22" width="2" height="1" fill="#000000" />
<rect x="6" y="23" width="1" height="7" fill="#000000" />
<rect x="21" y="23" width="1" height="8" fill="#000000" />
<rect x="24" y="23" width="2" height="1" fill="#5D5D5D" />
<rect x="26" y="23" width="1" height="1" fill="#000000" />
<rect x="1" y="24" width="1" height="2" fill="#8CDAFF" />
<rect x="7" y="24" width="2" height="6" fill="#000000" />
<rect x="22" y="24" width="1" height="7" fill="#000000" />
<rect x="23" y="24" width="1" height="1" fill="#5D5D5D" />
<rect x="24" y="24" width="3" height="1" fill="#3D3D3D" />
<rect x="30" y="24" width="1" height="2" fill="#8CDAFF" />
<rect x="23" y="25" width="1" height="6" fill="#000000" />
<rect x="24" y="25" width="2" height="1" fill="#3D3D3D" />
<rect x="26" y="25" width="2" height="1" fill="#272727" />
<rect x="2" y="26" width="1" height="2" fill="#8CDAFF" />
<rect x="24" y="26" width="1" height="4" fill="#000000" />
<rect x="25" y="26" width="1" height="1" fill="#272727" />
<rect x="26" y="26" width="3" height="2" fill="#131313" />
<rect x="29" y="26" width="1" height="2" fill="#8CDAFF" />
<rect x="25" y="27" width="1" height="3" fill="#000000" />
<rect x="3" y="28" width="1" height="1" fill="#8CDAFF" />
<rect x="26" y="28" width="1" height="1" fill="#000000" />
<rect x="27" y="28" width="1" height="1" fill="#131313" />
<rect x="28" y="28" width="1" height="1" fill="#8CDAFF" />
<rect x="4" y="29" width="2" height="1" fill="#8CDAFF" />
<rect x="26" y="29" width="2" height="1" fill="#8CDAFF" />
<rect x="6" y="30" width="2" height="1" fill="#8CDAFF" />
<rect x="8" y="30" width="1" height="1" fill="#000000" />
<rect x="24" y="30" width="2" height="1" fill="#8CDAFF" />
<rect x="8" y="31" width="16" height="1" fill="#8CDAFF" />
</svg>