<?xml version="1.0" encoding="UTF-8" ?>
<svg version="1.1" width="32" height="32" xmlns="http://www.w3.org/2000/svg" shape-rendering="crispEdges">
<rect x="8" y="0" width="16" height="1" fill="#C4ECFF" />
<rect x="6" y="1" width="2" height="1" fill="#C4ECFF" />
<rect x="8" y="1" width="16" height="6" fill="#15191C" />
<rect x="24" y="1" width="2" height="1" fill="#8CDAFF" />
<rect x="4" y="2" width="2" height="1" fill="#C4ECFF" />
<rect x="6" y="2" width="2" height="6" fill="#15191C" />
<rect x="24" y="2" width="2" height="6" fill="#15191C" />
<rect x="26" y="2" width="2" height="1" fill="#8CDAFF" />
<rect x="3" y="3" width="1" height="1" fill="#C4ECFF" />
<rect x="4" y="3" width="2" height="12" fill="#15191C" />
<rect x="26" y="3" width="2" height="12" fill="#15191C" />
<rect x="28" y="3" width="1" height="1" fill="#8CDAFF" />
<rect x="2" y="4" width="1" height="2" fill="#C4ECFF" />
<rect x="3" y="4" width="1" height="24" fill="#15191C" />
<rect x="28" y="4" width="1" height="24" fill="#15191C" />
<rect x="29" y="4" width="1" height="2" fill="#8CDAFF" />
<rect x="1" y="6" width="1" height="2" fill="#C4ECFF" />
<rect x="2" y="6" width="1" height="20" fill="#15191C" />
<rect x="29" y="6" width="1" height="20" fill="#15191C" />
<rect x="30" y="6" width="1" height="2" fill="#8CDAFF" />
<rect x="8" y="7" width="2" height="1" fill="#00D8FF" />
<rect x="10" y="7" width="12" height="1" fill="#15191C" />
<rect x="22" y="7" width="1" height="1" fill="#00BFE0" />
<rect x="23" y="7" width="1" height="1" fill="#00D8FF" />
<rect x="0" y="8" width="1" height="16" fill="#C4ECFF" />
<rect x="1" y="8" width="1" height="16" fill="#15191C" />
<rect x="6" y="8" width="1" height="6" fill="#15191C" />
<rect x="7" y="8" width="1" height="2" fill="#00D8FF" />
<rect x="8" y="8" width="2" height="2" fill="#15191C" />
<rect x="10" y="8" width="2" height="1" fill="#00BFE0" />
<rect x="12" y="8" width="8" height="1" fill="#15191C" />
<rect x="20" y="8" width="2" height="1" fill="#00BFE0" />
<rect x="22" y="8" width="2" height="2" fill="#15191C" />
<rect x="24" y="8" width="1" height="2" fill="#00D8FF" />
<rect x="25" y="8" width="1" height="6" fill="#15191C" />
<rect x="30" y="8" width="1" height="16" fill="#15191C" />
<rect x="31" y="8" width="1" height="16" fill="#8CDAFF" />
<rect x="10" y="9" width="2" height="4" fill="#15191C" />
<rect x="12" y="9" width="2" height="1" fill="#00BFE0" />
<rect x="14" y="9" width="4" height="1" fill="#15191C" />
<rect x="18" y="9" width="2" height="1" fill="#00BFE0" />
<rect x="20" y="9" width="2" height="4" fill="#15191C" />
<rect x="7" y="10" width="1" height="4" fill="#15191C" />
<rect x="8" y="10" width="1" height="2" fill="#00D8FF" />
<rect x="9" y="10" width="1" height="2" fill="#15191C" />
<rect x="12" y="10" width="2" height="2" fill="#15191C" />
<rect x="14" y="10" width="1" height="1" fill="#00BFE0" />
<rect x="15" y="10" width="2" height="1" fill="#15191C" />
<rect x="17" y="10" width="1" height="1" fill="#00BFE0" />
<rect x="18" y="10" width="2" height="2" fill="#15191C" />
<rect x="22" y="10" width="1" height="2" fill="#15191C" />
<rect x="23" y="10" width="1" height="2" fill="#00D8FF" />
<rect x="24" y="10" width="1" height="4" fill="#15191C" />
<rect x="14" y="11" width="1" height="1" fill="#15191C" />
<rect x="15" y="11" width="2" height="2" fill="#00BFE0" />
<rect x="17" y="11" width="1" height="1" fill="#15191C" />
<rect x="8" y="12" width="1" height="1" fill="#15191C" />
<rect x="9" y="12" width="1" height="2" fill="#00D8FF" />
<rect x="12" y="12" width="3" height="1" fill="#00BFE0" />
<rect x="17" y="12" width="3" height="1" fill="#00BFE0" />
<rect x="22" y="12" width="1" height="1" fill="#00D8FF" />
<rect x="23" y="12" width="1" height="1" fill="#15191C" />
<rect x="8" y="13" width="1" height="1" fill="#00BFE0" />
<rect x="10" y="13" width="2" height="1" fill="#00BFE0" />
<rect x="12" y="13" width="2" height="1" fill="#15191C" />
<rect x="14" y="13" width="1" height="1" fill="#00BFE0" />
<rect x="15" y="13" width="2" height="1" fill="#15191C" />
<rect x="17" y="13" width="1" height="1" fill="#00BFE0" />
<rect x="18" y="13" width="2" height="1" fill="#15191C" />
<rect x="20" y="13" width="1" height="1" fill="#00BFE0" />
<rect x="21" y="13" width="1" height="2" fill="#00D8FF" />
<rect x="22" y="13" width="2" height="1" fill="#00BFE0" />
<rect x="6" y="14" width="2" height="1" fill="#00BFE0" />
<rect x="8" y="14" width="2" height="4" fill="#15191C" />
<rect x="10" y="14" width="1" height="1" fill="#00D8FF" />
<rect x="11" y="14" width="2" height="1" fill="#15191C" />
<rect x="13" y="14" width="1" height="1" fill="#00BFE0" />
<rect x="14" y="14" width="1" height="1" fill="#15191C" />
<rect x="15" y="14" width="2" height="1" fill="#00BFE0" />
<rect x="17" y="14" width="1" height="1" fill="#15191C" />
<rect x="18" y="14" width="1" height="1" fill="#00BFE0" />
<rect x="19" y="14" width="2" height="1" fill="#15191C" />
<rect x="22" y="14" width="2" height="4" fill="#15191C" />
<rect x="24" y="14" width="2" height="1" fill="#00BFE0" />
<rect x="4" y="15" width="1" height="14" fill="#15191C" />
<rect x="5" y="15" width="1" height="2" fill="#00BFE0" />
<rect x="6" y="15" width="2" height="2" fill="#15191C" />
<rect x="10" y="15" width="1" height="2" fill="#15191C" />
<rect x="11" y="15" width="1" height="1" fill="#00D8FF" />
<rect x="12" y="15" width="1" height="1" fill="#00BFE0" />
<rect x="13" y="15" width="1" height="2" fill="#15191C" />
<rect x="14" y="15" width="1" height="1" fill="#00BFE0" />
<rect x="15" y="15" width="2" height="3" fill="#00D8FF" />
<rect x="17" y="15" width="1" height="1" fill="#00BFE0" />
<rect x="18" y="15" width="1" height="2" fill="#15191C" />
<rect x="19" y="15" width="1" height="1" fill="#00BFE0" />
<rect x="20" y="15" width="1" height="1" fill="#00D8FF" />
<rect x="21" y="15" width="1" height="2" fill="#15191C" />
<rect x="24" y="15" width="2" height="2" fill="#15191C" />
<rect x="26" y="15" width="1" height="2" fill="#00BFE0" />
<rect x="27" y="15" width="1" height="14" fill="#15191C" />
<rect x="11" y="16" width="1" height="1" fill="#00BFE0" />
<rect x="12" y="16" width="1" height="1" fill="#00D8FF" />
<rect x="14" y="16" width="1" height="1" fill="#00D8FF" />
<rect x="17" y="16" width="1" height="1" fill="#00D8FF" />
<rect x="19" y="16" width="1" height="1" fill="#00D8FF" />
<rect x="20" y="16" width="1" height="1" fill="#00BFE0" />
<rect x="5" y="17" width="1" height="12" fill="#15191C" />
<rect x="6" y="17" width="2" height="1" fill="#00D8FF" />
<rect x="10" y="17" width="1" height="1" fill="#00BFE0" />
<rect x="11" y="17" width="2" height="1" fill="#15191C" />
<rect x="13" y="17" width="1" height="1" fill="#00D8FF" />
<rect x="14" y="17" width="1" height="1" fill="#15191C" />
<rect x="17" y="17" width="1" height="1" fill="#15191C" />
<rect x="18" y="17" width="1" height="1" fill="#00D8FF" />
<rect x="19" y="17" width="2" height="1" fill="#15191C" />
<rect x="21" y="17" width="1" height="1" fill="#00BFE0" />
<rect x="24" y="17" width="2" height="1" fill="#00D8FF" />
<rect x="26" y="17" width="1" height="12" fill="#15191C" />
<rect x="6" y="18" width="2" height="4" fill="#15191C" />
<rect x="8" y="18" width="5" height="1" fill="#00D8FF" />
<rect x="13" y="18" width="1" height="1" fill="#15191C" />
<rect x="14" y="18" width="1" height="2" fill="#00D8FF" />
<rect x="15" y="18" width="2" height="1" fill="#15191C" />
<rect x="17" y="18" width="1" height="2" fill="#00D8FF" />
<rect x="18" y="18" width="1" height="1" fill="#15191C" />
<rect x="19" y="18" width="5" height="1" fill="#00D8FF" />
<rect x="24" y="18" width="2" height="4" fill="#15191C" />
<rect x="8" y="19" width="1" height="1" fill="#15191C" />
<rect x="9" y="19" width="1" height="1" fill="#00BFE0" />
<rect x="10" y="19" width="3" height="3" fill="#15191C" />
<rect x="13" y="19" width="1" height="1" fill="#00D8FF" />
<rect x="15" y="19" width="2" height="2" fill="#00D8FF" />
<rect x="18" y="19" width="1" height="1" fill="#00D8FF" />
<rect x="19" y="19" width="3" height="3" fill="#15191C" />
<rect x="22" y="19" width="1" height="1" fill="#00BFE0" />
<rect x="23" y="19" width="1" height="1" fill="#15191C" />
<rect x="8" y="20" width="1" height="2" fill="#00BFE0" />
<rect x="9" y="20" width="1" height="4" fill="#15191C" />
<rect x="13" y="20" width="2" height="1" fill="#15191C" />
<rect x="17" y="20" width="2" height="1" fill="#15191C" />
<rect x="22" y="20" width="1" height="4" fill="#15191C" />
<rect x="23" y="20" width="1" height="2" fill="#00BFE0" />
<rect x="13" y="21" width="1" height="1" fill="#15191C" />
<rect x="14" y="21" width="1" height="1" fill="#00D8FF" />
<rect x="15" y="21" width="2" height="10" fill="#15191C" />
<rect x="17" y="21" width="1" height="1" fill="#00D8FF" />
<rect x="18" y="21" width="1" height="1" fill="#15191C" />
<rect x="6" y="22" width="1" height="8" fill="#15191C" />
<rect x="7" y="22" width="1" height="2" fill="#00BFE0" />
<rect x="8" y="22" width="1" height="2" fill="#15191C" />
<rect x="10" y="22" width="2" height="1" fill="#15191C" />
<rect x="12" y="22" width="2" height="1" fill="#00D8FF" />
<rect x="14" y="22" width="1" height="9" fill="#15191C" />
<rect x="17" y="22" width="1" height="9" fill="#15191C" />
<rect x="18" y="22" width="2" height="1" fill="#00D8FF" />
<rect x="20" y="22" width="2" height="1" fill="#15191C" />
<rect x="23" y="22" width="1" height="2" fill="#15191C" />
<rect x="24" y="22" width="1" height="2" fill="#00BFE0" />
<rect x="25" y="22" width="1" height="8" fill="#15191C" />
<rect x="10" y="23" width="2" height="1" fill="#00D8FF" />
<rect x="12" y="23" width="2" height="8" fill="#15191C" />
<rect x="18" y="23" width="2" height="8" fill="#15191C" />
<rect x="20" y="23" width="2" height="1" fill="#00D8FF" />
<rect x="1" y="24" width="1" height="2" fill="#8CDAFF" />
<rect x="7" y="24" width="1" height="6" fill="#15191C" />
<rect x="8" y="24" width="2" height="1" fill="#00D8FF" />
<rect x="10" y="24" width="2" height="7" fill="#15191C" />
<rect x="20" y="24" width="2" height="7" fill="#15191C" />
<rect x="22" y="24" width="2" height="1" fill="#00D8FF" />
<rect x="24" y="24" width="1" height="6" fill="#15191C" />
<rect x="30" y="24" width="1" height="2" fill="#8CDAFF" />
<rect x="8" y="25" width="2" height="6" fill="#15191C" />
<rect x="22" y="25" width="2" height="6" fill="#15191C" />
<rect x="2" y="26" width="1" height="2" fill="#8CDAFF" />
<rect x="29" y="26" width="1" height="2" fill="#8CDAFF" />
<rect x="3" y="28" width="1" height="1" fill="#8CDAFF" />
<rect x="28" y="28" width="1" height="1" fill="#8CDAFF" />
<rect x="4" y="29" width="2" height="1" fill="#8CDAFF" />
<rect x="26" y="29" width="2" height="1" fill="#8CDAFF" />
<rect x="6" y="30" width="2" height="1" fill="#8CDAFF" />
<rect x="24" y="30" width="2" height="1" fill="#8CDAFF" />
<rect x="8" y="31" width="16" height="1" fill="#8CDAFF" />
</svg>