<?xml version="1.0" encoding="UTF-8" ?>
<svg version="1.1" width="32" height="32" xmlns="http://www.w3.org/2000/svg" shape-rendering="crispEdges">
<rect x="8" y="0" width="16" height="1" fill="#C4ECFF" />
<rect x="6" y="1" width="2" height="1" fill="#C4ECFF" />
<rect x="8" y="1" width="16" height="4" fill="#6DB33F" />
<rect x="24" y="1" width="2" height="1" fill="#8CDAFF" />
<rect x="4" y="2" width="2" height="1" fill="#C4ECFF" />
<rect x="6" y="2" width="2" height="6" fill="#6DB33F" />
<rect x="24" y="2" width="2" height="6" fill="#6DB33F" />
<rect x="26" y="2" width="2" height="1" fill="#8CDAFF" />
<rect x="3" y="3" width="1" height="1" fill="#C4ECFF" />
<rect x="4" y="3" width="2" height="8" fill="#6DB33F" />
<rect x="26" y="3" width="2" height="8" fill="#6DB33F" />
<rect x="28" y="3" width="1" height="1" fill="#8CDAFF" />
<rect x="2" y="4" width="1" height="2" fill="#C4ECFF" />
<rect x="3" y="4" width="1" height="24" fill="#6DB33F" />
<rect x="28" y="4" width="1" height="24" fill="#6DB33F" />
<rect x="29" y="4" width="1" height="2" fill="#8CDAFF" />
<rect x="8" y="5" width="7" height="1" fill="#6DB33F" />
<rect x="15" y="5" width="2" height="13" fill="#1A1A1A" />
<rect x="17" y="5" width="7" height="1" fill="#6DB33F" />
<rect x="1" y="6" width="1" height="2" fill="#C4ECFF" />
<rect x="2" y="6" width="1" height="20" fill="#6DB33F" />
<rect x="8" y="6" width="1" height="1" fill="#6DB33F" />
<rect x="9" y="6" width="2" height="5" fill="#1A1A1A" />
<rect x="11" y="6" width="3" height="1" fill="#6DB33F" />
<rect x="14" y="6" width="1" height="11" fill="#1A1A1A" />
<rect x="17" y="6" width="1" height="11" fill="#1A1A1A" />
<rect x="18" y="6" width="3" height="1" fill="#6DB33F" />
<rect x="21" y="6" width="2" height="5" fill="#1A1A1A" />
<rect x="23" y="6" width="1" height="1" fill="#6DB33F" />
<rect x="29" y="6" width="1" height="20" fill="#6DB33F" />
<rect x="30" y="6" width="1" height="2" fill="#8CDAFF" />
<rect x="8" y="7" width="1" height="18" fill="#1A1A1A" />
<rect x="11" y="7" width="1" height="3" fill="#1A1A1A" />
<rect x="12" y="7" width="2" height="15" fill="#6DB33F" />
<rect x="18" y="7" width="2" height="15" fill="#6DB33F" />
<rect x="20" y="7" width="1" height="3" fill="#1A1A1A" />
<rect x="23" y="7" width="1" height="18" fill="#1A1A1A" />
<rect x="0" y="8" width="1" height="16" fill="#C4ECFF" />
<rect x="1" y="8" width="1" height="16" fill="#6DB33F" />
<rect x="6" y="8" width="1" height="1" fill="#6DB33F" />
<rect x="7" y="8" width="1" height="16" fill="#1A1A1A" />
<rect x="24" y="8" width="1" height="16" fill="#1A1A1A" />
<rect x="25" y="8" width="1" height="1" fill="#6DB33F" />
<rect x="30" y="8" width="1" height="16" fill="#6DB33F" />
<rect x="31" y="8" width="1" height="16" fill="#8CDAFF" />
<rect x="6" y="9" width="1" height="14" fill="#1A1A1A" />
<rect x="25" y="9" width="1" height="14" fill="#1A1A1A" />
<rect x="11" y="10" width="1" height="11" fill="#6DB33F" />
<rect x="20" y="10" width="1" height="11" fill="#6DB33F" />
<rect x="4" y="11" width="1" height="2" fill="#6DB33F" />
<rect x="5" y="11" width="1" height="10" fill="#1A1A1A" />
<rect x="9" y="11" width="1" height="2" fill="#1A1A1A" />
<rect x="10" y="11" width="1" height="9" fill="#6DB33F" />
<rect x="21" y="11" width="1" height="9" fill="#6DB33F" />
<rect x="22" y="11" width="1" height="2" fill="#1A1A1A" />
<rect x="26" y="11" width="1" height="10" fill="#1A1A1A" />
<rect x="27" y="11" width="1" height="2" fill="#6DB33F" />
<rect x="4" y="13" width="1" height="6" fill="#1A1A1A" />
<rect x="9" y="13" width="1" height="5" fill="#6DB33F" />
<rect x="22" y="13" width="1" height="5" fill="#6DB33F" />
<rect x="27" y="13" width="1" height="6" fill="#1A1A1A" />
<rect x="14" y="17" width="1" height="6" fill="#6DB33F" />
<rect x="17" y="17" width="1" height="6" fill="#6DB33F" />
<rect x="9" y="18" width="1" height="8" fill="#1A1A1A" />
<rect x="15" y="18" width="2" height="5" fill="#6DB33F" />
<rect x="22" y="18" width="1" height="8" fill="#1A1A1A" />
<rect x="4" y="19" width="1" height="10" fill="#6DB33F" />
<rect x="27" y="19" width="1" height="10" fill="#6DB33F" />
<rect x="10" y="20" width="1" height="6" fill="#1A1A1A" />
<rect x="21" y="20" width="1" height="6" fill="#1A1A1A" />
<rect x="5" y="21" width="1" height="8" fill="#6DB33F" />
<rect x="11" y="21" width="1" height="6" fill="#1A1A1A" />
<rect x="20" y="21" width="1" height="6" fill="#1A1A1A" />
<rect x="26" y="21" width="1" height="8" fill="#6DB33F" />
<rect x="12" y="22" width="2" height="5" fill="#1A1A1A" />
<rect x="18" y="22" width="2" height="5" fill="#1A1A1A" />
<rect x="6" y="23" width="1" height="7" fill="#6DB33F" />
<rect x="14" y="23" width="4" height="5" fill="#1A1A1A" />
<rect x="25" y="23" width="1" height="7" fill="#6DB33F" />
<rect x="1" y="24" width="1" height="2" fill="#8CDAFF" />
<rect x="7" y="24" width="1" height="6" fill="#6DB33F" />
<rect x="24" y="24" width="1" height="6" fill="#6DB33F" />
<rect x="30" y="24" width="1" height="2" fill="#8CDAFF" />
<rect x="8" y="25" width="1" height="6" fill="#6DB33F" />
<rect x="23" y="25" width="1" height="6" fill="#6DB33F" />
<rect x="2" y="26" width="1" height="2" fill="#8CDAFF" />
<rect x="9" y="26" width="2" height="5" fill="#6DB33F" />
<rect x="21" y="26" width="2" height="5" fill="#6DB33F" />
<rect x="29" y="26" width="1" height="2" fill="#8CDAFF" />
<rect x="11" y="27" width="2" height="4" fill="#6DB33F" />
<rect x="13" y="27" width="1" height="1" fill="#1A1A1A" />
<rect x="18" y="27" width="1" height="1" fill="#1A1A1A" />
<rect x="19" y="27" width="2" height="4" fill="#6DB33F" />
<rect x="3" y="28" width="1" height="1" fill="#8CDAFF" />
<rect x="13" y="28" width="6" height="3" fill="#6DB33F" />
<rect x="28" y="28" width="1" height="1" fill="#8CDAFF" />
<rect x="4" y="29" width="2" height="1" fill="#8CDAFF" />
<rect x="26" y="29" width="2" height="1" fill="#8CDAFF" />
<rect x="6" y="30" width="2" height="1" fill="#8CDAFF" />
<rect x="24" y="30" width="2" height="1" fill="#8CDAFF" />
<rect x="8" y="31" width="16" height="1" fill="#8CDAFF" />
</svg>