<?xml version="1.0" encoding="UTF-8" ?>
<svg version="1.1" width="32" height="32" xmlns="http://www.w3.org/2000/svg" shape-rendering="crispEdges">
<rect x="8" y="0" width="16" height="1" fill="#C4ECFF" />
<rect x="6" y="1" width="2" height="1" fill="#C4ECFF" />
<rect x="8" y="1" width="16" height="5" fill="#3178C6" />
<rect x="24" y="1" width="2" height="1" fill="#8CDAFF" />
<rect x="4" y="2" width="2" height="1" fill="#C4ECFF" />
<rect x="6" y="2" width="2" height="5" fill="#3178C6" />
<rect x="24" y="2" width="2" height="4" fill="#3178C6" />
<rect x="26" y="2" width="2" height="1" fill="#8CDAFF" />
<rect x="3" y="3" width="1" height="1" fill="#C4ECFF" />
<rect x="4" y="3" width="2" height="4" fill="#3178C6" />
<rect x="26" y="3" width="2" height="4" fill="#3178C6" />
<rect x="28" y="3" width="1" height="1" fill="#8CDAFF" />
<rect x="2" y="4" width="1" height="2" fill="#C4ECFF" />
<rect x="3" y="4" width="1" height="24" fill="#3178C6" />
<rect x="28" y="4" width="1" height="12" fill="#3178C6" />
<rect x="29" y="4" width="1" height="2" fill="#8CDAFF" />
<rect x="1" y="6" width="1" height="2" fill="#C4ECFF" />
<rect x="2" y="6" width="1" height="20" fill="#3178C6" />
<rect x="8" y="6" width="1" height="1" fill="#3178C6" />
<rect x="9" y="6" width="6" height="6" fill="#D5D9DF" />
<rect x="15" y="6" width="5" height="1" fill="#3178C6" />
<rect x="20" y="6" width="5" height="5" fill="#D5D9DF" />
<rect x="25" y="6" width="1" height="1" fill="#3178C6" />
<rect x="29" y="6" width="1" height="20" fill="#3178C6" />
<rect x="30" y="6" width="1" height="2" fill="#8CDAFF" />
<rect x="4" y="7" width="1" height="1" fill="#3178C6" />
<rect x="5" y="7" width="4" height="5" fill="#D5D9DF" />
<rect x="15" y="7" width="2" height="5" fill="#D5D9DF" />
<rect x="17" y="7" width="1" height="1" fill="#3178C6" />
<rect x="18" y="7" width="2" height="10" fill="#D5D9DF" />
<rect x="25" y="7" width="2" height="5" fill="#D5D9DF" />
<rect x="27" y="7" width="1" height="1" fill="#3178C6" />
<rect x="0" y="8" width="1" height="16" fill="#C4ECFF" />
<rect x="1" y="8" width="1" height="16" fill="#3178C6" />
<rect x="4" y="8" width="1" height="3" fill="#D5D9DF" />
<rect x="17" y="8" width="1" height="8" fill="#D5D9DF" />
<rect x="27" y="8" width="1" height="3" fill="#D5D9DF" />
<rect x="30" y="8" width="1" height="16" fill="#3178C6" />
<rect x="31" y="8" width="1" height="16" fill="#8CDAFF" />
<rect x="4" y="11" width="1" height="18" fill="#3178C6" />
<rect x="20" y="11" width="1" height="6" fill="#D5D9DF" />
<rect x="21" y="11" width="4" height="2" fill="#3178C6" />
<rect x="27" y="11" width="1" height="3" fill="#3178C6" />
<rect x="5" y="12" width="4" height="4" fill="#3178C6" />
<rect x="9" y="12" width="4" height="13" fill="#D5D9DF" />
<rect x="13" y="12" width="3" height="10" fill="#3178C6" />
<rect x="16" y="12" width="1" height="3" fill="#D5D9DF" />
<rect x="25" y="12" width="2" height="1" fill="#3178C6" />
<rect x="21" y="13" width="6" height="4" fill="#D5D9DF" />
<rect x="27" y="14" width="1" height="10" fill="#D5D9DF" />
<rect x="16" y="15" width="1" height="6" fill="#3178C6" />
<rect x="5" y="16" width="3" height="13" fill="#3178C6" />
<rect x="8" y="16" width="1" height="8" fill="#D5D9DF" />
<rect x="17" y="16" width="1" height="4" fill="#3178C6" />
<rect x="28" y="16" width="1" height="6" fill="#D5D9DF" />
<rect x="18" y="17" width="5" height="3" fill="#3178C6" />
<rect x="23" y="17" width="4" height="1" fill="#D5D9DF" />
<rect x="23" y="18" width="1" height="2" fill="#3178C6" />
<rect x="24" y="18" width="3" height="7" fill="#D5D9DF" />
<rect x="17" y="20" width="3" height="5" fill="#D5D9DF" />
<rect x="20" y="20" width="3" height="1" fill="#3178C6" />
<rect x="23" y="20" width="1" height="6" fill="#D5D9DF" />
<rect x="16" y="21" width="1" height="4" fill="#D5D9DF" />
<rect x="20" y="21" width="3" height="5" fill="#D5D9DF" />
<rect x="13" y="22" width="2" height="9" fill="#3178C6" />
<rect x="15" y="22" width="1" height="2" fill="#D5D9DF" />
<rect x="28" y="22" width="1" height="6" fill="#3178C6" />
<rect x="1" y="24" width="1" height="2" fill="#8CDAFF" />
<rect x="8" y="24" width="1" height="7" fill="#3178C6" />
<rect x="15" y="24" width="1" height="7" fill="#3178C6" />
<rect x="27" y="24" width="1" height="5" fill="#3178C6" />
<rect x="30" y="24" width="1" height="2" fill="#8CDAFF" />
<rect x="9" y="25" width="3" height="1" fill="#D5D9DF" />
<rect x="12" y="25" width="1" height="6" fill="#3178C6" />
<rect x="16" y="25" width="2" height="6" fill="#3178C6" />
<rect x="18" y="25" width="2" height="1" fill="#D5D9DF" />
<rect x="24" y="25" width="1" height="1" fill="#D5D9DF" />
<rect x="25" y="25" width="2" height="4" fill="#3178C6" />
<rect x="2" y="26" width="1" height="2" fill="#8CDAFF" />
<rect x="9" y="26" width="3" height="5" fill="#3178C6" />
<rect x="18" y="26" width="7" height="4" fill="#3178C6" />
<rect x="29" y="26" width="1" height="2" fill="#8CDAFF" />
<rect x="3" y="28" width="1" height="1" fill="#8CDAFF" />
<rect x="28" y="28" width="1" height="1" fill="#8CDAFF" />
<rect x="4" y="29" width="2" height="1" fill="#8CDAFF" />
<rect x="6" y="29" width="2" height="1" fill="#3178C6" />
<rect x="25" y="29" width="1" height="1" fill="#3178C6" />
<rect x="26" y="29" width="2" height="1" fill="#8CDAFF" />
<rect x="6" y="30" width="2" height="1" fill="#8CDAFF" />
<rect x="18" y="30" width="6" height="1" fill="#3178C6" />
<rect x="24" y="30" width="2" height="1" fill="#8CDAFF" />
<rect x="8" y="31" width="16" height="1" fill="#8CDAFF" />
</svg>