<?xml version="1.0" encoding="UTF-8" ?>
<svg version="1.1" width="32" height="32" xmlns="http://www.w3.org/2000/svg" shape-rendering="crispEdges">
<rect x="8" y="0" width="16" height="1" fill="#C4ECFF" />
<rect x="6" y="1" width="2" height="1" fill="#C4ECFF" />
<rect x="8" y="1" width="16" height="3" fill="#15191C" />
<rect x="24" y="1" width="2" height="1" fill="#8CDAFF" />
<rect x="4" y="2" width="2" height="1" fill="#C4ECFF" />
<rect x="6" y="2" width="2" height="14" fill="#15191C" />
<rect x="24" y="2" width="2" height="14" fill="#15191C" />
<rect x="26" y="2" width="2" height="1" fill="#8CDAFF" />
<rect x="3" y="3" width="1" height="1" fill="#C4ECFF" />
<rect x="4" y="3" width="2" height="22" fill="#15191C" />
<rect x="26" y="3" width="2" height="13" fill="#15191C" />
<rect x="28" y="3" width="1" height="1" fill="#8CDAFF" />
<rect x="2" y="4" width="1" height="2" fill="#C4ECFF" />
<rect x="3" y="4" width="1" height="24" fill="#15191C" />
<rect x="8" y="4" width="4" height="5" fill="#15191C" />
<rect x="12" y="4" width="2" height="1" fill="#CA3132" />
<rect x="14" y="4" width="10" height="1" fill="#15191C" />
<rect x="28" y="4" width="1" height="24" fill="#15191C" />
<rect x="29" y="4" width="1" height="2" fill="#8CDAFF" />
<rect x="12" y="5" width="1" height="2" fill="#15191C" />
<rect x="13" y="5" width="2" height="3" fill="#CA3132" />
<rect x="15" y="5" width="9" height="1" fill="#15191C" />
<rect x="1" y="6" width="1" height="2" fill="#C4ECFF" />
<rect x="2" y="6" width="1" height="20" fill="#15191C" />
<rect x="15" y="6" width="3" height="1" fill="#15191C" />
<rect x="18" y="6" width="2" height="1" fill="#CA3132" />
<rect x="20" y="6" width="4" height="10" fill="#15191C" />
<rect x="29" y="6" width="1" height="20" fill="#15191C" />
<rect x="30" y="6" width="1" height="2" fill="#8CDAFF" />
<rect x="12" y="7" width="1" height="6" fill="#CA3132" />
<rect x="15" y="7" width="2" height="1" fill="#15191C" />
<rect x="17" y="7" width="2" height="1" fill="#CA3132" />
<rect x="19" y="7" width="1" height="9" fill="#15191C" />
<rect x="0" y="8" width="1" height="16" fill="#C4ECFF" />
<rect x="1" y="8" width="1" height="16" fill="#15191C" />
<rect x="13" y="8" width="1" height="1" fill="#CA3132" />
<rect x="14" y="8" width="2" height="6" fill="#15191C" />
<rect x="16" y="8" width="2" height="3" fill="#CA3132" />
<rect x="18" y="8" width="1" height="2" fill="#15191C" />
<rect x="30" y="8" width="1" height="16" fill="#15191C" />
<rect x="31" y="8" width="1" height="16" fill="#8CDAFF" />
<rect x="8" y="9" width="3" height="7" fill="#15191C" />
<rect x="11" y="9" width="1" height="3" fill="#CA3132" />
<rect x="13" y="9" width="1" height="3" fill="#15191C" />
<rect x="18" y="10" width="1" height="3" fill="#CA3132" />
<rect x="16" y="11" width="1" height="2" fill="#15191C" />
<rect x="17" y="11" width="1" height="3" fill="#CA3132" />
<rect x="11" y="12" width="1" height="4" fill="#15191C" />
<rect x="13" y="12" width="1" height="2" fill="#CA3132" />
<rect x="12" y="13" width="1" height="3" fill="#15191C" />
<rect x="16" y="13" width="1" height="2" fill="#CA3132" />
<rect x="18" y="13" width="1" height="3" fill="#15191C" />
<rect x="13" y="14" width="2" height="2" fill="#15191C" />
<rect x="15" y="14" width="1" height="1" fill="#CA3132" />
<rect x="17" y="14" width="1" height="2" fill="#15191C" />
<rect x="15" y="15" width="2" height="1" fill="#15191C" />
<rect x="6" y="16" width="18" height="1" fill="#3174B9" />
<rect x="24" y="16" width="1" height="4" fill="#15191C" />
<rect x="25" y="16" width="2" height="1" fill="#3174B9" />
<rect x="27" y="16" width="1" height="1" fill="#15191C" />
<rect x="6" y="17" width="1" height="8" fill="#15191C" />
<rect x="7" y="17" width="16" height="1" fill="#3174B9" />
<rect x="23" y="17" width="1" height="8" fill="#15191C" />
<rect x="25" y="17" width="1" height="2" fill="#15191C" />
<rect x="26" y="17" width="2" height="2" fill="#3174B9" />
<rect x="7" y="18" width="16" height="1" fill="#15191C" />
<rect x="7" y="19" width="1" height="6" fill="#15191C" />
<rect x="8" y="19" width="14" height="1" fill="#3174B9" />
<rect x="22" y="19" width="1" height="6" fill="#15191C" />
<rect x="25" y="19" width="2" height="1" fill="#3174B9" />
<rect x="27" y="19" width="1" height="10" fill="#15191C" />
<rect x="8" y="20" width="1" height="5" fill="#15191C" />
<rect x="9" y="20" width="12" height="1" fill="#3174B9" />
<rect x="21" y="20" width="1" height="5" fill="#15191C" />
<rect x="24" y="20" width="2" height="1" fill="#3174B9" />
<rect x="26" y="20" width="1" height="9" fill="#15191C" />
<rect x="9" y="21" width="12" height="1" fill="#15191C" />
<rect x="24" y="21" width="2" height="4" fill="#15191C" />
<rect x="9" y="22" width="1" height="3" fill="#15191C" />
<rect x="10" y="22" width="10" height="1" fill="#3174B9" />
<rect x="20" y="22" width="1" height="3" fill="#15191C" />
<rect x="10" y="23" width="1" height="2" fill="#15191C" />
<rect x="11" y="23" width="8" height="1" fill="#3174B9" />
<rect x="19" y="23" width="1" height="2" fill="#15191C" />
<rect x="1" y="24" width="1" height="2" fill="#8CDAFF" />
<rect x="11" y="24" width="8" height="1" fill="#15191C" />
<rect x="30" y="24" width="1" height="2" fill="#8CDAFF" />
<rect x="4" y="25" width="1" height="4" fill="#15191C" />
<rect x="5" y="25" width="20" height="1" fill="#3174B9" />
<rect x="25" y="25" width="1" height="5" fill="#15191C" />
<rect x="2" y="26" width="1" height="2" fill="#8CDAFF" />
<rect x="5" y="26" width="2" height="3" fill="#15191C" />
<rect x="7" y="26" width="16" height="1" fill="#3174B9" />
<rect x="23" y="26" width="2" height="4" fill="#15191C" />
<rect x="29" y="26" width="1" height="2" fill="#8CDAFF" />
<rect x="7" y="27" width="16" height="3" fill="#15191C" />
<rect x="3" y="28" width="1" height="1" fill="#8CDAFF" />
<rect x="28" y="28" width="1" height="1" fill="#8CDAFF" />
<rect x="4" y="29" width="2" height="1" fill="#8CDAFF" />
<rect x="6" y="29" width="1" height="1" fill="#15191C" />
<rect x="26" y="29" width="2" height="1" fill="#8CDAFF" />
<rect x="6" y="30" width="2" height="1" fill="#8CDAFF" />
<rect x="8" y="30" width="16" height="1" fill="#15191C" />
<rect x="24" y="30" width="2" height="1" fill="#8CDAFF" />
<rect x="8" y="31" width="16" height="1" fill="#8CDAFF" />
</svg>