<?xml version="1.0" encoding="UTF-8" standalone="no"?>
<svg
   id="visual"
   viewBox="0 0 900 1201"
   width="900"
   height="1201"
   version="1.1"
   sodipodi:docname="layered-steps1.svg"
   inkscape:version="1.4.2 (ebf0e940d0, 2025-05-08)"
   xmlns:inkscape="http://www.inkscape.org/namespaces/inkscape"
   xmlns:sodipodi="http://sodipodi.sourceforge.net/DTD/sodipodi-0.dtd"
   xmlns="http://www.w3.org/2000/svg"
   xmlns:svg="http://www.w3.org/2000/svg">
  <defs
     id="defs12" />
  <sodipodi:namedview
     id="namedview12"
     pagecolor="#505050"
     bordercolor="#ffffff"
     borderopacity="1"
     inkscape:showpageshadow="0"
     inkscape:pageopacity="0"
     inkscape:pagecheckerboard="1"
     inkscape:deskcolor="#505050"
     inkscape:zoom="0.35355339"
     inkscape:cx="509.11688"
     inkscape:cy="694.37886"
     inkscape:window-width="1920"
     inkscape:window-height="1026"
     inkscape:window-x="0"
     inkscape:window-y="22"
     inkscape:window-maximized="1"
     inkscape:current-layer="visual" />
  <rect
     x="0"
     y="600"
     width="900"
     height="600"
     fill="#0e1a32"
     id="rect1" />
  <path
     d="m 0,635 h 47 v 26 h 48 v 4 h 47 v -41 h 47 v 16 h 48 v -17 h 47 v 14 h 48 v 22 h 47 v -25 h 47 v 6 h 48 v -15 h 47 v 31 h 47 v -13 h 48 v -14 h 47 v 30 h 48 v -26 h 47 v 34 h 47 v -37 h 48 v 18 h 47 v 17 536 0 h -47 v 0 h -48 v 0 h -47 v 0 h -47 v 0 h -48 v 0 h -47 v 0 h -48 v 0 h -47 v 0 h -47 v 0 h -48 v 0 h -47 v 0 h -47 v 0 h -48 v 0 h -47 v 0 h -48 v 0 h -47 v 0 H 95 v 0 H 47 v 0 H 0 Z"
     fill="#0e1a32"
     id="path1" />
  <path
     d="m 0,686 h 47 v 21 h 48 v -23 h 47 v -6 h 47 v -5 h 48 v 20 h 47 v -8 h 48 v 10 h 47 v -3 h 47 v 16 h 48 v -18 h 47 v -9 h 47 v 19 h 48 v -23 h 47 v 3 h 48 v 9 h 47 v -7 h 47 v 32 h 48 v -14 h 47 v -8 509 0 h -47 v 0 h -48 v 0 h -47 v 0 h -47 v 0 h -48 v 0 h -47 v 0 h -48 v 0 h -47 v 0 h -47 v 0 h -48 v 0 h -47 v 0 h -47 v 0 h -48 v 0 h -47 v 0 h -48 v 0 h -47 v 0 H 95 v 0 H 47 v 0 H 0 Z"
     fill="#0f1b34"
     id="path2" />
  <path
     d="m 0,731 h 47 v 18 h 48 v 3 h 47 v -36 h 47 v 7 h 48 v 7 h 47 v 25 h 48 v -10 h 47 v 3 h 47 v -13 h 48 v 9 h 47 v 6 h 47 v 6 h 48 v -23 h 47 v -11 h 48 v 15 h 47 v -20 h 47 v 23 h 48 v -15 h 47 v 0 476 0 h -47 v 0 h -48 v 0 h -47 v 0 h -47 v 0 h -48 v 0 h -47 v 0 h -48 v 0 h -47 v 0 h -47 v 0 h -48 v 0 h -47 v 0 h -47 v 0 h -48 v 0 h -47 v 0 h -48 v 0 h -47 v 0 H 95 v 0 H 47 v 0 H 0 Z"
     fill="#0f1d36"
     id="path3" />
  <path
     d="m 0,761 h 47 v 40 h 48 v -40 h 47 v 38 h 47 v -6 h 48 v -12 h 47 v 23 h 48 v -2 h 47 v -29 h 47 v 17 h 48 v 13 h 47 v 3 h 47 v -20 h 48 v 10 h 47 v -22 h 48 v 6 h 47 v 21 h 47 v 3 h 48 v -17 h 47 v -21 435 0 h -47 v 0 h -48 v 0 h -47 v 0 h -47 v 0 h -48 v 0 h -47 v 0 h -48 v 0 h -47 v 0 h -47 v 0 h -48 v 0 h -47 v 0 h -47 v 0 h -48 v 0 h -47 v 0 h -48 v 0 h -47 v 0 H 95 v 0 H 47 v 0 H 0 Z"
     fill="#101e38"
     id="path4" />
  <path
     d="m 0,844 h 47 v -12 h 48 v 14 h 47 v -31 h 47 v 11 h 48 v 11 h 47 v -8 h 48 v 3 h 47 v 10 h 47 v -16 h 48 v 16 h 47 v -7 h 47 v -6 h 48 v -21 h 47 v 19 h 48 v 13 h 47 v -16 h 47 v 7 h 48 v 13 h 47 v 9 348 0 h -47 v 0 h -48 v 0 h -47 v 0 h -47 v 0 h -48 v 0 h -47 v 0 h -48 v 0 h -47 v 0 h -47 v 0 h -48 v 0 h -47 v 0 h -47 v 0 h -48 v 0 h -47 v 0 h -48 v 0 h -47 v 0 H 95 v 0 H 47 v 0 H 0 Z"
     fill="#101f3b"
     id="path5" />
  <path
     d="m 0,885 h 47 v -8 h 48 v 7 h 47 v -3 h 47 v 7 h 48 v -26 h 47 v 16 h 48 v -13 h 47 v 15 h 47 v 7 h 48 v 10 h 47 v -27 h 47 v -10 h 48 v 17 h 47 v -15 h 48 v 19 h 47 v 14 h 47 v 4 h 48 v -4 h 47 v 1 305 0 h -47 v 0 h -48 v 0 h -47 v 0 h -47 v 0 h -48 v 0 h -47 v 0 h -48 v 0 h -47 v 0 h -47 v 0 h -48 v 0 h -47 v 0 h -47 v 0 h -48 v 0 h -47 v 0 h -48 v 0 h -47 v 0 H 95 v 0 H 47 v 0 H 0 Z"
     fill="#11203d"
     id="path6" />
  <path
     d="m 0,900 h 47 v 1 h 48 v 19 h 47 v 16 h 47 v -14 h 48 v -15 h 47 v 37 h 48 v -29 h 47 v 15 h 47 v -22 h 48 v 8 h 47 v 2 h 47 v -14 h 48 v 34 h 47 v -37 h 48 v 8 h 47 v 6 h 47 v -12 h 48 v 27 h 47 v 14 257 0 h -47 v 0 h -48 v 0 h -47 v 0 h -47 v 0 h -48 v 0 h -47 v 0 h -48 v 0 h -47 v 0 h -47 v 0 h -48 v 0 h -47 v 0 h -47 v 0 h -48 v 0 h -47 v 0 h -48 v 0 h -47 v 0 H 95 v 0 H 47 v 0 H 0 Z"
     fill="#11223f"
     id="path7" />
  <path
     d="m 0,968 h 47 v 0 h 48 v 16 h 47 v -23 h 47 v -10 h 48 v 36 h 47 v -32 h 48 v -9 h 47 v 10 h 47 v 19 h 48 v -28 h 47 v -1 h 47 v 19 h 48 v -4 h 47 v 25 h 48 v -37 h 47 v 16 h 47 v -1 h 48 v 1 h 47 v -7 243 0 h -47 v 0 h -48 v 0 h -47 v 0 h -47 v 0 h -48 v 0 h -47 v 0 h -48 v 0 h -47 v 0 h -47 v 0 h -48 v 0 h -47 v 0 h -47 v 0 h -48 v 0 h -47 v 0 h -48 v 0 h -47 v 0 H 95 v 0 H 47 v 0 H 0 Z"
     fill="#122341"
     id="path8" />
  <path
     d="m 0,1003 h 47 v 2 h 48 v -4 h 47 v 13 h 47 v 7 h 48 v -20 h 47 v 27 h 48 v -33 h 47 v 36 h 47 v 0 h 48 v -19 h 47 v 19 h 47 v -36 h 48 v -2 h 47 v 28 h 48 v -9 h 47 v 9 h 47 v -2 h 48 v 3 h 47 v -12 191 0 h -47 v 0 h -48 v 0 h -47 v 0 h -47 v 0 h -48 v 0 h -47 v 0 h -48 v 0 h -47 v 0 h -47 v 0 h -48 v 0 h -47 v 0 h -47 v 0 h -48 v 0 h -47 v 0 h -48 v 0 h -47 v 0 H 95 v 0 H 47 v 0 H 0 Z"
     fill="#122543"
     id="path9" />
  <path
     d="m 0,1065 h 47 v -8 h 48 v 3 h 47 v -19 h 47 v 38 h 48 v -24 h 47 v 24 h 48 v -2 h 47 v -39 h 47 v 36 h 48 v -1 h 47 v -2 h 47 v -24 h 48 v 18 h 47 v -16 h 48 v 14 h 47 v 20 h 47 v -18 h 48 v -19 h 47 v 26 129 0 h -47 v 0 h -48 v 0 h -47 v 0 h -47 v 0 h -48 v 0 h -47 v 0 h -48 v 0 h -47 v 0 h -47 v 0 h -48 v 0 h -47 v 0 h -47 v 0 h -48 v 0 h -47 v 0 h -48 v 0 h -47 v 0 H 95 v 0 H 47 v 0 H 0 Z"
     fill="#132646"
     id="path10" />
  <path
     d="m 0,1128 h 47 v -35 h 48 v 25 h 47 v -8 h 47 v 11 h 48 v -8 h 47 v 15 h 48 v -40 h 47 v 26 h 47 v 0 h 48 v 2 h 47 v -17 h 47 v 26 h 48 v -25 h 47 v -8 h 48 v 36 h 47 v -33 h 47 v 27 h 48 v -34 h 47 v 11 102 0 h -47 v 0 h -48 v 0 h -47 v 0 h -47 v 0 h -48 v 0 h -47 v 0 h -48 v 0 h -47 v 0 h -47 v 0 h -48 v 0 h -47 v 0 h -47 v 0 h -48 v 0 h -47 v 0 h -48 v 0 h -47 v 0 H 95 v 0 H 47 v 0 H 0 Z"
     fill="#132848"
     id="path11" />
  <path
     d="m 0,1147 h 47 v -3 h 48 v 15 h 47 v -11 h 47 v -12 h 48 v 21 h 47 v 10 h 48 v 2 h 47 v -15 h 47 v 15 h 48 v -27 h 47 v 26 h 47 v 0 h 48 v -22 h 47 v 26 h 48 v 1 h 47 v -7 h 47 v -32 h 48 v 38 h 47 v -15 44 0 h -47 v 0 h -48 v 0 h -47 v 0 h -47 v 0 h -48 v 0 h -47 v 0 h -48 v 0 h -47 v 0 h -47 v 0 h -48 v 0 h -47 v 0 h -47 v 0 h -48 v 0 h -47 v 0 h -48 v 0 h -47 v 0 H 95 v 0 H 47 v 0 H 0 Z"
     fill="#14294a"
     id="path12" />
  <rect
     x="0"
     y="-601"
     width="900"
     height="600"
     fill="#0e1a32"
     id="rect1-6"
     style="stroke-width:0.999999"
     transform="scale(1,-1)" />
  <path
     d="m 0,565.99999 h 47 v -25.99998 h 48 v -4.00002 h 47 V 577 h 47 v -15.99999 h 48 v 16.99998 h 47 v -13.99998 h 47.99999 V 541.99999 H 379 v 25.00002 h 47.00002 v -6 h 48 v 15 h 46.99997 v -31.00002 h 47.00002 v 13.00002 H 616 v 13.99998 h 47 v -30 h 48 V 568 h 47 v -33.99999 h 47 V 571 h 48 v -18 h 47 V 535.99999 0 0 h -47 v 0 h -48 v 0 h -47 v 0 h -47 v 0 h -48 v 0 h -47 v 0 h -47.99999 v 0 h -47.00002 v 0 h -46.99997 v 0 h -48 V 0 H 379 V 0 H 331.99999 V 0 H 284 V 0 H 237 V 0 H 189 V 0 H 142 V 0 H 95 V 0 H 47 V 0 H 0 Z"
     fill="#0e1a32"
     id="path1-2"
     style="stroke-width:0.999999" />
  <path
     d="m 0,514.99999 h 47 v -21 H 95 V 517 h 47 v 6 h 47 v 5.00001 h 48 V 508 h 47 v 8.00001 h 47.99999 V 505.99999 H 379 v 3 h 47.00002 V 493 h 48 v 18 h 46.99997 v 9 h 47.00002 V 501.00001 H 616 v 22.99998 h 47 v -3 h 48 v -9 h 47 v 7.00002 h 47 V 487 h 48 v 14.00001 h 47 V 508.99999 0 0 h -47 v 0 h -48 v 0 h -47 v 0 h -47 v 0 h -48 v 0 h -47 v 0 h -47.99999 v 0 h -47.00002 v 0 h -46.99997 v 0 h -48 V 0 H 379 V 0 H 331.99999 V 0 H 284 V 0 H 237 V 0 H 189 V 0 H 142 V 0 H 95 V 0 H 47 V 0 H 0 Z"
     fill="#0f1b34"
     id="path2-6"
     style="stroke-width:0.999999" />
  <path
     d="m 0,469.99999 h 47 v -18.00001 h 48 v -3 h 47 v 36.00001 h 47 V 478 h 48 v -6.99999 h 47 v -25.00003 h 47.99999 v 10.00003 H 379 v -3 h 47.00002 V 466 h 48 v -9 h 46.99997 v -6 h 47.00002 v -6 H 616 v 23.00001 h 47 v 10.99998 h 48 v -15.00001 h 47 V 484 h 47 v -23.00002 h 48 v 15.00001 h 47 v 0 V 0 0 h -47 v 0 h -48 v 0 h -47 v 0 h -47 v 0 h -48 v 0 h -47 v 0 h -47.99999 v 0 h -47.00002 v 0 h -46.99997 v 0 h -48 V 0 H 379 V 0 H 331.99999 V 0 H 284 V 0 H 237 V 0 H 189 V 0 H 142 V 0 H 95 V 0 H 47 V 0 H 0 Z"
     fill="#0f1d36"
     id="path3-1"
     style="stroke-width:0.999999" />
  <path
     d="M 0,439.99998 H 47 V 400 h 48 v 39.99998 h 47 v -37.99997 h 47 v 6 h 48 v 12 h 47 V 397 h 47.99999 v 2.00001 H 379 v 28.99997 h 47.00002 v -16.99997 h 48 v -12.99999 h 46.99997 v -3 h 47.00002 V 415 H 616 v -9.99999 h 47 V 427 h 48 v -6 h 47 v -21 h 47 v -3 h 48 v 17.00001 h 47 v 21 V 0 0 h -47 v 0 h -48 v 0 h -47 v 0 h -47 v 0 h -48 v 0 h -47 v 0 h -47.99999 v 0 h -47.00002 v 0 h -46.99997 v 0 h -48 V 0 H 379 V 0 H 331.99999 V 0 H 284 V 0 H 237 V 0 H 189 V 0 H 142 V 0 H 95 V 0 H 47 V 0 H 0 Z"
     fill="#101e38"
     id="path4-8"
     style="stroke-width:0.999999" />
  <path
     d="m 0,357.00001 h 47 v 12 H 95 V 355 h 47 v 31.00002 h 47 v -11.00001 h 48 V 364 h 47 v 8.00001 h 47.99999 v -3 H 379 v -9.99999 h 47.00002 v 15.99999 h 48 v -15.99999 h 46.99997 v 6.99999 h 47.00002 v 6 H 616 v 21 h 47 v -18.99999 h 48 V 361 h 47 v 16.00002 h 47 V 370 h 48 v -12.99999 h 47 v -9 V 0 0 h -47 v 0 h -48 v 0 h -47 v 0 h -47 v 0 h -48 v 0 h -47 v 0 h -47.99999 v 0 h -47.00002 v 0 h -46.99997 v 0 h -48 V 0 H 379 V 0 H 331.99999 V 0 H 284 V 0 H 237 V 0 H 189 V 0 H 142 V 0 H 95 V 0 H 47 V 0 H 0 Z"
     fill="#101f3b"
     id="path5-7"
     style="stroke-width:0.999999" />
  <path
     d="m 0,316 h 47 v 8.00001 h 48 v -6.99999 h 47 v 3 h 47 V 313 h 48 v 26.00001 h 47 v -15.99999 h 47.99999 v 12.99999 H 379 v -15 h 47.00002 v -6.99999 h 48 V 304 h 46.99997 v 27 h 47.00002 v 10.00002 H 616 v -17.00001 h 47 v 15 h 48 v -18.99999 h 47 v -14.00001 h 47 v -3.99999 h 48 v 3.99999 h 47 V 305.00002 0 0 h -47 v 0 h -48 v 0 h -47 v 0 h -47 v 0 h -48 v 0 h -47 v 0 h -47.99999 v 0 h -47.00002 v 0 h -46.99997 v 0 h -48 V 0 H 379 V 0 H 331.99999 V 0 H 284 V 0 H 237 V 0 H 189 V 0 H 142 V 0 H 95 V 0 H 47 V 0 H 0 Z"
     fill="#11203d"
     id="path6-9"
     style="stroke-width:0.999999" />
  <path
     d="m 0,301 h 47 v -0.99999 h 48 v -18.99999 h 47 v -16.00003 h 47 v 14.00002 h 48 v 15 h 47 v -36.99999 h 47.99999 V 286 H 379 v -15.00001 h 47.00002 v 22.00003 h 48 v -8.00001 h 46.99997 V 283 h 47.00002 v 14.00001 H 616 v -33.99999 h 47 v 36.99999 h 48 V 292 h 47 v -6 h 47 v 12 h 48 v -27.00001 h 47 V 257.00002 0 0 h -47 v 0 h -48 v 0 h -47 v 0 h -47 v 0 h -48 v 0 h -47 v 0 h -47.99999 v 0 h -47.00002 v 0 h -46.99997 v 0 h -48 V 0 H 379 V 0 H 331.99999 V 0 H 284 V 0 H 237 V 0 H 189 V 0 H 142 V 0 H 95 V 0 H 47 V 0 H 0 Z"
     fill="#11223f"
     id="path7-2"
     style="stroke-width:0.999999" />
  <path
     d="m 0,233.00002 h 47 v 0 h 48 v -16.00003 h 47 v 23.00002 h 47 v 9.99998 h 48 v -36 h 47 v 32.00002 h 47.99999 v 9 H 379 v -9.99999 h 47.00002 v -19.00003 h 48 v 28.00003 h 46.99997 v 0.99999 h 47.00002 V 236.00002 H 616 v 3.99999 h 47 v -24.99999 h 48 v 36.99999 h 47 v -15.99999 h 47 v 0.99999 h 48 v -0.99999 h 47 V 243.00001 0 0 h -47 v 0 h -48 v 0 h -47 v 0 h -47 v 0 h -48 v 0 h -47 v 0 h -47.99999 v 0 h -47.00002 v 0 h -46.99997 v 0 h -48 V 0 H 379 V 0 H 331.99999 V 0 H 284 V 0 H 237 V 0 H 189 V 0 H 142 V 0 H 95 V 0 H 47 V 0 H 0 Z"
     fill="#122341"
     id="path8-0"
     style="stroke-width:0.999999" />
  <path
     d="m 0,198.00001 h 47 v -2.00002 h 48 v 4.00003 h 47 v -13.00003 h 47 V 180 h 48 v 20.00002 h 47 v -27.00001 h 47.99999 v 33.00001 H 379 v -36.00001 h 47.00002 v 0 h 48 V 189 h 46.99997 v -18.99999 h 47.00002 v 36.00001 H 616 v 1.99997 h 47 V 180 h 48 v 9 h 47 v -9 h 47 v 2.00001 h 48 v -3 h 47 v 12 V 0 0 h -47 v 0 h -48 v 0 h -47 v 0 h -47 v 0 h -48 v 0 h -47 v 0 h -47.99999 v 0 h -47.00002 v 0 h -46.99997 v 0 h -48 V 0 H 379 V 0 H 331.99999 V 0 H 284 V 0 H 237 V 0 H 189 V 0 H 142 V 0 H 95 V 0 H 47 V 0 H 0 Z"
     fill="#122543"
     id="path9-2"
     style="stroke-width:0.999999" />
  <path
     d="M 0,135.99999 H 47 V 144 h 48 v -3 h 47 v 18.99999 h 47 v -37.99998 h 48 v 24 h 47 v -24 h 47.99999 v 1.99998 H 379 v 39 h 47.00002 v -36 h 48 v 1.00002 h 46.99997 v 1.99998 h 47.00002 v 24 H 616 v -18 h 47 v 16.00002 h 48 V 138 h 47 v -20.00001 h 47 v 18 h 48 v 19.00002 h 47 V 129 0 0 h -47 v 0 h -48 v 0 h -47 v 0 h -47 v 0 h -48 v 0 h -47 v 0 h -47.99999 v 0 h -47.00002 v 0 h -46.99997 v 0 h -48 V 0 H 379 V 0 H 331.99999 V 0 H 284 V 0 H 237 V 0 H 189 V 0 H 142 V 0 H 95 V 0 H 47 V 0 H 0 Z"
     fill="#132646"
     id="path10-3"
     style="stroke-width:0.999999" />
  <path
     d="M 0,72.99999 H 47 V 108 H 95 V 83.00001 h 47 v 7.99998 h 47 V 80.00001 h 48 v 7.99998 h 47 v -15 h 47.99999 v 40.00002 H 379 V 87 h 47.00002 v 0 h 48 v -2.00001 h 46.99997 V 102 h 47.00002 V 75.99999 H 616 v 25.00002 h 47 v 7.99998 h 48 v -36 h 47 v 33 h 47 v -27 h 48 v 34.00002 h 47 V 102 0 0 h -47 v 0 h -48 v 0 h -47 v 0 h -47 v 0 h -48 v 0 h -47 v 0 h -47.99999 v 0 h -47.00002 v 0 h -46.99997 v 0 h -48 V 0 H 379 V 0 H 331.99999 V 0 H 284 V 0 H 237 V 0 H 189 V 0 H 142 V 0 H 95 V 0 H 47 V 0 H 0 Z"
     fill="#132848"
     id="path11-7"
     style="stroke-width:0.999999" />
  <path
     d="m 0,54 h 47 v 3 H 95 V 42 h 47 v 11.00001 h 47 v 12 h 48 v -21 h 47 V 33.99998 h 47.99999 V 32.00001 H 379 v 15 h 47.00002 v -15 h 48 v 27 h 46.99997 V 33 h 47.00002 v 0 H 616 v 21.99999 h 47 V 29.00001 h 48 v -1.00003 h 47 v 7.00003 h 47 v 31.99998 h 48 V 29.00001 h 47 v 15 V 0 0 h -47 v 0 h -48 v 0 h -47 v 0 h -47 v 0 h -48 v 0 h -47 v 0 h -47.99999 v 0 h -47.00002 v 0 h -46.99997 v 0 h -48 V 0 H 379 V 0 H 331.99999 V 0 H 284 V 0 H 237 V 0 H 189 V 0 H 142 V 0 H 95 V 0 H 47 V 0 H 0 Z"
     fill="#14294a"
     id="path12-5"
     style="stroke-width:0.999999" />
</svg>
