<?xml version="1.0" encoding="UTF-8" standalone="no"?>
<svg
   width="128"
   zoomAndPan="magnify"
   viewBox="0 0 96 30.000001"
   height="40"
   preserveAspectRatio="xMidYMid meet"
   version="1.0"
   id="svg12"
   sodipodi:docname="otter.svg"
   inkscape:version="1.4.3 (0d15f75042, 2025-12-25)"
   xmlns:inkscape="http://www.inkscape.org/namespaces/inkscape"
   xmlns:sodipodi="http://sodipodi.sourceforge.net/DTD/sodipodi-0.dtd"
   xmlns="http://www.w3.org/2000/svg"
   xmlns:svg="http://www.w3.org/2000/svg">
  <sodipodi:namedview
     id="namedview12"
     pagecolor="#505050"
     bordercolor="#ffffff"
     borderopacity="1"
     inkscape:showpageshadow="0"
     inkscape:pageopacity="0"
     inkscape:pagecheckerboard="1"
     inkscape:deskcolor="#505050"
     inkscape:zoom="13.867188"
     inkscape:cx="64.036056"
     inkscape:cy="25.780282"
     inkscape:window-width="1920"
     inkscape:window-height="1026"
     inkscape:window-x="0"
     inkscape:window-y="22"
     inkscape:window-maximized="1"
     inkscape:current-layer="svg12" />
  <defs
     id="defs5">
    <clipPath
       id="11cf62ba4e">
      <path
         d="M 46.839844 13.753906 L 49.164062 13.753906 L 49.164062 15.277344 L 46.839844 15.277344 Z M 46.839844 13.753906 "
         clip-rule="nonzero"
         id="path1" />
    </clipPath>
    <clipPath
       id="7d25594ad2">
      <path
         d="M 47.605469 13.753906 L 48.394531 13.753906 C 48.597656 13.753906 48.792969 13.835938 48.933594 13.976562 C 49.078125 14.121094 49.160156 14.3125 49.160156 14.515625 C 49.160156 14.71875 49.078125 14.914062 48.933594 15.054688 C 48.792969 15.199219 48.597656 15.277344 48.394531 15.277344 L 47.605469 15.277344 C 47.402344 15.277344 47.207031 15.199219 47.066406 15.054688 C 46.921875 14.914062 46.839844 14.71875 46.839844 14.515625 C 46.839844 14.3125 46.921875 14.121094 47.066406 13.976562 C 47.207031 13.835938 47.402344 13.753906 47.605469 13.753906 Z M 47.605469 13.753906 "
         clip-rule="nonzero"
         id="path2" />
    </clipPath>
    <clipPath
       id="bda56c74b8">
      <path
         d="M 0.839844 0.753906 L 3.160156 0.753906 L 3.160156 2.277344 L 0.839844 2.277344 Z M 0.839844 0.753906 "
         clip-rule="nonzero"
         id="path3" />
    </clipPath>
    <clipPath
       id="e40cd0dcc1">
      <path
         d="M 1.605469 0.753906 L 2.394531 0.753906 C 2.597656 0.753906 2.792969 0.835938 2.933594 0.976562 C 3.078125 1.121094 3.160156 1.3125 3.160156 1.515625 C 3.160156 1.71875 3.078125 1.914062 2.933594 2.054688 C 2.792969 2.199219 2.597656 2.277344 2.394531 2.277344 L 1.605469 2.277344 C 1.402344 2.277344 1.207031 2.199219 1.066406 2.054688 C 0.921875 1.914062 0.839844 1.71875 0.839844 1.515625 C 0.839844 1.3125 0.921875 1.121094 1.066406 0.976562 C 1.207031 0.835938 1.402344 0.753906 1.605469 0.753906 Z M 1.605469 0.753906 "
         clip-rule="nonzero"
         id="path4" />
    </clipPath>
    <clipPath
       id="ad077c3cf6">
      <rect
         x="0"
         width="4"
         y="0"
         height="3"
         id="rect4" />
    </clipPath>
    <clipPath
       id="50dfb805ba">
      <path
         d="M 4 0.289062 L 92.816406 0.289062 L 92.816406 28.597656 L 4 28.597656 Z M 4 0.289062 "
         clip-rule="nonzero"
         id="path5" />
    </clipPath>
  </defs>
  <g
     clip-path="url(#11cf62ba4e)"
     id="g11">
    <g
       clip-path="url(#7d25594ad2)"
       id="g10">
      <g
         transform="matrix(1, 0, 0, 1, 46, 13)"
         id="g9">
        <g
           clip-path="url(#ad077c3cf6)"
           id="g8">
          <g
             clip-path="url(#bda56c74b8)"
             id="g7">
            <g
               clip-path="url(#e40cd0dcc1)"
               id="g6">
              <path
                 fill="#1d79f1"
                 d="M 0.839844 0.753906 L 3.15625 0.753906 L 3.15625 2.277344 L 0.839844 2.277344 Z M 0.839844 0.753906 "
                 fill-opacity="1"
                 fill-rule="nonzero"
                 id="path6" />
            </g>
          </g>
        </g>
      </g>
    </g>
  </g>
  <g
     clip-path="url(#50dfb805ba)"
     id="g12"
     transform="matrix(-1,0,0,1,96.146825,0)">
    <path
       fill="#1d79f1"
       d="m 13.28125,0.546875 c 0.894531,-0.164063 1.832031,-0.257813 2.730469,-0.109375 0.914062,0.128906 1.847656,0.292969 2.691406,0.730469 1.007813,0.53125 2,1.121093 2.898437,1.835937 1.554688,1.261719 3.113282,2.546875 4.726563,3.738282 0.917969,-0.128907 1.832031,-0.257813 2.765625,-0.148438 0.84375,0.054688 1.707031,0.203125 2.550781,0.109375 2.398438,-0.546875 4.761719,-1.226563 7.144531,-1.851563 1.742188,-0.457031 3.484376,-0.953124 5.261719,-1.246093 2.03125,-0.292969 4.105469,-0.238281 6.15625,-0.089844 1.871094,0.144531 3.777344,0.382813 5.480469,1.191406 1.777344,0.75 3.261719,2.015625 4.746094,3.207031 2.804687,2.21875 5.351562,4.710938 8.101562,6.964844 2.472656,2.179688 5.292969,3.9375 8.335938,5.183594 2.640625,1.007812 5.445312,1.558594 8.210937,2.183594 1.960938,0.4375 3.957031,0.785156 5.902344,1.355468 0.402344,0.144532 0.824219,0.21875 1.136719,0.511719 -0.09375,0.347657 -0.515625,0.367188 -0.808594,0.402344 -1.410156,0.128906 -2.839844,0.07422 -4.25,0.09375 -2,0 -3.996094,-0.05469 -5.976562,-0.09375 -2.710938,-0.05469 -5.421876,-0.417969 -8.042969,-1.117187 -2.144531,-0.546876 -4.234375,-1.355469 -6.269531,-2.269532 -1.613282,-0.734375 -3.113282,-1.652344 -4.765626,-2.257812 -0.402343,-0.109375 -0.933593,0.07422 -1.117187,0.460937 0.03906,0.730469 0.421875,1.390625 0.421875,2.125 0.03906,0.824219 -0.292969,1.613281 -0.734375,2.289063 -0.640625,0.9375 -1.335937,1.851562 -1.996094,2.75 -0.347656,0.441406 -0.660156,0.933594 -1.191406,1.171875 -0.328125,0.183593 -0.734375,0.148437 -1.0625,0.367187 -0.457031,0.238282 -0.933594,0.585938 -1.484375,0.550782 -0.273438,-0.01953 -0.347656,-0.347657 -0.21875,-0.550782 -0.460938,0.09375 -0.917969,0.222656 -1.375,0.332032 -0.347656,0.07031 -0.878906,0 -0.878906,-0.441407 -0.183594,-0.07422 -0.421875,-0.07422 -0.496094,-0.292969 0.347656,-0.566406 1.027344,-0.824218 1.648438,-0.953124 0.53125,-0.144532 1.101562,-0.21875 1.632812,-0.367188 0.605469,-0.84375 1.171875,-1.683594 1.777344,-2.527344 -1.101563,-0.386718 -2.21875,-0.769531 -3.207032,-1.394531 -0.292968,0.660156 -0.585937,1.320313 -0.898437,1.980469 -0.421875,0.953125 -1.355469,1.503906 -2.179687,2.050781 -0.808594,0.476563 -1.597657,0.992187 -2.511719,1.191406 -0.660157,0.07422 -1.339844,0.09375 -1.996094,-0.01563 -0.496094,0.21875 -1.027344,0.511719 -1.578125,0.457032 -0.238281,-0.03516 -0.203125,-0.332032 -0.183594,-0.496094 -0.382812,0.109375 -0.769531,0.277344 -1.171875,0.238281 -0.183593,-0.01563 -0.292969,-0.164063 -0.386719,-0.308594 -0.183593,0 -0.457031,0 -0.457031,-0.257812 0.05469,-0.3125 0.457031,-0.347657 0.640625,-0.570313 0.53125,-0.511718 1.320313,-0.457031 2,-0.492187 0.402344,0 0.769532,-0.238281 1.117188,-0.40625 0.660156,-0.292969 1.320312,-0.585938 1.886718,-1.007813 0.203126,-0.164062 0.386719,-0.382812 0.421876,-0.65625 -0.05469,-0.421875 -0.292969,-0.789062 -0.457032,-1.175781 -0.347656,-0.714844 -0.625,-1.464844 -0.734375,-2.253906 -1.027343,-0.109375 -2.035156,-0.382813 -3.058593,-0.550781 -0.644532,-0.164063 -1.304688,-0.01563 -1.945313,0.05859 -0.988281,0.164063 -1.960937,0.363281 -2.914063,0.714844 -0.511718,0.179687 -1.042968,0.382813 -1.59375,0.457031 0.03516,0.605469 0.09375,1.207032 0.183594,1.796875 0.01953,0.144531 0.08984,0.328125 -0.01953,0.457031 -0.164063,0.199219 -0.457031,0.238282 -0.585937,0.476563 -0.367188,0.714844 -0.367188,1.519531 -0.53125,2.289063 -0.292969,0.53125 -0.605469,1.046874 -0.953126,1.523437 -0.421874,0.511719 -1.136718,0.183594 -1.683593,0.402344 -0.589844,0.21875 -1.265625,0.441406 -1.890625,0.203125 -0.144532,-0.05859 -0.164063,-0.238282 -0.199219,-0.386719 -0.460937,0.07422 -0.898437,0.238281 -1.355469,0.273437 -0.257812,0 -0.589844,-0.109374 -0.644531,-0.402343 -0.07031,-0.3125 0.257813,-0.492188 0.496094,-0.605469 0.292969,-0.164062 0.695312,-0.07031 0.878906,-0.382812 0.695313,-0.109376 1.375,-0.332032 2.089844,-0.3125 0.109375,-0.382813 0.21875,-0.75 0.292969,-1.136719 0.09375,-0.253907 -0.05469,-0.476563 -0.144532,-0.695313 -0.421875,-0.714844 -0.972656,-1.355468 -1.652344,-1.851562 -0.421874,-0.292969 -0.785156,-0.640625 -1.226562,-0.878906 -1.171875,-0.164063 -2.308594,-0.441407 -3.410156,-0.84375 -1.171875,1.265624 -2.691406,2.144531 -4.175782,3.003906 -0.878906,0.515625 -1.851562,0.882812 -2.621093,1.542968 -0.347657,0.273438 -0.695313,0.621094 -1.15625,0.714844 -0.421875,0.109375 -0.859375,0.05469 -1.300781,0.08984 -0.566407,0.148438 -1.082032,0.566406 -1.683594,0.476562 -0.296875,-0.08984 -0.148438,-0.421874 0,-0.585937 -0.496094,0.05469 -0.953125,0.257813 -1.394532,0.457031 -0.3125,0.148438 -0.75,0.21875 -0.933593,-0.109375 -0.441407,0.03516 -0.898438,0.347657 -1.300781,0.08984 -0.148438,-0.109375 -0.40625,-0.179687 -0.421876,-0.382813 -0.09375,-0.148437 0.08984,-0.257812 0.183594,-0.3125 0.328125,-0.199218 0.714844,-0.3125 1.0625,-0.476562 0.511719,-0.253906 1.082032,-0.292969 1.628906,-0.421875 0.769532,-0.128906 1.484376,-0.382813 2.199219,-0.660156 0.203125,-0.07031 0.367188,-0.199219 0.496094,-0.347657 0.585937,-0.605468 1.152344,-1.261718 1.464844,-2.050781 0.515625,-1.191406 0.734375,-2.492187 0.789062,-3.792969 -0.05469,-0.734374 -0.148437,-1.484374 -0.257812,-2.21875 -1.246094,-1.355468 -2.65625,-2.527343 -3.976563,-3.792968 C 15.203125,11.742188 14.433594,10.992188 13.554688,10.386719 13.042969,10.039062 12.453125,9.839844 11.867188,9.746094 10.769531,9.582031 9.652344,9.527344 8.550781,9.433594 7.398438,9.304688 6.167969,9.03125 5.308594,8.207031 4.960938,7.988281 4.554688,7.839844 4.355469,7.457031 3.988281,6.941406 3.878906,6.171875 4.28125,5.640625 4.648438,5.203125 5.199219,5 5.636719,4.632812 6.1875,4.175781 6.589844,3.570312 7.105469,3.074219 7.890625,2.25 8.992188,1.867188 10.015625,1.425781 11.042969,0.949219 12.160156,0.730469 13.28125,0.546875 Z m 0,0"
       fill-opacity="1"
       fill-rule="evenodd"
       id="path11" />
  </g>
</svg>
