<svg xmlns="http://www.w3.org/2000/svg" xmlns:xlink="http://www.w3.org/1999/xlink" width="128" zoomAndPan="magnify" viewBox="0 0 96 30.000001" height="40" preserveAspectRatio="xMidYMid meet" version="1.0"><defs><clipPath id="11cf62ba4e"><path d="M 46.839844 13.753906 L 49.164062 13.753906 L 49.164062 15.277344 L 46.839844 15.277344 Z M 46.839844 13.753906 " clip-rule="nonzero"/></clipPath><clipPath id="7d25594ad2"><path d="M 47.605469 13.753906 L 48.394531 13.753906 C 48.597656 13.753906 48.792969 13.835938 48.933594 13.976562 C 49.078125 14.121094 49.160156 14.3125 49.160156 14.515625 C 49.160156 14.71875 49.078125 14.914062 48.933594 15.054688 C 48.792969 15.199219 48.597656 15.277344 48.394531 15.277344 L 47.605469 15.277344 C 47.402344 15.277344 47.207031 15.199219 47.066406 15.054688 C 46.921875 14.914062 46.839844 14.71875 46.839844 14.515625 C 46.839844 14.3125 46.921875 14.121094 47.066406 13.976562 C 47.207031 13.835938 47.402344 13.753906 47.605469 13.753906 Z M 47.605469 13.753906 " clip-rule="nonzero"/></clipPath><clipPath id="bda56c74b8"><path d="M 0.839844 0.753906 L 3.160156 0.753906 L 3.160156 2.277344 L 0.839844 2.277344 Z M 0.839844 0.753906 " clip-rule="nonzero"/></clipPath><clipPath id="e40cd0dcc1"><path d="M 1.605469 0.753906 L 2.394531 0.753906 C 2.597656 0.753906 2.792969 0.835938 2.933594 0.976562 C 3.078125 1.121094 3.160156 1.3125 3.160156 1.515625 C 3.160156 1.71875 3.078125 1.914062 2.933594 2.054688 C 2.792969 2.199219 2.597656 2.277344 2.394531 2.277344 L 1.605469 2.277344 C 1.402344 2.277344 1.207031 2.199219 1.066406 2.054688 C 0.921875 1.914062 0.839844 1.71875 0.839844 1.515625 C 0.839844 1.3125 0.921875 1.121094 1.066406 0.976562 C 1.207031 0.835938 1.402344 0.753906 1.605469 0.753906 Z M 1.605469 0.753906 " clip-rule="nonzero"/></clipPath><clipPath id="ad077c3cf6"><rect x="0" width="4" y="0" height="3"/></clipPath><clipPath id="50dfb805ba"><path d="M 4 0.289062 L 92.816406 0.289062 L 92.816406 28.597656 L 4 28.597656 Z M 4 0.289062 " clip-rule="nonzero"/></clipPath></defs><g clip-path="url(#11cf62ba4e)"><g clip-path="url(#7d25594ad2)"><g transform="matrix(1, 0, 0, 1, 46, 13)"><g clip-path="url(#ad077c3cf6)"><g clip-path="url(#bda56c74b8)"><g clip-path="url(#e40cd0dcc1)"><path fill="#1d79f1" d="M 0.839844 0.753906 L 3.15625 0.753906 L 3.15625 2.277344 L 0.839844 2.277344 Z M 0.839844 0.753906 " fill-opacity="1" fill-rule="nonzero"/></g></g></g></g></g></g><g clip-path="url(#50dfb805ba)"><path fill="#1d79f1" d="M 13.28125 0.546875 C 14.175781 0.382812 15.113281 0.289062 16.011719 0.4375 C 16.925781 0.566406 17.859375 0.730469 18.703125 1.167969 C 19.710938 1.699219 20.703125 2.289062 21.601562 3.003906 C 23.15625 4.265625 24.714844 5.550781 26.328125 6.742188 C 27.246094 6.613281 28.160156 6.484375 29.09375 6.59375 C 29.9375 6.648438 30.800781 6.796875 31.644531 6.703125 C 34.042969 6.15625 36.40625 5.476562 38.789062 4.851562 C 40.53125 4.394531 42.273438 3.898438 44.050781 3.605469 C 46.082031 3.3125 48.15625 3.367188 50.207031 3.515625 C 52.078125 3.660156 53.984375 3.898438 55.6875 4.707031 C 57.464844 5.457031 58.949219 6.722656 60.433594 7.914062 C 63.238281 10.132812 65.785156 12.625 68.535156 14.878906 C 71.007812 17.058594 73.828125 18.816406 76.871094 20.0625 C 79.511719 21.070312 82.316406 21.621094 85.082031 22.246094 C 87.042969 22.683594 89.039062 23.03125 90.984375 23.601562 C 91.386719 23.746094 91.808594 23.820312 92.121094 24.113281 C 92.027344 24.460938 91.605469 24.480469 91.3125 24.515625 C 89.902344 24.644531 88.472656 24.589844 87.0625 24.609375 C 85.0625 24.609375 83.066406 24.554688 81.085938 24.515625 C 78.375 24.460938 75.664062 24.097656 73.042969 23.398438 C 70.898438 22.851562 68.808594 22.042969 66.773438 21.128906 C 65.160156 20.394531 63.660156 19.476562 62.007812 18.871094 C 61.605469 18.761719 61.074219 18.945312 60.890625 19.332031 C 60.929688 20.0625 61.3125 20.722656 61.3125 21.457031 C 61.351562 22.28125 61.019531 23.070312 60.578125 23.746094 C 59.9375 24.683594 59.242188 25.597656 58.582031 26.496094 C 58.234375 26.9375 57.921875 27.429688 57.390625 27.667969 C 57.0625 27.851562 56.65625 27.816406 56.328125 28.035156 C 55.871094 28.273438 55.394531 28.621094 54.84375 28.585938 C 54.570312 28.566406 54.496094 28.238281 54.625 28.035156 C 54.164062 28.128906 53.707031 28.257812 53.25 28.367188 C 52.902344 28.4375 52.371094 28.367188 52.371094 27.925781 C 52.1875 27.851562 51.949219 27.851562 51.875 27.632812 C 52.222656 27.066406 52.902344 26.808594 53.523438 26.679688 C 54.054688 26.535156 54.625 26.460938 55.15625 26.3125 C 55.761719 25.46875 56.328125 24.628906 56.933594 23.785156 C 55.832031 23.398438 54.714844 23.015625 53.726562 22.390625 C 53.433594 23.050781 53.140625 23.710938 52.828125 24.371094 C 52.40625 25.324219 51.472656 25.875 50.648438 26.421875 C 49.839844 26.898438 49.050781 27.414062 48.136719 27.613281 C 47.476562 27.6875 46.796875 27.707031 46.140625 27.597656 C 45.644531 27.816406 45.113281 28.109375 44.5625 28.054688 C 44.324219 28.019531 44.359375 27.722656 44.378906 27.558594 C 43.996094 27.667969 43.609375 27.835938 43.207031 27.796875 C 43.023438 27.78125 42.914062 27.632812 42.820312 27.488281 C 42.636719 27.488281 42.363281 27.488281 42.363281 27.230469 C 42.417969 26.917969 42.820312 26.882812 43.003906 26.660156 C 43.535156 26.148438 44.324219 26.203125 45.003906 26.167969 C 45.40625 26.167969 45.773438 25.929688 46.121094 25.761719 C 46.78125 25.46875 47.441406 25.175781 48.007812 24.753906 C 48.210938 24.589844 48.394531 24.371094 48.429688 24.097656 C 48.375 23.675781 48.136719 23.308594 47.972656 22.921875 C 47.625 22.207031 47.347656 21.457031 47.238281 20.667969 C 46.210938 20.558594 45.203125 20.285156 44.179688 20.117188 C 43.535156 19.953125 42.875 20.101562 42.234375 20.175781 C 41.246094 20.339844 40.273438 20.539062 39.320312 20.890625 C 38.808594 21.070312 38.277344 21.273438 37.726562 21.347656 C 37.761719 21.953125 37.820312 22.554688 37.910156 23.144531 C 37.929688 23.289062 38 23.472656 37.890625 23.601562 C 37.726562 23.800781 37.433594 23.839844 37.304688 24.078125 C 36.9375 24.792969 36.9375 25.597656 36.773438 26.367188 C 36.480469 26.898438 36.167969 27.414062 35.820312 27.890625 C 35.398438 28.402344 34.683594 28.074219 34.136719 28.292969 C 33.546875 28.511719 32.871094 28.734375 32.246094 28.496094 C 32.101562 28.4375 32.082031 28.257812 32.046875 28.109375 C 31.585938 28.183594 31.148438 28.347656 30.691406 28.382812 C 30.433594 28.382812 30.101562 28.273438 30.046875 27.980469 C 29.976562 27.667969 30.304688 27.488281 30.542969 27.375 C 30.835938 27.210938 31.238281 27.304688 31.421875 26.992188 C 32.117188 26.882812 32.796875 26.660156 33.511719 26.679688 C 33.621094 26.296875 33.730469 25.929688 33.804688 25.542969 C 33.898438 25.289062 33.75 25.066406 33.660156 24.847656 C 33.238281 24.132812 32.6875 23.492188 32.007812 22.996094 C 31.585938 22.703125 31.222656 22.355469 30.78125 22.117188 C 29.609375 21.953125 28.472656 21.675781 27.371094 21.273438 C 26.199219 22.539062 24.679688 23.417969 23.195312 24.277344 C 22.316406 24.792969 21.34375 25.160156 20.574219 25.820312 C 20.226562 26.09375 19.878906 26.441406 19.417969 26.535156 C 18.996094 26.644531 18.558594 26.589844 18.117188 26.625 C 17.550781 26.773438 17.035156 27.191406 16.433594 27.101562 C 16.136719 27.011719 16.285156 26.679688 16.433594 26.515625 C 15.9375 26.570312 15.480469 26.773438 15.039062 26.972656 C 14.726562 27.121094 14.289062 27.191406 14.105469 26.863281 C 13.664062 26.898438 13.207031 27.210938 12.804688 26.953125 C 12.65625 26.84375 12.398438 26.773438 12.382812 26.570312 C 12.289062 26.421875 12.472656 26.3125 12.566406 26.257812 C 12.894531 26.058594 13.28125 25.945312 13.628906 25.78125 C 14.140625 25.527344 14.710938 25.488281 15.257812 25.359375 C 16.027344 25.230469 16.742188 24.976562 17.457031 24.699219 C 17.660156 24.628906 17.824219 24.5 17.953125 24.351562 C 18.539062 23.746094 19.105469 23.089844 19.417969 22.300781 C 19.933594 21.109375 20.152344 19.808594 20.207031 18.507812 C 20.152344 17.773438 20.058594 17.023438 19.949219 16.289062 C 18.703125 14.933594 17.292969 13.761719 15.972656 12.496094 C 15.203125 11.742188 14.433594 10.992188 13.554688 10.386719 C 13.042969 10.039062 12.453125 9.839844 11.867188 9.746094 C 10.769531 9.582031 9.652344 9.527344 8.550781 9.433594 C 7.398438 9.304688 6.167969 9.03125 5.308594 8.207031 C 4.960938 7.988281 4.554688 7.839844 4.355469 7.457031 C 3.988281 6.941406 3.878906 6.171875 4.28125 5.640625 C 4.648438 5.203125 5.199219 5 5.636719 4.632812 C 6.1875 4.175781 6.589844 3.570312 7.105469 3.074219 C 7.890625 2.25 8.992188 1.867188 10.015625 1.425781 C 11.042969 0.949219 12.160156 0.730469 13.28125 0.546875 Z M 13.28125 0.546875 " fill-opacity="1" fill-rule="evenodd"/></g></svg>